<?xml version="1.0" encoding="UTF-8" standalone="no"?>
<!DOCTYPE svg PUBLIC "-//W3C//DTD SVG 1.1//EN"
 "http://www.w3.org/Graphics/SVG/1.1/DTD/svg11.dtd">
<!-- Generated by graphviz version 13.0.1 (20250615.1724)
 -->
<!-- Title: g Pages: 1 -->
<svg width="1786pt" height="471pt"
 viewBox="0.00 0.00 1786.00 471.00" xmlns="http://www.w3.org/2000/svg" xmlns:xlink="http://www.w3.org/1999/xlink">
<g id="graph0" class="graph" transform="scale(1 1) rotate(0) translate(4 467)">
<title>g</title>
<polygon fill="white" stroke="none" points="-4,4 -4,-467 1781.75,-467 1781.75,4 -4,4"/>
<g id="clust1" class="cluster">
<title>cluster_image1</title>
<polygon fill="none" stroke="black" stroke-dasharray="5,2" points="385.75,-27 385.75,-348 1164.75,-348 1164.75,-27 385.75,-27"/>
<text xml:space="preserve" text-anchor="middle" x="775.25" y="-330.7" font-family="Times New Roman,serif" font-size="14.00">案例展示1</text>
</g>
<g id="clust2" class="cluster">
<title>cluster_image2</title>
<polygon fill="none" stroke="black" stroke-dasharray="5,2" points="1184.75,-8 1184.75,-348 1769.75,-348 1769.75,-8 1184.75,-8"/>
<text xml:space="preserve" text-anchor="middle" x="1477.25" y="-330.7" font-family="Times New Roman,serif" font-size="14.00">案例展示2</text>
</g>
<g id="clust3" class="cluster">
<title>cluster_chunk</title>
<polygon fill="none" stroke="black" stroke-dasharray="5,2" points="8,-356 8,-455 1596,-455 1596,-356 8,-356"/>
<text xml:space="preserve" text-anchor="middle" x="802" y="-437.7" font-family="Times New Roman,serif" font-size="14.00">chunk</text>
</g>
<!-- A -->
<g id="node1" class="node">
<title>A</title>
<polygon fill="lightyellow" stroke="black" points="999.25,-314.5 551.25,-314.5 551.25,-89.5 999.25,-89.5 999.25,-314.5"/>
<image xlink:href="1.png" width="448px" height="225px" preserveAspectRatio="xMinYMin meet" x="551.25" y="-314.5"/>
<text xml:space="preserve" text-anchor="middle" x="775.25" y="-196.95" font-family="Times New Roman,serif" font-size="14.00">A</text>
</g>
<!-- B -->
<g id="node2" class="node">
<title>B</title>
<polygon fill="lightyellow" stroke="black" points="1156.75,-71 393.75,-71 393.75,-35 1156.75,-35 1156.75,-71"/>
<image xlink:href="2.png" width="763px" height="36px" preserveAspectRatio="xMinYMin meet" x="393.75" y="-71"/>
<text xml:space="preserve" text-anchor="middle" x="775.25" y="-47.95" font-family="Times New Roman,serif" font-size="14.00">B</text>
</g>
<!-- C -->
<g id="node3" class="node">
<title>C</title>
<polygon fill="lightyellow" stroke="black" points="1703.25,-257.5 1251.25,-257.5 1251.25,-16.5 1703.25,-16.5 1703.25,-257.5"/>
<image xlink:href="3.png" width="452px" height="241px" preserveAspectRatio="xMinYMin meet" x="1251.25" y="-257.5"/>
<text xml:space="preserve" text-anchor="middle" x="1477.25" y="-131.95" font-family="Times New Roman,serif" font-size="14.00">C</text>
</g>
<!-- D -->
<g id="node4" class="node">
<title>D</title>
<polygon fill="lightyellow" stroke="black" points="1761.75,-314.5 1192.75,-314.5 1192.75,-275.5 1761.75,-275.5 1761.75,-314.5"/>
<image xlink:href="4.png" width="569px" height="39px" preserveAspectRatio="xMinYMin meet" x="1192.75" y="-314.5"/>
<text xml:space="preserve" text-anchor="middle" x="1477.25" y="-289.95" font-family="Times New Roman,serif" font-size="14.00">D</text>
</g>
<!-- E -->
<g id="node5" class="node">
<title>E</title>
<polygon fill="lightyellow" stroke="black" points="164,-405.5 16,-405.5 16,-364.5 164,-364.5 164,-405.5"/>
<text xml:space="preserve" text-anchor="middle" x="90" y="-388.2" font-family="Times New Roman,serif" font-size="14.00">对象初始化</text>
<text xml:space="preserve" text-anchor="middle" x="90" y="-372.45" font-family="Times New Roman,serif" font-size="14.00">不得空加()如c2所示</text>
</g>
<!-- E&#45;&gt;A -->
<g id="edge4" class="edge">
<title>E&#45;&gt;A</title>
<path fill="none" stroke="black" d="M164.44,-365.33C253.7,-341.42 408.67,-299.91 540.05,-264.73"/>
<polygon fill="black" stroke="black" points="540.86,-268.13 549.61,-262.17 539.05,-261.37 540.86,-268.13"/>
</g>
<!-- E&#45;&gt;B -->
<g id="edge5" class="edge">
<title>E&#45;&gt;B</title>
<path fill="none" stroke="red" d="M103.33,-364.18C138.68,-306.69 246.84,-145.78 385.75,-81 389.66,-79.18 393.61,-77.43 397.61,-75.75"/>
<polygon fill="red" stroke="red" points="398.89,-79.01 406.87,-72.04 396.28,-72.51 398.89,-79.01"/>
</g>
<!-- F -->
<g id="node6" class="node">
<title>F</title>
<polygon fill="lightyellow" stroke="black" points="357.75,-405.5 200,-405.5 200,-364.5 357.75,-364.5 357.75,-405.5"/>
<text xml:space="preserve" text-anchor="middle" x="278.88" y="-388.2" font-family="Times New Roman,serif" font-size="14.00">调用默认值构造函数</text>
<text xml:space="preserve" text-anchor="middle" x="278.88" y="-372.45" font-family="Times New Roman,serif" font-size="14.00">应如c1所示</text>
</g>
<!-- E&#45;&gt;F -->
<g id="edge1" class="edge">
<title>E&#45;&gt;F</title>
<path fill="none" stroke="black" d="M164.32,-385C172.18,-385 180.23,-385 188.24,-385"/>
<polygon fill="black" stroke="black" points="188.01,-388.5 198.01,-385 188.01,-381.5 188.01,-388.5"/>
</g>
<!-- F&#45;&gt;A -->
<g id="edge6" class="edge">
<title>F&#45;&gt;A</title>
<path fill="none" stroke="black" d="M336.59,-364.01C387.09,-345.31 464.52,-316.65 540.28,-288.61"/>
<polygon fill="black" stroke="black" points="541.37,-291.93 549.54,-285.18 538.94,-285.37 541.37,-291.93"/>
</g>
<!-- G -->
<g id="node7" class="node">
<title>G</title>
<polygon fill="lightyellow" stroke="black" points="892,-422.12 658.5,-422.12 658.5,-363.88 892,-363.88 892,-422.12"/>
<text xml:space="preserve" text-anchor="middle" x="775.25" y="-404.82" font-family="Times New Roman,serif" font-size="14.00">像这个的重载构造不</text>
<text xml:space="preserve" text-anchor="middle" x="775.25" y="-389.07" font-family="Times New Roman,serif" font-size="14.00">可行, c1会起冲突, </text>
<text xml:space="preserve" text-anchor="middle" x="775.25" y="-371.82" font-family="Times New Roman,serif" font-size="14.00">且c2并不会调用无参的构造函数</text>
</g>
<!-- F&#45;&gt;G -->
<g id="edge2" class="edge">
<title>F&#45;&gt;G</title>
<path fill="none" stroke="black" d="M358.21,-386.27C435.7,-387.52 555.61,-389.46 646.83,-390.94"/>
<polygon fill="black" stroke="black" points="646.52,-394.43 656.57,-391.1 646.63,-387.43 646.52,-394.43"/>
</g>
<!-- G&#45;&gt;C -->
<g id="edge7" class="edge">
<title>G&#45;&gt;C</title>
<path fill="none" stroke="black" d="M892.2,-413.4C977.72,-421.48 1091.48,-416.58 1164.75,-352 1193.87,-326.34 1160.01,-296.9 1184.75,-267 1200.75,-247.66 1220.21,-231.1 1241.42,-216.93"/>
<polygon fill="black" stroke="black" points="1243.15,-219.97 1249.66,-211.61 1239.36,-214.09 1243.15,-219.97"/>
</g>
<!-- G&#45;&gt;D -->
<g id="edge8" class="edge">
<title>G&#45;&gt;D</title>
<path fill="none" stroke="red" d="M892.13,-383.09C969.51,-375.9 1073.45,-365.15 1164.75,-352 1232.24,-342.28 1307.46,-328.6 1367.06,-317.07"/>
<polygon fill="red" stroke="red" points="1367.37,-320.58 1376.52,-315.24 1366.04,-313.71 1367.37,-320.58"/>
</g>
<!-- H -->
<g id="node8" class="node">
<title>H</title>
<polygon fill="lightyellow" stroke="black" points="1588,-422.12 1366.5,-422.12 1366.5,-363.88 1588,-363.88 1588,-422.12"/>
<text xml:space="preserve" text-anchor="middle" x="1477.25" y="-404.82" font-family="Times New Roman,serif" font-size="14.00">关于c1, c2调用方式, </text>
<text xml:space="preserve" text-anchor="middle" x="1477.25" y="-387.57" font-family="Times New Roman,serif" font-size="14.00">曾出现过多次问题(嵌入式中), </text>
<text xml:space="preserve" text-anchor="middle" x="1477.25" y="-370.32" font-family="Times New Roman,serif" font-size="14.00">这次需要明确</text>
</g>
<!-- G&#45;&gt;H -->
<g id="edge3" class="edge">
<title>G&#45;&gt;H</title>
<path fill="none" stroke="black" d="M892.23,-393C1020.12,-393 1224.95,-393 1354.93,-393"/>
<polygon fill="black" stroke="black" points="1354.59,-396.5 1364.59,-393 1354.59,-389.5 1354.59,-396.5"/>
</g>
</g>
</svg>
