<svg xmlns="http://www.w3.org/2000/svg" xmlns:xlink="http://www.w3.org/1999/xlink" contentStyleType="text/css" data-diagram-type="MINDMAP" height="628px" preserveAspectRatio="none" style="width:680px;height:628px;background:#150349;" version="1.1" viewBox="0 0 680 628" width="680px" zoomAndPan="magnify"><defs/><g><rect fill="#150349" height="628" style="stroke:none;stroke-width:1;" width="680" x="0" y="0"/><path d="M14,305.1406 L14,321.1406 L16,321.1406 L16,305.1406 L14,305.1406 M18,305.1406 L18,313.1406 L22,313.1406 L22,315.1406 L30,315.1406 L26,311.2006 L30,307.1406 L24,307.1406 L24,305.1406 L18,305.1406" fill="#006400"/><text fill="#006400" font-family="KaiTi" font-size="24" font-weight="bold" lengthAdjust="spacing" textLength="99" x="43" y="323.7656">&#31639;&#27861;&#24605;&#24819;</text><rect fill="#B4E11F" height="40.5313" rx="12.5" ry="12.5" style="stroke:#181818;stroke-width:1.5;" width="115" x="192" y="121.3281"/><path d="M209,135.3594 L207.5,139.8594 L203,139.8594 L206.75,142.8594 L205.25,147.3594 L209,144.3594 L212.75,147.3594 L211.25,142.8594 L215,139.8594 L210.5,139.8594 L209,135.3594" fill="#000000"/><text fill="#000000" font-family="KaiTi" font-size="18" lengthAdjust="spacing" textLength="72" x="225" y="149.3281">&#20851;&#38190;&#24605;&#32771;</text><rect fill="#48A9E5" height="61.0625" rx="12.5" ry="12.5" style="stroke:#181818;stroke-width:1.5;" width="110" x="357" y="20"/><text fill="#000000" font-family="KaiTi" font-size="18" lengthAdjust="spacing" textLength="90" x="367" y="48">&#39064;&#30446;&#26412;&#36136;&#38382;</text><text fill="#000000" font-family="KaiTi" font-size="18" lengthAdjust="spacing" textLength="81" x="371.5" y="68.5313">&#30340;&#26159;&#20160;&#20040;?</text><path d="M307,141.5938 L317,141.5938 C332,141.5938 332,50.5313 347,50.5313 L357,50.5313" fill="none" style="stroke:#ACE9EF;stroke-width:2;"/><rect fill="#48A9E5" height="61.0625" rx="12.5" ry="12.5" style="stroke:#181818;stroke-width:1.5;" width="110" x="357" y="101.0625"/><text fill="#000000" font-family="KaiTi" font-size="18" lengthAdjust="spacing" textLength="90" x="367" y="129.0625">&#21345;&#20303;&#25105;&#30340;&#28857;</text><text fill="#000000" font-family="KaiTi" font-size="18" lengthAdjust="spacing" textLength="63" x="380.5" y="149.5938">&#26159;&#20160;&#20040;?</text><path d="M307,141.5938 L317,141.5938 C332,141.5938 332,131.5938 347,131.5938 L357,131.5938" fill="none" style="stroke:#ACE9EF;stroke-width:2;"/><rect fill="#48A9E5" height="40.5313" rx="12.5" ry="12.5" style="stroke:#181818;stroke-width:1.5;" width="128" x="357" y="182.125"/><text fill="#000000" font-family="KaiTi" font-size="18" lengthAdjust="spacing" textLength="108" x="367" y="210.125">&#23581;&#35797;&#36716;&#25442;&#35270;&#35282;</text><rect fill="#ED6D49" height="61.0625" rx="12.5" ry="12.5" style="stroke:#181818;stroke-width:1.5;" width="119" x="535" y="141.5938"/><text fill="#000000" font-family="KaiTi" font-size="18" lengthAdjust="spacing" textLength="90" x="549.5" y="169.5938">"&#28789;&#20809;&#19968;&#29616;"</text><text fill="#000000" font-family="KaiTi" font-size="18" lengthAdjust="spacing" textLength="99" x="545" y="190.125">&#24120;&#32858;&#28966;&#20110;&#27492;.</text><path d="M485,202.3906 L495,202.3906 C510,202.3906 510,172.125 525,172.125 L535,172.125" fill="none" style="stroke:#ACE9EF;stroke-width:2;"/><rect fill="#ED6D49" height="40.5313" rx="12.5" ry="12.5" style="stroke:#181818;stroke-width:1.5;" width="110" x="535" y="222.6563"/><text fill="#000000" font-family="KaiTi" font-size="18" lengthAdjust="spacing" textLength="90" x="545" y="250.6563">&#21051;&#24847;&#32451;&#20064;&#28857;</text><path d="M485,202.3906 L495,202.3906 C510,202.3906 510,242.9219 525,242.9219 L535,242.9219" fill="none" style="stroke:#ACE9EF;stroke-width:2;"/><path d="M307,141.5938 L317,141.5938 C332,141.5938 332,202.3906 347,202.3906 L357,202.3906" fill="none" style="stroke:#ACE9EF;stroke-width:2;"/><path d="M142,313.4531 L152,313.4531 C167,313.4531 167,141.5938 182,141.5938 L192,141.5938" fill="none" style="stroke:#ACE9EF;stroke-width:2;"/><rect fill="#B4E11F" height="40.5313" rx="12.5" ry="12.5" style="stroke:#181818;stroke-width:1.5;" width="115" x="192" y="424.7813"/><path d="M207.875,438.8125 L207.17,441.1075 L206,444.9475 L205.955,444.8575 L205.82,444.3475 L203,444.3475 L203,445.8475 L204.74,445.8475 L205.31,447.5875 L206.015,449.7925 L206.72,447.5425 L207.89,443.7925 L209.06,447.5425 L209.675,449.5525 L210.47,447.6325 L211.355,445.4275 L211.55,445.8475 L215.015,445.8475 L215.015,444.3475 L212.48,444.3475 L211.91,443.2225 L211.16,441.7675 L210.545,443.3125 L209.84,445.0975 L208.58,441.1075 L207.875,438.8125" fill="#000000"/><text fill="#000000" font-family="KaiTi" font-size="18" lengthAdjust="spacing" textLength="72" x="225" y="452.7813">&#31639;&#27861;&#27169;&#29256;</text><rect fill="#48A9E5" height="40.5313" rx="12.5" ry="12.5" style="stroke:#181818;stroke-width:1.5;" width="119" x="357" y="283.1875"/><text fill="#000000" font-family="KaiTi" font-size="18" lengthAdjust="spacing" textLength="99" x="367" y="311.1875">&#30446;&#26631;&#26159;&#20160;&#20040;?</text><path d="M307,445.0469 L317,445.0469 C332,445.0469 332,303.4531 347,303.4531 L357,303.4531" fill="none" style="stroke:#ACE9EF;stroke-width:2;"/><rect fill="#48A9E5" height="81.5938" rx="12.5" ry="12.5" style="stroke:#181818;stroke-width:1.5;" width="160" x="357" y="343.7188"/><path d="M378.545,357.75 L374,362.25 L372.5,360.75 L368,365.295 L369.5,366.795 L372.5,363.75 L374,365.25 L380,359.25 L378.545,357.75 M368,368.25 L368,369.75 L380,369.75 L380,368.25 L368,368.25" fill="#000000"/><text fill="#000000" font-family="KaiTi" font-size="18" lengthAdjust="spacing" textLength="117" x="390" y="371.7188">&#20026;&#20102;&#36798;&#21040;&#30446;&#26631;,</text><text fill="#000000" font-family="KaiTi" font-size="18" lengthAdjust="spacing" textLength="126" x="374" y="392.25">&#26368;&#23567;&#21487;&#32500;&#25252;&#20449;&#24687;</text><text fill="#000000" font-family="KaiTi" font-size="18" lengthAdjust="spacing" textLength="63" x="405.5" y="412.7813">&#26159;&#20160;&#20040;?</text><rect fill="#ED6D49" height="40.5313" rx="12.5" ry="12.5" style="stroke:#181818;stroke-width:1.5;" width="101" x="567" y="303.7188"/><text fill="#000000" font-family="KaiTi" font-size="18" lengthAdjust="spacing" textLength="81" x="577" y="331.7188">&#38745;&#24577;&#20449;&#24687;?</text><path d="M517,384.5156 L527,384.5156 C542,384.5156 542,323.9844 557,323.9844 L567,323.9844" fill="none" style="stroke:#ACE9EF;stroke-width:2;"/><rect fill="#ED6D49" height="40.5313" rx="12.5" ry="12.5" style="stroke:#181818;stroke-width:1.5;" width="101" x="567" y="364.25"/><text fill="#000000" font-family="KaiTi" font-size="18" lengthAdjust="spacing" textLength="81" x="577" y="392.25">&#21160;&#24577;&#20449;&#24687;?</text><path d="M517,384.5156 L527,384.5156 C542,384.5156 542,384.5156 557,384.5156 L567,384.5156" fill="none" style="stroke:#ACE9EF;stroke-width:2;"/><rect fill="#ED6D49" height="40.5313" rx="12.5" ry="12.5" style="stroke:#181818;stroke-width:1.5;" width="101" x="567" y="424.7813"/><text fill="#000000" font-family="KaiTi" font-size="18" lengthAdjust="spacing" textLength="81" x="577" y="452.7813">&#29366;&#24577;&#23450;&#20041;?</text><path d="M517,384.5156 L527,384.5156 C542,384.5156 542,445.0469 557,445.0469 L567,445.0469" fill="none" style="stroke:#ACE9EF;stroke-width:2;"/><path d="M307,445.0469 L317,445.0469 C332,445.0469 332,384.5156 347,384.5156 L357,384.5156" fill="none" style="stroke:#ACE9EF;stroke-width:2;"/><rect fill="#48A9E5" height="40.5313" rx="12.5" ry="12.5" style="stroke:#181818;stroke-width:1.5;" width="137" x="357" y="445.3125"/><text fill="#000000" font-family="KaiTi" font-size="18" lengthAdjust="spacing" textLength="117" x="367" y="473.3125">&#19981;&#21464;&#37327;&#26159;&#20160;&#20040;?</text><path d="M307,445.0469 L317,445.0469 C332,445.0469 332,465.5781 347,465.5781 L357,465.5781" fill="none" style="stroke:#ACE9EF;stroke-width:2;"/><rect fill="#48A9E5" height="40.5313" rx="12.5" ry="12.5" style="stroke:#181818;stroke-width:1.5;" width="137" x="357" y="505.8438"/><text fill="#000000" font-family="KaiTi" font-size="18" lengthAdjust="spacing" textLength="117" x="367" y="533.8438">&#29366;&#24577;&#22914;&#20309;&#36716;&#31227;?</text><path d="M307,445.0469 L317,445.0469 C332,445.0469 332,526.1094 347,526.1094 L357,526.1094" fill="none" style="stroke:#ACE9EF;stroke-width:2;"/><rect fill="#48A9E5" height="40.5313" rx="12.5" ry="12.5" style="stroke:#181818;stroke-width:1.5;" width="218" x="357" y="566.375"/><text fill="#000000" font-family="KaiTi" font-size="18" lengthAdjust="spacing" textLength="198" x="367" y="594.375">&#20160;&#20040;&#26102;&#20505;&#32456;&#27490;?&#20309;&#26102;&#36755;&#20986;?</text><path d="M307,445.0469 L317,445.0469 C332,445.0469 332,586.6406 347,586.6406 L357,586.6406" fill="none" style="stroke:#ACE9EF;stroke-width:2;"/><path d="M142,313.4531 L152,313.4531 C167,313.4531 167,445.0469 182,445.0469 L192,445.0469" fill="none" style="stroke:#ACE9EF;stroke-width:2;"/><!--SRC=[TPJzInj96CT_tx_YEGl5vDgOZKbgWgXN-uOrfLpI_XGuPdSdoU3kRDWNh-rHY5Lh56pezOelLw5AgHxNHa5Rea7xp-oR_yND9XljRGdBBfdlVBxFV9zXCXEwWJH38LHIK1KKH2Zt4w6YR4eOOaLT4uj8BgiQCIfAh6egCZU16Th5EMxYHxS-GsWLQKW10OapPKqrgJIfoge6L_XKV3YP-OwGS0cPid57fSO3f60Ok8z8WGnyHzow9FBa6GP-v4Tx0JynVf59cIgO6Y2o3zOuRbGtdifuZ0l2tIAex7l-u02eofhpVm3S36V4WY0AOdTErIIi1NgQzn-cF-VO1scQ-djGOffGdFVNWlZ5k50XuWp5kWw92oqeX4ISmQLU8K5z8ljOjrIdpKufGPMbIydlF96y67ShIKXZqJ6clLfP2LUDoY0VwTURaCGyNmhXYRvuSWHbS0fWQ0YSBulUcwsGSxYl4qjfAPdfETtsjv0psTTPoaXOIFISpZyR8MUgltDO54gNQnxz6tAc8trtfPGGKXtwEJSw51mRBleRZ5ujoQWy1cvppJbywzIsdFb3BXfbkd_iny1UF3p_gybqhpRFz2YSxwoxVpUTTv-yextpjMQHkfiBplg-rQvPn_Nn3cAlRbkd3QV-casvBuwBD3n_iENjl_LEFpchEzxkIs_tJr-Eme0xzyLUNBPQDVVLmK2HsgsMDxVfBdoqJbuvdp_4kfHTRpiB3RSzRns_PzNzi2njrPHrVD76thQxNE-ivMTzlnGAC7gL_K-gbJ6mMYVMoKllxCok7tJ9QopjkvfzqB0R-sxxo5dvO7tRTkRsmqsmZTZQS6fptTb0ibVsmfAxyfL9TdFJEbxkBcwrLkt6-lbI8nGg83- -i4xzlN5tsm7VOPorhtPjmstNdSyxuunWO-_iZRrqClx_s-gXZAZnA3SDirZJYKg1ZoNYYLHiU31lKfXYRvm7FfrDtSWcad0tL_WvFfADny678jpWtOVJeAkc9cAGY6veH30DLYN2JQ5P1B-Qr20Ape8_6Ypa8f2_tHFXDfqbcjgveBYfnxak1FTK8rzLZGwSJbw_IGp8Ous5WySvBhZvc5LK9KBBMNXKk7DzX9j6j6oYCbleMOMRPEVOq9vcOVB1Vm00]--></g></svg>