<svg xmlns="http://www.w3.org/2000/svg" xmlns:xlink="http://www.w3.org/1999/xlink" contentStyleType="text/css" data-diagram-type="ACTIVITY" height="810px" preserveAspectRatio="none" style="width:327px;height:810px;background:#FFFFFF;" version="1.1" viewBox="0 0 327 810" width="327px" zoomAndPan="magnify"><title>&#35760;&#24518;&#23618;&#38754;&#31574;&#30053;&#27963;&#21160;&#22270;</title><defs/><g><g class="title" data-source-line="2"><text fill="#000000" font-family="sans-serif" font-size="14" font-weight="bold" lengthAdjust="spacing" textLength="129.9375" x="97.5303" y="34.5332">&#35760;&#24518;&#23618;&#38754;&#31574;&#30053;&#27963;&#21160;&#22270;</text></g><rect fill="none" height="749.6406" style="stroke:#000000;stroke-width:1.5;" width="305.998" x="11" y="49.6094"/><text fill="#000000" font-family="sans-serif" font-size="14" lengthAdjust="spacing" textLength="111.248" x="108.375" y="66.1426">&#20027;&#35201;&#35760;&#24518;&#22270;_Part1</text><ellipse cx="148.4995" cy="97.2188" fill="#222222" rx="10" ry="10" style="stroke:#222222;stroke-width:1;"/><rect fill="#F1F1F1" height="50.1875" rx="12.5" ry="12.5" style="stroke:#181818;stroke-width:0.5;" width="106.666" x="95.1665" y="142.2188"/><text fill="#000000" font-family="sans-serif" font-size="12" lengthAdjust="spacing" textLength="47.3438" x="124.8276" y="164.6758">Anki&#22797;&#20064;</text><text fill="#000000" font-family="sans-serif" font-size="12" lengthAdjust="spacing" textLength="86.666" x="105.1665" y="179.7695">(&#20160;&#20040;&#26102;&#20505;&#22797;&#20064;?)</text><polygon fill="#F1F1F1" points="123.4407,227.4063,173.5583,227.4063,185.5583,239.4063,173.5583,251.4063,123.4407,251.4063,111.4407,239.4063,123.4407,227.4063" style="stroke:#181818;stroke-width:0.5;"/><text fill="#000000" font-family="sans-serif" font-size="11" lengthAdjust="spacing" textLength="50.1177" x="123.4407" y="243.9072">&#26159;&#21542;&#35760;&#20303;?</text><text fill="#000000" font-family="sans-serif" font-size="11" lengthAdjust="spacing" textLength="11" x="100.4407" y="236.9893">&#26159;</text><text fill="#000000" font-family="sans-serif" font-size="11" lengthAdjust="spacing" textLength="42.1685" x="185.5583" y="236.9893">&#21542; / &#36951;&#24536;</text><rect fill="#F1F1F1" height="35.0938" rx="12.5" ry="12.5" style="stroke:#181818;stroke-width:0.5;" width="92" x="31" y="261.4063"/><text fill="#000000" font-family="sans-serif" font-size="12" lengthAdjust="spacing" textLength="72" x="41" y="283.8633">&#27491;&#24120;&#38388;&#38548;&#22797;&#20064;</text><rect fill="#F1F1F1" height="35.0938" rx="12.5" ry="12.5" style="stroke:#181818;stroke-width:0.5;" width="137.3809" x="151.3086" y="261.4063"/><text fill="#000000" font-family="sans-serif" font-size="12" lengthAdjust="spacing" textLength="117.3809" x="161.3086" y="283.8633">&#21435; GitHub &#26597; Mapping</text><rect fill="#F1F1F1" height="50.1875" rx="12.5" ry="12.5" style="stroke:#181818;stroke-width:0.5;" width="153.998" x="143" y="331.5"/><text fill="#000000" font-family="sans-serif" font-size="12" lengthAdjust="spacing" textLength="92.0156" x="173.9912" y="353.957">&#26597;&#25214; GitHub &#20179;&#24211;</text><text fill="#000000" font-family="sans-serif" font-size="12" lengthAdjust="spacing" textLength="133.998" x="153" y="369.0508">(&#30693;&#35782; \ &#29702;&#35299; \ &#38169;&#39064; \ &#39064;&#30446;)</text><rect fill="#F1F1F1" height="50.1875" rx="12.5" ry="12.5" style="stroke:#181818;stroke-width:0.5;" width="106.666" x="166.666" y="416.6875"/><text fill="#000000" font-family="sans-serif" font-size="12" lengthAdjust="spacing" textLength="72" x="183.999" y="439.1445">&#22238;&#39038;&#30693;&#35782;&#20869;&#23481;</text><text fill="#000000" font-family="sans-serif" font-size="12" lengthAdjust="spacing" textLength="86.666" x="176.666" y="454.2383">(&#20855;&#20307;&#24590;&#20040;&#22238;&#39038;?)</text><rect fill="#F1F1F1" height="50.1875" rx="12.5" ry="12.5" style="stroke:#181818;stroke-width:0.5;" width="106.666" x="166.666" y="501.875"/><text fill="#000000" font-family="sans-serif" font-size="12" lengthAdjust="spacing" textLength="48" x="195.999" y="524.332">&#37325;&#26032;&#29702;&#35299;</text><text fill="#000000" font-family="sans-serif" font-size="12" lengthAdjust="spacing" textLength="86.666" x="176.666" y="539.4258">(&#20855;&#20307;&#24590;&#20040;&#29702;&#35299;?)</text><rect fill="#F1F1F1" height="35.0938" rx="12.5" ry="12.5" style="stroke:#181818;stroke-width:0.5;" width="132.0137" x="153.9922" y="587.0625"/><text fill="#000000" font-family="sans-serif" font-size="12" lengthAdjust="spacing" textLength="112.0137" x="163.9922" y="609.5195">&#26356;&#26032; / &#26032;&#22686; Anki &#21345;&#29255;</text><polygon fill="#F1F1F1" points="148.4995,628.1563,160.4995,640.1563,148.4995,652.1563,136.4995,640.1563,148.4995,628.1563" style="stroke:#181818;stroke-width:0.5;"/><rect fill="#F1F1F1" height="35.0938" rx="12.5" ry="12.5" style="stroke:#181818;stroke-width:0.5;" width="68" x="114.4995" y="687.1563"/><text fill="#000000" font-family="sans-serif" font-size="12" lengthAdjust="spacing" textLength="48" x="124.4995" y="709.6133">&#22238;&#21040;&#22797;&#20064;</text><ellipse cx="148.4995" cy="768.25" fill="none" rx="11" ry="11" style="stroke:#222222;stroke-width:1;"/><ellipse cx="148.4995" cy="768.25" fill="#222222" rx="6" ry="6" style="stroke:#222222;stroke-width:1;"/><line style="stroke:#181818;stroke-width:1;" x1="148.4995" x2="148.4995" y1="107.2188" y2="142.2188"/><polygon fill="#181818" points="144.4995,132.2188,148.4995,142.2188,152.4995,132.2188,148.4995,136.2188" style="stroke:#181818;stroke-width:1;"/><line style="stroke:#181818;stroke-width:1;" x1="219.999" x2="219.999" y1="296.5" y2="331.5"/><polygon fill="#181818" points="215.999,321.5,219.999,331.5,223.999,321.5,219.999,325.5" style="stroke:#181818;stroke-width:1;"/><line style="stroke:#181818;stroke-width:1;" x1="219.999" x2="219.999" y1="381.6875" y2="416.6875"/><polygon fill="#181818" points="215.999,406.6875,219.999,416.6875,223.999,406.6875,219.999,410.6875" style="stroke:#181818;stroke-width:1;"/><line style="stroke:#181818;stroke-width:1;" x1="219.999" x2="219.999" y1="466.875" y2="501.875"/><polygon fill="#181818" points="215.999,491.875,219.999,501.875,223.999,491.875,219.999,495.875" style="stroke:#181818;stroke-width:1;"/><line style="stroke:#181818;stroke-width:1;" x1="219.999" x2="219.999" y1="552.0625" y2="587.0625"/><polygon fill="#181818" points="215.999,577.0625,219.999,587.0625,223.999,577.0625,219.999,581.0625" style="stroke:#181818;stroke-width:1;"/><line style="stroke:#181818;stroke-width:1;" x1="111.4407" x2="77" y1="239.4063" y2="239.4063"/><line style="stroke:#181818;stroke-width:1;" x1="77" x2="77" y1="239.4063" y2="261.4063"/><polygon fill="#181818" points="73,251.4063,77,261.4063,81,251.4063,77,255.4063" style="stroke:#181818;stroke-width:1;"/><line style="stroke:#181818;stroke-width:1;" x1="185.5583" x2="219.999" y1="239.4063" y2="239.4063"/><line style="stroke:#181818;stroke-width:1;" x1="219.999" x2="219.999" y1="239.4063" y2="261.4063"/><polygon fill="#181818" points="215.999,251.4063,219.999,261.4063,223.999,251.4063,219.999,255.4063" style="stroke:#181818;stroke-width:1;"/><line style="stroke:#181818;stroke-width:1;" x1="77" x2="77" y1="296.5" y2="640.1563"/><line style="stroke:#181818;stroke-width:1;" x1="77" x2="136.4995" y1="640.1563" y2="640.1563"/><polygon fill="#181818" points="126.4995,636.1563,136.4995,640.1563,126.4995,644.1563,130.4995,640.1563" style="stroke:#181818;stroke-width:1;"/><line style="stroke:#181818;stroke-width:1;" x1="219.999" x2="219.999" y1="622.1563" y2="640.1563"/><line style="stroke:#181818;stroke-width:1;" x1="219.999" x2="160.4995" y1="640.1563" y2="640.1563"/><polygon fill="#181818" points="170.4995,636.1563,160.4995,640.1563,170.4995,644.1563,166.4995,640.1563" style="stroke:#181818;stroke-width:1;"/><line style="stroke:#181818;stroke-width:1;" x1="148.4995" x2="148.4995" y1="192.4063" y2="227.4063"/><polygon fill="#181818" points="144.4995,217.4063,148.4995,227.4063,152.4995,217.4063,148.4995,221.4063" style="stroke:#181818;stroke-width:1;"/><line style="stroke:#181818;stroke-width:1;" x1="148.4995" x2="148.4995" y1="652.1563" y2="687.1563"/><polygon fill="#181818" points="144.4995,677.1563,148.4995,687.1563,152.4995,677.1563,148.4995,681.1563" style="stroke:#181818;stroke-width:1;"/><line style="stroke:#181818;stroke-width:1;" x1="148.4995" x2="148.4995" y1="722.25" y2="757.25"/><polygon fill="#181818" points="144.4995,747.25,148.4995,757.25,152.4995,747.25,148.4995,751.25" style="stroke:#181818;stroke-width:1;"/><!--SRC=[NP1DIm9H58RtyolkKbVHLXSY1BK9MhGKOhAh3OwtORn24846VWMQeEdOaAOsriQFG4eRr3ypvuxpBxeweulkud0uztbVpdjI2OaeeYecqH6EYMcPdkDR6fQbE4bYGb6K5wmALA8oHklH15Pv-7fmNdlsi64_6sngmkCdw4j1K76KYYJECMjchWTP3zQN5sUYIW_l1CHVYl9-smN29271UzcQlqM8pp8prhp8cj-GQRd3a3-uvQGOyZ5j3DK1DxGMJo4_ejUOR8T-ruaD-p2RESsfyr9tnQuKoocCV5o93f2JRS9AymHGCT6nH4_IbuXr37GgAef4ua7FhMEmqdBtRvar-Atn3UsEiHxdKGJPrVpweyyRfzvoUjgcwMcsFlBs3O3UThfB5uTy3aPpheRSZxMeiKo5ftI1NRw0KoYpniHr_KUwmpt9z2adUHXUeTT6cmiYA7VjKi4BJAwacB1V0ugJtJcyuzyemlqV]--></g></svg>