<?xml version="1.0" encoding="UTF-8" standalone="no"?>
<!DOCTYPE svg PUBLIC "-//W3C//DTD SVG 1.1//EN"
 "http://www.w3.org/Graphics/SVG/1.1/DTD/svg11.dtd">
<!-- Generated by graphviz version 13.0.1 (20250615.1724)
 -->
<!-- Title: G Pages: 1 -->
<svg width="894pt" height="850pt"
 viewBox="0.00 0.00 894.00 850.00" xmlns="http://www.w3.org/2000/svg" xmlns:xlink="http://www.w3.org/1999/xlink">
<g id="graph0" class="graph" transform="scale(1 1) rotate(0) translate(4 846)">
<title>G</title>
<polygon fill="white" stroke="none" points="-4,4 -4,-846 889.5,-846 889.5,4 -4,4"/>
<!-- node1 -->
<g id="node1" class="node">
<title>node1</title>
<polygon fill="#abebc6" stroke="#27ae60" stroke-width="2" points="188.5,-659 188.5,-841.5 345.5,-841.5 345.5,-659 188.5,-659"/>
<text xml:space="preserve" text-anchor="middle" x="267" y="-824.2" font-family="Consolas" font-size="14.00">step1</text>
<polyline fill="none" stroke="#27ae60" stroke-width="2" points="188.5,-819.25 345.5,-819.25"/>
<text xml:space="preserve" text-anchor="middle" x="266.75" y="-801.95" font-family="Consolas" font-size="14.00">岛屿数量: 1</text>
<polyline fill="none" stroke="#27ae60" stroke-width="2" points="188.5,-795.5 345.5,-795.5"/>
<text xml:space="preserve" text-anchor="middle" x="267" y="-778.2" font-family="Consolas" font-size="14.00">nextx&amp;&amp;nexty: Null</text>
<polyline fill="none" stroke="#27ae60" stroke-width="2" points="188.5,-773.25 345.5,-773.25"/>
<text xml:space="preserve" text-anchor="middle" x="267" y="-755.95" font-family="Consolas" font-size="14.00">curx&amp;&amp;cury: (0, 0)</text>
<polyline fill="none" stroke="#27ae60" stroke-width="2" points="188.5,-751 345.5,-751"/>
<text xml:space="preserve" text-anchor="middle" x="266.75" y="-733.7" font-family="Consolas" font-size="14.00">dir: Null</text>
<polyline fill="none" stroke="#27ae60" stroke-width="2" points="188.5,-728.75 345.5,-728.75"/>
<text xml:space="preserve" text-anchor="middle" x="267" y="-711.45" font-family="Consolas" font-size="14.00">count: 1</text>
<polyline fill="none" stroke="#27ae60" stroke-width="2" points="188.5,-706.5 345.5,-706.5"/>
<text xml:space="preserve" text-anchor="middle" x="266.75" y="-689.2" font-family="Consolas" font-size="14.00">队列长度: 0</text>
<polyline fill="none" stroke="#27ae60" stroke-width="2" points="188.5,-682.75 345.5,-682.75"/>
<text xml:space="preserve" text-anchor="middle" x="267" y="-665.45" font-family="Consolas" font-size="14.00">出队还是入队: 出队</text>
</g>
<!-- node2 -->
<g id="node2" class="node">
<title>node2</title>
<polygon fill="#b2d3e4" stroke="#8383cc" stroke-width="2" points="0,-439.5 0,-622 166,-622 166,-439.5 0,-439.5"/>
<text xml:space="preserve" text-anchor="middle" x="83" y="-604.7" font-family="Consolas" font-size="14.00">step2</text>
<polyline fill="none" stroke="#8383cc" stroke-width="2" points="0,-599.75 166,-599.75"/>
<text xml:space="preserve" text-anchor="middle" x="82.75" y="-582.45" font-family="Consolas" font-size="14.00">岛屿数量: 1</text>
<polyline fill="none" stroke="#8383cc" stroke-width="2" points="0,-576 166,-576"/>
<text xml:space="preserve" text-anchor="middle" x="83" y="-558.7" font-family="Consolas" font-size="14.00">nextx&amp;&amp;nexty: (0, 1)</text>
<polyline fill="none" stroke="#8383cc" stroke-width="2" points="0,-553.75 166,-553.75"/>
<text xml:space="preserve" text-anchor="middle" x="83" y="-536.45" font-family="Consolas" font-size="14.00">curx&amp;&amp;cury: (0, 0)</text>
<polyline fill="none" stroke="#8383cc" stroke-width="2" points="0,-531.5 166,-531.5"/>
<text xml:space="preserve" text-anchor="middle" x="82.75" y="-514.2" font-family="Consolas" font-size="14.00">dir: (0, 1)</text>
<polyline fill="none" stroke="#8383cc" stroke-width="2" points="0,-509.25 166,-509.25"/>
<text xml:space="preserve" text-anchor="middle" x="83" y="-491.95" font-family="Consolas" font-size="14.00">count: 2</text>
<polyline fill="none" stroke="#8383cc" stroke-width="2" points="0,-487 166,-487"/>
<text xml:space="preserve" text-anchor="middle" x="82.75" y="-469.7" font-family="Consolas" font-size="14.00">队列长度: 1</text>
<polyline fill="none" stroke="#8383cc" stroke-width="2" points="0,-463.25 166,-463.25"/>
<text xml:space="preserve" text-anchor="middle" x="83" y="-445.95" font-family="Consolas" font-size="14.00">出队还是入队: 入队</text>
</g>
<!-- node1&#45;&#45;node2 -->
<g id="edge1" class="edge">
<title>node1&#45;&#45;node2</title>
<path fill="none" stroke="#8383cc" stroke-width="2" d="M190.03,-658.27C180.09,-646.51 169.9,-634.47 159.95,-622.71"/>
</g>
<!-- node3 -->
<g id="node3" class="node">
<title>node3</title>
<polygon fill="#b2d3e4" stroke="#8383cc" stroke-width="2" points="184,-439.5 184,-622 350,-622 350,-439.5 184,-439.5"/>
<text xml:space="preserve" text-anchor="middle" x="267" y="-604.7" font-family="Consolas" font-size="14.00">step3</text>
<polyline fill="none" stroke="#8383cc" stroke-width="2" points="184,-599.75 350,-599.75"/>
<text xml:space="preserve" text-anchor="middle" x="266.75" y="-582.45" font-family="Consolas" font-size="14.00">岛屿数量: 1</text>
<polyline fill="none" stroke="#8383cc" stroke-width="2" points="184,-576 350,-576"/>
<text xml:space="preserve" text-anchor="middle" x="267" y="-558.7" font-family="Consolas" font-size="14.00">nextx&amp;&amp;nexty: (1, 0)</text>
<polyline fill="none" stroke="#8383cc" stroke-width="2" points="184,-553.75 350,-553.75"/>
<text xml:space="preserve" text-anchor="middle" x="267" y="-536.45" font-family="Consolas" font-size="14.00">curx&amp;&amp;cury: (0, 0)</text>
<polyline fill="none" stroke="#8383cc" stroke-width="2" points="184,-531.5 350,-531.5"/>
<text xml:space="preserve" text-anchor="middle" x="266.75" y="-514.2" font-family="Consolas" font-size="14.00">dir: (1, 0)</text>
<polyline fill="none" stroke="#8383cc" stroke-width="2" points="184,-509.25 350,-509.25"/>
<text xml:space="preserve" text-anchor="middle" x="267" y="-491.95" font-family="Consolas" font-size="14.00">count: 3</text>
<polyline fill="none" stroke="#8383cc" stroke-width="2" points="184,-487 350,-487"/>
<text xml:space="preserve" text-anchor="middle" x="266.75" y="-469.7" font-family="Consolas" font-size="14.00">队列长度: 2</text>
<polyline fill="none" stroke="#8383cc" stroke-width="2" points="184,-463.25 350,-463.25"/>
<text xml:space="preserve" text-anchor="middle" x="267" y="-445.95" font-family="Consolas" font-size="14.00">出队还是入队: 入队</text>
</g>
<!-- node1&#45;&#45;node3 -->
<g id="edge2" class="edge">
<title>node1&#45;&#45;node3</title>
<path fill="none" stroke="#8383cc" stroke-width="2" d="M267,-658.27C267,-646.51 267,-634.47 267,-622.71"/>
</g>
<!-- node4 -->
<g id="node4" class="node">
<title>node4</title>
<polygon fill="#abebc6" stroke="#27ae60" stroke-width="2" points="368.5,-439.5 368.5,-622 525.5,-622 525.5,-439.5 368.5,-439.5"/>
<text xml:space="preserve" text-anchor="middle" x="447" y="-604.7" font-family="Consolas" font-size="14.00">step4</text>
<polyline fill="none" stroke="#27ae60" stroke-width="2" points="368.5,-599.75 525.5,-599.75"/>
<text xml:space="preserve" text-anchor="middle" x="446.75" y="-582.45" font-family="Consolas" font-size="14.00">岛屿数量: 1</text>
<polyline fill="none" stroke="#27ae60" stroke-width="2" points="368.5,-576 525.5,-576"/>
<text xml:space="preserve" text-anchor="middle" x="447" y="-558.7" font-family="Consolas" font-size="14.00">nextx&amp;&amp;nexty: Null</text>
<polyline fill="none" stroke="#27ae60" stroke-width="2" points="368.5,-553.75 525.5,-553.75"/>
<text xml:space="preserve" text-anchor="middle" x="447" y="-536.45" font-family="Consolas" font-size="14.00">curx&amp;&amp;cury: (0, 1)</text>
<polyline fill="none" stroke="#27ae60" stroke-width="2" points="368.5,-531.5 525.5,-531.5"/>
<text xml:space="preserve" text-anchor="middle" x="446.75" y="-514.2" font-family="Consolas" font-size="14.00">dir: Null</text>
<polyline fill="none" stroke="#27ae60" stroke-width="2" points="368.5,-509.25 525.5,-509.25"/>
<text xml:space="preserve" text-anchor="middle" x="447" y="-491.95" font-family="Consolas" font-size="14.00">count: 4</text>
<polyline fill="none" stroke="#27ae60" stroke-width="2" points="368.5,-487 525.5,-487"/>
<text xml:space="preserve" text-anchor="middle" x="446.75" y="-469.7" font-family="Consolas" font-size="14.00">队列长度: 1</text>
<polyline fill="none" stroke="#27ae60" stroke-width="2" points="368.5,-463.25 525.5,-463.25"/>
<text xml:space="preserve" text-anchor="middle" x="447" y="-445.95" font-family="Consolas" font-size="14.00">出队还是入队: 出队</text>
</g>
<!-- node1&#45;&#45;node4 -->
<g id="edge3" class="edge">
<title>node1&#45;&#45;node4</title>
<path fill="none" stroke="#8383cc" stroke-width="2" d="M342.29,-658.27C352.02,-646.51 361.99,-634.47 371.72,-622.71"/>
</g>
<!-- node5 -->
<g id="node5" class="node">
<title>node5</title>
<polygon fill="#b2d3e4" stroke="#8383cc" stroke-width="2" points="274,-220 274,-402.5 440,-402.5 440,-220 274,-220"/>
<text xml:space="preserve" text-anchor="middle" x="357" y="-385.2" font-family="Consolas" font-size="14.00">step5</text>
<polyline fill="none" stroke="#8383cc" stroke-width="2" points="274,-380.25 440,-380.25"/>
<text xml:space="preserve" text-anchor="middle" x="356.75" y="-362.95" font-family="Consolas" font-size="14.00">岛屿数量: 1</text>
<polyline fill="none" stroke="#8383cc" stroke-width="2" points="274,-356.5 440,-356.5"/>
<text xml:space="preserve" text-anchor="middle" x="357" y="-339.2" font-family="Consolas" font-size="14.00">nextx&amp;&amp;nexty: (1, 1)</text>
<polyline fill="none" stroke="#8383cc" stroke-width="2" points="274,-334.25 440,-334.25"/>
<text xml:space="preserve" text-anchor="middle" x="357" y="-316.95" font-family="Consolas" font-size="14.00">curx&amp;&amp;cury: (0, 1)</text>
<polyline fill="none" stroke="#8383cc" stroke-width="2" points="274,-312 440,-312"/>
<text xml:space="preserve" text-anchor="middle" x="356.75" y="-294.7" font-family="Consolas" font-size="14.00">dir: (1, 0)</text>
<polyline fill="none" stroke="#8383cc" stroke-width="2" points="274,-289.75 440,-289.75"/>
<text xml:space="preserve" text-anchor="middle" x="357" y="-272.45" font-family="Consolas" font-size="14.00">count: 5</text>
<polyline fill="none" stroke="#8383cc" stroke-width="2" points="274,-267.5 440,-267.5"/>
<text xml:space="preserve" text-anchor="middle" x="356.75" y="-250.2" font-family="Consolas" font-size="14.00">队列长度: 2</text>
<polyline fill="none" stroke="#8383cc" stroke-width="2" points="274,-243.75 440,-243.75"/>
<text xml:space="preserve" text-anchor="middle" x="357" y="-226.45" font-family="Consolas" font-size="14.00">出队还是入队: 入队</text>
</g>
<!-- node4&#45;&#45;node5 -->
<g id="edge4" class="edge">
<title>node4&#45;&#45;node5</title>
<path fill="none" stroke="#8383cc" stroke-width="2" d="M409.35,-438.77C404.49,-427.01 399.51,-414.97 394.64,-403.21"/>
</g>
<!-- node6 -->
<g id="node6" class="node">
<title>node6</title>
<polygon fill="#abebc6" stroke="#27ae60" stroke-width="2" points="458.5,-220 458.5,-402.5 615.5,-402.5 615.5,-220 458.5,-220"/>
<text xml:space="preserve" text-anchor="middle" x="537" y="-385.2" font-family="Consolas" font-size="14.00">step6</text>
<polyline fill="none" stroke="#27ae60" stroke-width="2" points="458.5,-380.25 615.5,-380.25"/>
<text xml:space="preserve" text-anchor="middle" x="536.75" y="-362.95" font-family="Consolas" font-size="14.00">岛屿数量: 1</text>
<polyline fill="none" stroke="#27ae60" stroke-width="2" points="458.5,-356.5 615.5,-356.5"/>
<text xml:space="preserve" text-anchor="middle" x="537" y="-339.2" font-family="Consolas" font-size="14.00">nextx&amp;&amp;nexty: Null</text>
<polyline fill="none" stroke="#27ae60" stroke-width="2" points="458.5,-334.25 615.5,-334.25"/>
<text xml:space="preserve" text-anchor="middle" x="537" y="-316.95" font-family="Consolas" font-size="14.00">curx&amp;&amp;cury: (1, 0)</text>
<polyline fill="none" stroke="#27ae60" stroke-width="2" points="458.5,-312 615.5,-312"/>
<text xml:space="preserve" text-anchor="middle" x="536.75" y="-294.7" font-family="Consolas" font-size="14.00">dir: Null</text>
<polyline fill="none" stroke="#27ae60" stroke-width="2" points="458.5,-289.75 615.5,-289.75"/>
<text xml:space="preserve" text-anchor="middle" x="537" y="-272.45" font-family="Consolas" font-size="14.00">count: 6</text>
<polyline fill="none" stroke="#27ae60" stroke-width="2" points="458.5,-267.5 615.5,-267.5"/>
<text xml:space="preserve" text-anchor="middle" x="536.75" y="-250.2" font-family="Consolas" font-size="14.00">队列长度: 1</text>
<polyline fill="none" stroke="#27ae60" stroke-width="2" points="458.5,-243.75 615.5,-243.75"/>
<text xml:space="preserve" text-anchor="middle" x="537" y="-226.45" font-family="Consolas" font-size="14.00">出队还是入队: 出队</text>
</g>
<!-- node4&#45;&#45;node6 -->
<g id="edge5" class="edge">
<title>node4&#45;&#45;node6</title>
<path fill="none" stroke="#8383cc" stroke-width="2" d="M484.65,-438.77C489.51,-427.01 494.49,-414.97 499.36,-403.21"/>
</g>
<!-- node7 -->
<g id="node7" class="node">
<title>node7</title>
<polygon fill="#abebc6" stroke="#27ae60" stroke-width="2" points="458.5,-0.5 458.5,-183 615.5,-183 615.5,-0.5 458.5,-0.5"/>
<text xml:space="preserve" text-anchor="middle" x="537" y="-165.7" font-family="Consolas" font-size="14.00">step7</text>
<polyline fill="none" stroke="#27ae60" stroke-width="2" points="458.5,-160.75 615.5,-160.75"/>
<text xml:space="preserve" text-anchor="middle" x="536.75" y="-143.45" font-family="Consolas" font-size="14.00">岛屿数量: 1</text>
<polyline fill="none" stroke="#27ae60" stroke-width="2" points="458.5,-137 615.5,-137"/>
<text xml:space="preserve" text-anchor="middle" x="537" y="-119.7" font-family="Consolas" font-size="14.00">nextx&amp;&amp;nexty: Null</text>
<polyline fill="none" stroke="#27ae60" stroke-width="2" points="458.5,-114.75 615.5,-114.75"/>
<text xml:space="preserve" text-anchor="middle" x="537" y="-97.45" font-family="Consolas" font-size="14.00">curx&amp;&amp;cury: (1, 1)</text>
<polyline fill="none" stroke="#27ae60" stroke-width="2" points="458.5,-92.5 615.5,-92.5"/>
<text xml:space="preserve" text-anchor="middle" x="536.75" y="-75.2" font-family="Consolas" font-size="14.00">dir: Null</text>
<polyline fill="none" stroke="#27ae60" stroke-width="2" points="458.5,-70.25 615.5,-70.25"/>
<text xml:space="preserve" text-anchor="middle" x="537" y="-52.95" font-family="Consolas" font-size="14.00">count: 7</text>
<polyline fill="none" stroke="#27ae60" stroke-width="2" points="458.5,-48 615.5,-48"/>
<text xml:space="preserve" text-anchor="middle" x="536.75" y="-30.7" font-family="Consolas" font-size="14.00">队列长度: 0</text>
<polyline fill="none" stroke="#27ae60" stroke-width="2" points="458.5,-24.25 615.5,-24.25"/>
<text xml:space="preserve" text-anchor="middle" x="537" y="-6.95" font-family="Consolas" font-size="14.00">出队还是入队: 出队</text>
</g>
<!-- node6&#45;&#45;node7 -->
<g id="edge6" class="edge">
<title>node6&#45;&#45;node7</title>
<path fill="none" stroke="#8383cc" stroke-width="2" d="M537,-219.27C537,-207.51 537,-195.47 537,-183.71"/>
</g>
<!-- node8 -->
<g id="node8" class="node">
<title>node8</title>
<polygon fill="#abebc6" stroke="#27ae60" stroke-width="2" points="458.5,-659 458.5,-841.5 615.5,-841.5 615.5,-659 458.5,-659"/>
<text xml:space="preserve" text-anchor="middle" x="537" y="-824.2" font-family="Consolas" font-size="14.00">step8</text>
<polyline fill="none" stroke="#27ae60" stroke-width="2" points="458.5,-819.25 615.5,-819.25"/>
<text xml:space="preserve" text-anchor="middle" x="536.75" y="-801.95" font-family="Consolas" font-size="14.00">岛屿数量: 2</text>
<polyline fill="none" stroke="#27ae60" stroke-width="2" points="458.5,-795.5 615.5,-795.5"/>
<text xml:space="preserve" text-anchor="middle" x="537" y="-778.2" font-family="Consolas" font-size="14.00">nextx&amp;&amp;nexty: Null</text>
<polyline fill="none" stroke="#27ae60" stroke-width="2" points="458.5,-773.25 615.5,-773.25"/>
<text xml:space="preserve" text-anchor="middle" x="537" y="-755.95" font-family="Consolas" font-size="14.00">curx&amp;&amp;cury: (2, 2)</text>
<polyline fill="none" stroke="#27ae60" stroke-width="2" points="458.5,-751 615.5,-751"/>
<text xml:space="preserve" text-anchor="middle" x="536.75" y="-733.7" font-family="Consolas" font-size="14.00">dir: Null</text>
<polyline fill="none" stroke="#27ae60" stroke-width="2" points="458.5,-728.75 615.5,-728.75"/>
<text xml:space="preserve" text-anchor="middle" x="537" y="-711.45" font-family="Consolas" font-size="14.00">count: 8</text>
<polyline fill="none" stroke="#27ae60" stroke-width="2" points="458.5,-706.5 615.5,-706.5"/>
<text xml:space="preserve" text-anchor="middle" x="536.75" y="-689.2" font-family="Consolas" font-size="14.00">队列长度: 0</text>
<polyline fill="none" stroke="#27ae60" stroke-width="2" points="458.5,-682.75 615.5,-682.75"/>
<text xml:space="preserve" text-anchor="middle" x="537" y="-665.45" font-family="Consolas" font-size="14.00">出队还是入队: 出队</text>
</g>
<!-- node9 -->
<g id="node9" class="node">
<title>node9</title>
<polygon fill="#abebc6" stroke="#27ae60" stroke-width="2" points="638.5,-659 638.5,-841.5 795.5,-841.5 795.5,-659 638.5,-659"/>
<text xml:space="preserve" text-anchor="middle" x="717" y="-824.2" font-family="Consolas" font-size="14.00">step9</text>
<polyline fill="none" stroke="#27ae60" stroke-width="2" points="638.5,-819.25 795.5,-819.25"/>
<text xml:space="preserve" text-anchor="middle" x="716.75" y="-801.95" font-family="Consolas" font-size="14.00">岛屿数量: 3</text>
<polyline fill="none" stroke="#27ae60" stroke-width="2" points="638.5,-795.5 795.5,-795.5"/>
<text xml:space="preserve" text-anchor="middle" x="717" y="-778.2" font-family="Consolas" font-size="14.00">nextx&amp;&amp;nexty: Null</text>
<polyline fill="none" stroke="#27ae60" stroke-width="2" points="638.5,-773.25 795.5,-773.25"/>
<text xml:space="preserve" text-anchor="middle" x="717" y="-755.95" font-family="Consolas" font-size="14.00">curx&amp;&amp;cury: (3, 3)</text>
<polyline fill="none" stroke="#27ae60" stroke-width="2" points="638.5,-751 795.5,-751"/>
<text xml:space="preserve" text-anchor="middle" x="716.75" y="-733.7" font-family="Consolas" font-size="14.00">dir: Null</text>
<polyline fill="none" stroke="#27ae60" stroke-width="2" points="638.5,-728.75 795.5,-728.75"/>
<text xml:space="preserve" text-anchor="middle" x="717" y="-711.45" font-family="Consolas" font-size="14.00">count: 9</text>
<polyline fill="none" stroke="#27ae60" stroke-width="2" points="638.5,-706.5 795.5,-706.5"/>
<text xml:space="preserve" text-anchor="middle" x="716.75" y="-689.2" font-family="Consolas" font-size="14.00">队列长度: 0</text>
<polyline fill="none" stroke="#27ae60" stroke-width="2" points="638.5,-682.75 795.5,-682.75"/>
<text xml:space="preserve" text-anchor="middle" x="717" y="-665.45" font-family="Consolas" font-size="14.00">出队还是入队: 出队</text>
</g>
<!-- node10 -->
<g id="node10" class="node">
<title>node10</title>
<polygon fill="#b2d3e4" stroke="#8383cc" stroke-width="2" points="544,-439.5 544,-622 710,-622 710,-439.5 544,-439.5"/>
<text xml:space="preserve" text-anchor="middle" x="627" y="-604.7" font-family="Consolas" font-size="14.00">step10</text>
<polyline fill="none" stroke="#8383cc" stroke-width="2" points="544,-599.75 710,-599.75"/>
<text xml:space="preserve" text-anchor="middle" x="626.75" y="-582.45" font-family="Consolas" font-size="14.00">岛屿数量: 3</text>
<polyline fill="none" stroke="#8383cc" stroke-width="2" points="544,-576 710,-576"/>
<text xml:space="preserve" text-anchor="middle" x="627" y="-558.7" font-family="Consolas" font-size="14.00">nextx&amp;&amp;nexty: (3, 4)</text>
<polyline fill="none" stroke="#8383cc" stroke-width="2" points="544,-553.75 710,-553.75"/>
<text xml:space="preserve" text-anchor="middle" x="627" y="-536.45" font-family="Consolas" font-size="14.00">curx&amp;&amp;cury: (3, 3)</text>
<polyline fill="none" stroke="#8383cc" stroke-width="2" points="544,-531.5 710,-531.5"/>
<text xml:space="preserve" text-anchor="middle" x="626.75" y="-514.2" font-family="Consolas" font-size="14.00">dir: (0, 1)</text>
<polyline fill="none" stroke="#8383cc" stroke-width="2" points="544,-509.25 710,-509.25"/>
<text xml:space="preserve" text-anchor="middle" x="626.75" y="-491.95" font-family="Consolas" font-size="14.00">count: 10</text>
<polyline fill="none" stroke="#8383cc" stroke-width="2" points="544,-487 710,-487"/>
<text xml:space="preserve" text-anchor="middle" x="626.75" y="-469.7" font-family="Consolas" font-size="14.00">队列长度: 1</text>
<polyline fill="none" stroke="#8383cc" stroke-width="2" points="544,-463.25 710,-463.25"/>
<text xml:space="preserve" text-anchor="middle" x="627" y="-445.95" font-family="Consolas" font-size="14.00">出队还是入队: 入队</text>
</g>
<!-- node9&#45;&#45;node10 -->
<g id="edge7" class="edge">
<title>node9&#45;&#45;node10</title>
<path fill="none" stroke="#8383cc" stroke-width="2" d="M679.35,-658.27C674.49,-646.51 669.51,-634.47 664.64,-622.71"/>
</g>
<!-- node11 -->
<g id="node11" class="node">
<title>node11</title>
<polygon fill="#abebc6" stroke="#27ae60" stroke-width="2" points="728.5,-439.5 728.5,-622 885.5,-622 885.5,-439.5 728.5,-439.5"/>
<text xml:space="preserve" text-anchor="middle" x="807" y="-604.7" font-family="Consolas" font-size="14.00">step11</text>
<polyline fill="none" stroke="#27ae60" stroke-width="2" points="728.5,-599.75 885.5,-599.75"/>
<text xml:space="preserve" text-anchor="middle" x="806.75" y="-582.45" font-family="Consolas" font-size="14.00">岛屿数量: 3</text>
<polyline fill="none" stroke="#27ae60" stroke-width="2" points="728.5,-576 885.5,-576"/>
<text xml:space="preserve" text-anchor="middle" x="807" y="-558.7" font-family="Consolas" font-size="14.00">nextx&amp;&amp;nexty: Null</text>
<polyline fill="none" stroke="#27ae60" stroke-width="2" points="728.5,-553.75 885.5,-553.75"/>
<text xml:space="preserve" text-anchor="middle" x="807" y="-536.45" font-family="Consolas" font-size="14.00">curx&amp;&amp;cury: (3, 4)</text>
<polyline fill="none" stroke="#27ae60" stroke-width="2" points="728.5,-531.5 885.5,-531.5"/>
<text xml:space="preserve" text-anchor="middle" x="806.75" y="-514.2" font-family="Consolas" font-size="14.00">dir: Null</text>
<polyline fill="none" stroke="#27ae60" stroke-width="2" points="728.5,-509.25 885.5,-509.25"/>
<text xml:space="preserve" text-anchor="middle" x="806.75" y="-491.95" font-family="Consolas" font-size="14.00">count: 11</text>
<polyline fill="none" stroke="#27ae60" stroke-width="2" points="728.5,-487 885.5,-487"/>
<text xml:space="preserve" text-anchor="middle" x="806.75" y="-469.7" font-family="Consolas" font-size="14.00">队列长度: 0</text>
<polyline fill="none" stroke="#27ae60" stroke-width="2" points="728.5,-463.25 885.5,-463.25"/>
<text xml:space="preserve" text-anchor="middle" x="807" y="-445.95" font-family="Consolas" font-size="14.00">出队还是入队: 出队</text>
</g>
<!-- node9&#45;&#45;node11 -->
<g id="edge8" class="edge">
<title>node9&#45;&#45;node11</title>
<path fill="none" stroke="#8383cc" stroke-width="2" d="M754.65,-658.27C759.51,-646.51 764.49,-634.47 769.36,-622.71"/>
</g>
</g>
</svg>
