<?xml version="1.0" encoding="UTF-8" standalone="no"?>
<!DOCTYPE svg PUBLIC "-//W3C//DTD SVG 1.1//EN"
 "http://www.w3.org/Graphics/SVG/1.1/DTD/svg11.dtd">
<!-- Generated by graphviz version 13.0.1 (20250615.1724)
 -->
<!-- Title: stringMap Pages: 1 -->
<svg width="406pt" height="150pt"
 viewBox="0.00 0.00 406.00 150.00" xmlns="http://www.w3.org/2000/svg" xmlns:xlink="http://www.w3.org/1999/xlink">
<g id="graph0" class="graph" transform="scale(1 1) rotate(0) translate(4 145.5)">
<title>stringMap</title>
<polygon fill="white" stroke="none" points="-4,4 -4,-145.5 401.75,-145.5 401.75,4 -4,4"/>
<g id="clust2" class="cluster">
<title>cluster2</title>
<polygon fill="none" stroke="black" stroke-dasharray="5,2" points="170,-50.5 170,-133.5 389.75,-133.5 389.75,-50.5 170,-50.5"/>
<text xml:space="preserve" text-anchor="middle" x="279.88" y="-116.2" font-family="Times New Roman,serif" font-size="14.00">模块2</text>
</g>
<!-- A -->
<g id="node1" class="node">
<title>A</title>
<polygon fill="lightyellow" stroke="black" points="79,-70 0,-70 0,-29 79,-29 79,-70"/>
<text xml:space="preserve" text-anchor="middle" x="39.5" y="-52.7" font-family="Times New Roman,serif" font-size="14.00">概念A</text>
<text xml:space="preserve" text-anchor="middle" x="39.5" y="-35.45" font-family="Times New Roman,serif" font-size="14.00">核心知识</text>
</g>
<!-- B -->
<g id="node2" class="node">
<title>B</title>
<polygon fill="lightyellow" stroke="black" points="257,-41 178,-41 178,0 257,0 257,-41"/>
<text xml:space="preserve" text-anchor="middle" x="217.5" y="-23.7" font-family="Times New Roman,serif" font-size="14.00">概念B</text>
<text xml:space="preserve" text-anchor="middle" x="217.5" y="-6.45" font-family="Times New Roman,serif" font-size="14.00">相关知识</text>
</g>
<!-- A&#45;&gt;B -->
<g id="edge1" class="edge">
<title>A&#45;&gt;B</title>
<path fill="none" stroke="red" d="M79.31,-40.28C85.22,-39.01 91.26,-37.79 97,-36.75 119.71,-32.65 145.01,-29.07 166.46,-26.32"/>
<polygon fill="red" stroke="red" points="166.63,-29.83 176.12,-25.11 165.76,-22.88 166.63,-29.83"/>
<text xml:space="preserve" text-anchor="middle" x="128.5" y="-39.2" font-family="Times New Roman,serif" font-size="14.00" fill="blue">数组退化</text>
</g>
<!-- C -->
<g id="node3" class="node">
<title>C</title>
<polygon fill="lightyellow" stroke="black" points="257,-100 178,-100 178,-59 257,-59 257,-100"/>
<text xml:space="preserve" text-anchor="middle" x="217.5" y="-82.7" font-family="Times New Roman,serif" font-size="14.00">概念C</text>
<text xml:space="preserve" text-anchor="middle" x="217.5" y="-65.45" font-family="Times New Roman,serif" font-size="14.00">延伸知识</text>
</g>
<!-- A&#45;&gt;C -->
<g id="edge2" class="edge">
<title>A&#45;&gt;C</title>
<path fill="none" stroke="black" d="M79.12,-56.08C104.83,-60.46 138.84,-66.26 166.59,-70.99"/>
<polygon fill="black" stroke="black" points="165.72,-74.4 176.17,-72.63 166.9,-67.5 165.72,-74.4"/>
<text xml:space="preserve" text-anchor="middle" x="128.5" y="-72.25" font-family="Times New Roman,serif" font-size="14.00">数组退化</text>
</g>
<!-- D -->
<g id="node4" class="node">
<title>D</title>
<polygon fill="lightyellow" stroke="black" points="381.75,-100 324.5,-100 324.5,-59 381.75,-59 381.75,-100"/>
<text xml:space="preserve" text-anchor="middle" x="353.12" y="-82.7" font-family="Times New Roman,serif" font-size="14.00">概念D</text>
<text xml:space="preserve" text-anchor="middle" x="353.12" y="-65.45" font-family="Times New Roman,serif" font-size="14.00">应用</text>
</g>
<!-- B&#45;&gt;D -->
<g id="edge3" class="edge">
<title>B&#45;&gt;D</title>
<path fill="none" stroke="black" d="M257.15,-37.57C274.98,-45.44 296.08,-54.76 313.86,-62.61"/>
<polygon fill="black" stroke="black" points="312.23,-65.71 322.79,-66.55 315.05,-59.31 312.23,-65.71"/>
<text xml:space="preserve" text-anchor="middle" x="290.75" y="-61.18" font-family="Times New Roman,serif" font-size="14.00">你好</text>
</g>
<!-- C&#45;&gt;D -->
<g id="edge4" class="edge">
<title>C&#45;&gt;D</title>
<path fill="none" stroke="black" d="M257.15,-79.5C274.64,-79.5 295.29,-79.5 312.86,-79.5"/>
<polygon fill="black" stroke="black" points="312.66,-83 322.66,-79.5 312.66,-76 312.66,-83"/>
</g>
</g>
</svg>
