<?xml version="1.0" encoding="UTF-8" standalone="no"?>
<!DOCTYPE svg PUBLIC "-//W3C//DTD SVG 1.1//EN"
 "http://www.w3.org/Graphics/SVG/1.1/DTD/svg11.dtd">
<!-- Generated by graphviz version 13.0.1 (20250615.1724)
 -->
<!-- Title: g Pages: 1 -->
<svg width="2978pt" height="599pt"
 viewBox="0.00 0.00 2978.00 599.00" xmlns="http://www.w3.org/2000/svg" xmlns:xlink="http://www.w3.org/1999/xlink">
<g id="graph0" class="graph" transform="scale(1 1) rotate(0) translate(4 595)">
<title>g</title>
<polygon fill="white" stroke="none" points="-4,4 -4,-595 2974.25,-595 2974.25,4 -4,4"/>
<g id="clust1" class="cluster">
<title>cluster_image1</title>
<polygon fill="none" stroke="black" stroke-dasharray="5,2" points="611.5,-88 611.5,-457 1164.5,-457 1164.5,-88 611.5,-88"/>
<text xml:space="preserve" text-anchor="middle" x="888" y="-439.7" font-family="Times New Roman,serif" font-size="14.00">案例展示1</text>
</g>
<g id="clust2" class="cluster">
<title>cluster_image2</title>
<polygon fill="none" stroke="black" stroke-dasharray="5,2" points="1184.5,-8 1184.5,-457 2311.5,-457 2311.5,-8 1184.5,-8"/>
<text xml:space="preserve" text-anchor="middle" x="1748" y="-439.7" font-family="Times New Roman,serif" font-size="14.00">案例展示2</text>
</g>
<g id="clust3" class="cluster">
<title>cluster_chunk</title>
<polygon fill="none" stroke="black" stroke-dasharray="5,2" points="8,-465 8,-583 2962.25,-583 2962.25,-465 8,-465"/>
<text xml:space="preserve" text-anchor="middle" x="1485.12" y="-565.7" font-family="Times New Roman,serif" font-size="14.00">chunk</text>
</g>
<!-- A -->
<g id="node1" class="node">
<title>A</title>
<polygon fill="lightyellow" stroke="black" points="1156.5,-424 619.5,-424 619.5,-96 1156.5,-96 1156.5,-424"/>
<image xlink:href="1.png" width="537px" height="328px" preserveAspectRatio="xMinYMin meet" x="619.5" y="-424"/>
<text xml:space="preserve" text-anchor="middle" x="888" y="-254.95" font-family="Times New Roman,serif" font-size="14.00">A</text>
</g>
<!-- B -->
<g id="node2" class="node">
<title>B</title>
<polygon fill="lightyellow" stroke="black" points="1998,-347.5 1498,-347.5 1498,-16.5 1998,-16.5 1998,-347.5"/>
<image xlink:href="2.png" width="500px" height="331px" preserveAspectRatio="xMinYMin meet" x="1498" y="-347.5"/>
<text xml:space="preserve" text-anchor="middle" x="1748" y="-176.95" font-family="Times New Roman,serif" font-size="14.00">B</text>
</g>
<!-- C -->
<g id="node3" class="node">
<title>C</title>
<polygon fill="lightyellow" stroke="black" points="2303.5,-424 1192.5,-424 1192.5,-366 2303.5,-366 2303.5,-424"/>
<image xlink:href="3.png" width="1111px" height="58px" preserveAspectRatio="xMinYMin meet" x="1192.5" y="-424"/>
<text xml:space="preserve" text-anchor="middle" x="1748" y="-389.95" font-family="Times New Roman,serif" font-size="14.00">C</text>
</g>
<!-- D -->
<g id="node4" class="node">
<title>D</title>
<polygon fill="lightyellow" stroke="black" points="283.25,-550.5 16,-550.5 16,-473.5 283.25,-473.5 283.25,-550.5"/>
<text xml:space="preserve" text-anchor="middle" x="149.62" y="-533.2" font-family="Times New Roman,serif" font-size="14.00">当我们写成员函数时, 一定要考虑该</text>
<text xml:space="preserve" text-anchor="middle" x="149.62" y="-515.95" font-family="Times New Roman,serif" font-size="14.00">函数是否改变成员变量. 如果不改变, </text>
<text xml:space="preserve" text-anchor="middle" x="149.62" y="-498.7" font-family="Times New Roman,serif" font-size="14.00">那么就毫不犹豫地添加const, 正如</text>
<text xml:space="preserve" text-anchor="middle" x="149.62" y="-481.45" font-family="Times New Roman,serif" font-size="14.00">这里的real(), imag()所做的.</text>
</g>
<!-- D&#45;&gt;A -->
<g id="edge6" class="edge">
<title>D&#45;&gt;A</title>
<path fill="none" stroke="black" d="M264.47,-473.04C356.17,-441.66 489.03,-396.19 608.48,-355.31"/>
<polygon fill="black" stroke="black" points="609.5,-358.66 617.83,-352.11 607.24,-352.04 609.5,-358.66"/>
</g>
<!-- E -->
<g id="node5" class="node">
<title>E</title>
<polygon fill="lightyellow" stroke="black" points="583.5,-524.25 319.25,-524.25 319.25,-481.75 583.5,-481.75 583.5,-524.25"/>
<text xml:space="preserve" text-anchor="middle" x="451.38" y="-506.95" font-family="Times New Roman,serif" font-size="14.00">这样, 对于常量复数c2而言, 我们可以</text>
<text xml:space="preserve" text-anchor="middle" x="451.38" y="-489.7" font-family="Times New Roman,serif" font-size="14.00">正确访问real()与imag().</text>
</g>
<!-- D&#45;&gt;E -->
<g id="edge1" class="edge">
<title>D&#45;&gt;E</title>
<path fill="none" stroke="black" d="M283.41,-508.01C291.39,-507.77 299.44,-507.53 307.46,-507.29"/>
<polygon fill="black" stroke="black" points="307.37,-510.8 317.26,-507 307.16,-503.8 307.37,-510.8"/>
</g>
<!-- E&#45;&gt;A -->
<g id="edge7" class="edge">
<title>E&#45;&gt;A</title>
<path fill="none" stroke="black" d="M490.95,-481.44C519.94,-465.22 562.56,-441.39 609.22,-415.31"/>
<polygon fill="black" stroke="black" points="610.89,-418.38 617.91,-410.45 607.48,-412.27 610.89,-418.38"/>
</g>
<!-- F -->
<g id="node6" class="node">
<title>F</title>
<polygon fill="lightyellow" stroke="black" points="1025.75,-532.88 750.25,-532.88 750.25,-473.12 1025.75,-473.12 1025.75,-532.88"/>
<text xml:space="preserve" text-anchor="middle" x="888" y="-515.58" font-family="Times New Roman,serif" font-size="14.00">假如不添加, 那么成员函数就无法保证</text>
<text xml:space="preserve" text-anchor="middle" x="888" y="-498.32" font-family="Times New Roman,serif" font-size="14.00">不会改变成员变量, 这样常量复数c2</text>
<text xml:space="preserve" text-anchor="middle" x="888" y="-481.07" font-family="Times New Roman,serif" font-size="14.00">想访问real()与imag()就会报错.</text>
</g>
<!-- E&#45;&gt;F -->
<g id="edge2" class="edge">
<title>E&#45;&gt;F</title>
<path fill="none" stroke="black" d="M583.96,-503C632.73,-503 688.38,-503 738.55,-503"/>
<polygon fill="black" stroke="black" points="738.33,-506.5 748.33,-503 738.33,-499.5 738.33,-506.5"/>
</g>
<!-- F&#45;&gt;B -->
<g id="edge8" class="edge">
<title>F&#45;&gt;B</title>
<path fill="none" stroke="black" d="M1025.98,-513.11C1075.47,-509.49 1128.06,-496.05 1164.5,-461 1198.42,-428.37 1153.13,-392.09 1184.5,-357 1261.04,-271.41 1378.63,-227.23 1486.54,-204.61"/>
<polygon fill="black" stroke="black" points="1487.04,-208.08 1496.14,-202.65 1485.64,-201.22 1487.04,-208.08"/>
</g>
<!-- F&#45;&gt;C -->
<g id="edge9" class="edge">
<title>F&#45;&gt;C</title>
<path fill="none" stroke="red" d="M1026.1,-482.8C1075.94,-475.65 1132.73,-467.72 1184.5,-461 1278.34,-448.83 1381.12,-436.48 1472.85,-425.81"/>
<polygon fill="red" stroke="red" points="1473.24,-429.29 1482.77,-424.66 1472.43,-422.33 1473.24,-429.29"/>
</g>
<!-- G -->
<g id="node7" class="node">
<title>G</title>
<polygon fill="lightyellow" stroke="black" points="1893.62,-524.25 1602.38,-524.25 1602.38,-481.75 1893.62,-481.75 1893.62,-524.25"/>
<text xml:space="preserve" text-anchor="middle" x="1748" y="-506.95" font-family="Times New Roman,serif" font-size="14.00">逻辑上一点都不合理. 我想看看常量复数</text>
<text xml:space="preserve" text-anchor="middle" x="1748" y="-489.7" font-family="Times New Roman,serif" font-size="14.00">的实部跟虚部都没有权限吗?</text>
</g>
<!-- F&#45;&gt;G -->
<g id="edge3" class="edge">
<title>F&#45;&gt;G</title>
<path fill="none" stroke="black" d="M1025.9,-503C1179.76,-503 1429.07,-503 1590.52,-503"/>
<polygon fill="black" stroke="black" points="1590.47,-506.5 1600.47,-503 1590.47,-499.5 1590.47,-506.5"/>
</g>
<!-- H -->
<g id="node8" class="node">
<title>H</title>
<polygon fill="lightyellow" stroke="black" points="2623.25,-524.25 2339.5,-524.25 2339.5,-481.75 2623.25,-481.75 2623.25,-524.25"/>
<text xml:space="preserve" text-anchor="middle" x="2481.38" y="-506.95" font-family="Times New Roman,serif" font-size="14.00">所以, 如果我只想看一眼, 毫不犹豫地</text>
<text xml:space="preserve" text-anchor="middle" x="2481.38" y="-489.7" font-family="Times New Roman,serif" font-size="14.00">添加const. 我可能会修改, 那么就别添加.</text>
</g>
<!-- G&#45;&gt;H -->
<g id="edge4" class="edge">
<title>G&#45;&gt;H</title>
<path fill="none" stroke="black" d="M1893.93,-503C2019.35,-503 2200.12,-503 2327.74,-503"/>
<polygon fill="black" stroke="black" points="2327.63,-506.5 2337.63,-503 2327.63,-499.5 2327.63,-506.5"/>
</g>
<!-- I -->
<g id="node9" class="node">
<title>I</title>
<polygon fill="lightyellow" stroke="black" points="2954.25,-532.88 2659.25,-532.88 2659.25,-473.12 2954.25,-473.12 2954.25,-532.88"/>
<text xml:space="preserve" text-anchor="middle" x="2806.75" y="-515.58" font-family="Times New Roman,serif" font-size="14.00">当然, 对于一般属性(非const), 成员</text>
<text xml:space="preserve" text-anchor="middle" x="2806.75" y="-498.32" font-family="Times New Roman,serif" font-size="14.00">函数是否添加const确实没有影响, </text>
<text xml:space="preserve" text-anchor="middle" x="2806.75" y="-481.07" font-family="Times New Roman,serif" font-size="14.00">但从设计角度来看, 该添加的还是要添加.</text>
</g>
<!-- H&#45;&gt;I -->
<g id="edge5" class="edge">
<title>H&#45;&gt;I</title>
<path fill="none" stroke="black" d="M2623.74,-503C2631.65,-503 2639.63,-503 2647.6,-503"/>
<polygon fill="black" stroke="black" points="2647.33,-506.5 2657.33,-503 2647.33,-499.5 2647.33,-506.5"/>
</g>
</g>
</svg>
