<svg xmlns="http://www.w3.org/2000/svg" xmlns:xlink="http://www.w3.org/1999/xlink" contentStyleType="text/css" data-diagram-type="CLASS" height="382px" preserveAspectRatio="none" style="width:1048px;height:382px;background:#FFFFFF;" version="1.1" viewBox="0 0 1048 382" width="1048px" zoomAndPan="magnify"><defs/><g><!--class questions--><g class="entity" data-entity="questions" data-source-line="2" data-uid="ent0002" id="entity_questions"><rect fill="#F1F1F1" height="361.75" rx="2.5" ry="2.5" style="stroke:#181818;stroke-width:0.5;" width="1027.8203" x="7" y="7"/><ellipse cx="486.6948" cy="23" fill="#ADD1B2" rx="11" ry="11" style="stroke:#181818;stroke-width:1;"/><path d="M489.4604,18.875 Q489.6167,18.6563 489.8042,18.5469 Q489.9917,18.4375 490.2104,18.4375 Q490.5854,18.4375 490.8198,18.7031 Q491.0542,18.9531 491.0542,19.5625 L491.0542,21.0156 Q491.0542,21.625 490.8198,21.8906 Q490.5854,22.1563 490.2104,22.1563 Q489.8667,22.1563 489.6636,21.9531 Q489.4604,21.7656 489.3511,21.25 Q489.3042,20.8906 489.1167,20.7031 Q488.7886,20.3281 488.1792,20.1094 Q487.5698,19.8906 486.9448,19.8906 Q486.1792,19.8906 485.5386,20.2188 Q484.9136,20.5469 484.4136,21.2969 Q483.9292,22.0469 483.9292,23.0781 L483.9292,24.1719 Q483.9292,25.4063 484.8198,26.2344 Q485.7104,27.0469 487.3042,27.0469 Q488.2417,27.0469 488.8979,26.7969 Q489.2886,26.6406 489.7104,26.2031 Q489.9761,25.9375 490.1167,25.8594 Q490.2729,25.7813 490.4761,25.7813 Q490.8042,25.7813 491.0542,26.0469 Q491.3198,26.2969 491.3198,26.6406 Q491.3198,26.9844 490.9761,27.3906 Q490.4761,27.9688 489.6792,28.2969 Q488.6011,28.75 487.3042,28.75 Q485.7886,28.75 484.5854,28.125 Q483.6011,27.625 482.9136,26.5625 Q482.2261,25.4844 482.2261,24.2031 L482.2261,23.0469 Q482.2261,21.7188 482.8354,20.5781 Q483.4604,19.4219 484.5542,18.8125 Q485.6479,18.1875 486.8823,18.1875 Q487.6167,18.1875 488.2573,18.3594 Q488.9136,18.5156 489.4604,18.875 Z " fill="#000000"/><text fill="#000000" font-family="sans-serif" font-size="14" lengthAdjust="spacing" textLength="59.9307" x="507.1948" y="28.7285">questions</text><line style="stroke:#181818;stroke-width:0.5;" x1="8" x2="1033.8203" y1="39" y2="39"/><line style="stroke:#181818;stroke-width:1;" x1="8" x2="1033.8203" y1="47" y2="47"/><line style="stroke:#181818;stroke-width:1;" x1="8" x2="1033.8203" y1="49" y2="49"/><ellipse cx="18" cy="61.3047" fill="none" rx="3" ry="3" style="stroke:#038048;stroke-width:1;"/><text fill="#000000" font-family="sans-serif" font-size="14" lengthAdjust="spacing" textLength="374.1309" x="27" y="65.5332">&#20316;&#20026;&#20351;&#29992;&#32773;, &#24403;&#25105;&#20204;&#30475;&#21040;`const`&#25104;&#21592;&#20989;&#25968;&#21518;, &#24212;&#35813;&#24819;&#21040;&#20160;&#20040;&#21602;?</text><line style="stroke:#181818;stroke-width:1;" x1="8" x2="1033.8203" y1="72.6094" y2="72.6094"/><line style="stroke:#181818;stroke-width:1;" x1="8" x2="1033.8203" y1="74.6094" y2="74.6094"/><ellipse cx="18" cy="86.9141" fill="none" rx="3" ry="3" style="stroke:#038048;stroke-width:1;"/><text fill="#000000" font-family="sans-serif" font-size="14" lengthAdjust="spacing" textLength="578.7168" x="27" y="91.1426">&#23545;&#20110;&#19968;&#33324;&#30340;`getter`, `setter`, &#36890;&#24120;&#24773;&#20917;&#19979;, &#35841;&#20250;&#20351;&#29992;`const` &#25104;&#21592;&#20989;&#25968;, &#35841;&#19981;&#20250;&#20351;&#29992;&#21602;? &#20026;&#20160;&#20040;&#21602;?</text><ellipse cx="18" cy="104.5234" fill="#84BE84" rx="3" ry="3" style="stroke:#038048;stroke-width:1;"/><text fill="#000000" font-family="sans-serif" font-size="14" lengthAdjust="spacing" textLength="1001.8203" x="27" y="108.752">&#22914;&#26524;&#26576;&#20010;`getter`&#36820;&#22238;&#20102;&#23646;&#24615;&#30340;&#24341;&#29992;, &#36825;&#26679;&#20877;&#24378;&#35843;&#35813;&#25104;&#21592;&#20989;&#25968;&#20026;`const`&#25104;&#21592;&#20989;&#25968;&#26159;&#21542;&#21512;&#29702;&#21602;? &#20026;&#20160;&#20040;&#21602;? &#22914;&#26524;&#19981;&#21512;&#29702;, &#24590;&#20040;&#25913;&#21464;&#25165;&#21512;&#29702;&#21602;? (&#30475;&#19981;&#25026;&#19979;&#38754;&#25552;&#20379;&#20102;&#21442;&#32771;&#20195;&#30721;)</text><text fill="#000000" font-family="sans-serif" font-size="14" lengthAdjust="spacing" textLength="54.4619" x="27" y="126.3613">`class A{</text><text fill="#000000" font-family="sans-serif" font-size="14" lengthAdjust="spacing" textLength="45.9102" x="27" y="143.9707">private:</text><text fill="#000000" font-family="sans-serif" font-size="14" lengthAdjust="spacing" textLength="29.5654" x="27" y="161.5801">int x;</text><text fill="#000000" font-family="sans-serif" font-size="14" lengthAdjust="spacing" textLength="40.4688" x="27" y="179.1895">public:</text><text fill="#000000" font-family="sans-serif" font-size="14" lengthAdjust="spacing" textLength="168.082" x="27" y="196.7988">int&amp; getX() const {return x;}</text><text fill="#000000" font-family="sans-serif" font-size="14" lengthAdjust="spacing" textLength="13.2275" x="27" y="214.4082">};`</text><line style="stroke:#181818;stroke-width:1;" x1="8" x2="1033.8203" y1="221.4844" y2="221.4844"/><line style="stroke:#181818;stroke-width:1;" x1="8" x2="1033.8203" y1="223.4844" y2="223.4844"/><ellipse cx="18" cy="235.7891" fill="#84BE84" rx="3" ry="3" style="stroke:#038048;stroke-width:1;"/><text fill="#000000" font-family="sans-serif" font-size="14" lengthAdjust="spacing" textLength="871.9307" x="27" y="240.0176">&#22312;&#38382;&#39064;`3`&#20013;, &#25105;&#20204;&#38024;&#23545;&#30340;&#26159;&#36820;&#22238;&#31867;&#23646;&#24615;. &#22914;&#26524;&#25105;&#20204;&#36820;&#22238;&#30340;&#26159;&#24403;&#21069;&#31867;&#23545;&#35937;(`*this`), &#37027;&#20040;`double const`&#25110;&#35768;&#20250;&#26356;&#26377;&#24847;&#20041;, &#35831;&#20998;&#26512;&#19968;&#19979;. (&#21442;&#32771;&#20195;&#30721;&#22914;&#19979;)</text><text fill="#000000" font-family="sans-serif" font-size="14" lengthAdjust="spacing" textLength="266.1094" x="27" y="257.627">`const complex&amp; func() const{return *this;}`</text><line style="stroke:#181818;stroke-width:1;" x1="8" x2="1033.8203" y1="264.7031" y2="264.7031"/><line style="stroke:#181818;stroke-width:1;" x1="8" x2="1033.8203" y1="266.7031" y2="266.7031"/><ellipse cx="18" cy="279.0078" fill="none" rx="3" ry="3" style="stroke:#038048;stroke-width:1;"/><text fill="#000000" font-family="sans-serif" font-size="14" lengthAdjust="spacing" textLength="535.165" x="27" y="283.2363">&#22312;&#38382;&#39064;`4`&#20013;, &#25105;&#20204;&#21482;&#26159;&#21333;&#32431;&#22320;&#20998;&#26512;&#20102;`double const` &#24773;&#20917;, &#37027;&#20040;&#35831;&#23545;&#22914;&#19979;&#21508;&#31181;&#24773;&#20917;&#20998;&#26512;&#19979;.</text><text fill="#000000" font-family="sans-serif" font-size="14" lengthAdjust="spacing" textLength="227.9854" x="27" y="300.8457">`complex&amp; func() const {return *this;}</text><text fill="#000000" font-family="sans-serif" font-size="14" lengthAdjust="spacing" textLength="223.3232" x="27" y="318.4551">const complex&amp; func() {return *this;}</text><text fill="#000000" font-family="sans-serif" font-size="14" lengthAdjust="spacing" textLength="190.6338" x="27" y="336.0645">complex&amp; func() {return *this;}`</text><line style="stroke:#181818;stroke-width:1;" x1="8" x2="1033.8203" y1="343.1406" y2="343.1406"/><line style="stroke:#181818;stroke-width:1;" x1="8" x2="1033.8203" y1="345.1406" y2="345.1406"/><ellipse cx="18" cy="357.4453" fill="none" rx="3" ry="3" style="stroke:#038048;stroke-width:1;"/><text fill="#000000" font-family="sans-serif" font-size="14" lengthAdjust="spacing" textLength="310.3516" x="27" y="361.6738">&#24403;&#25105;&#20204;&#30475;&#21040;&#38750;`const`&#25104;&#21592;&#20989;&#25968;&#26102;, &#24212;&#35813;&#32771;&#34385;&#20160;&#20040;&#21602;?</text></g><!--SRC=[VLFBRjf05DtdAsOLGOlOjAkYgkfVT3cfwxP8519ieaWHaWF4CK86qq93mA4fKHwAqXZKHsm3vMTcnlPVzDh6bMbfPsDhvimzZtk7osq90jefyOAOBUI5_Gs4diA2pqD4vZenRJ9VE9rhLpfC8Jh_m9GscTuwUeCgOyp13H4pHQFj7ZsQi-wOQas0sHtNk63Lhu0XKubO2csFdiKhKyCYTfEOaglSElqQViEB8b_4AOI5wC-J-jGqMVMGoj-9sKWXTtn0PlrGpP8PnQb3XAd-1lcao3SGbm3SbnKsrDadZPWt4R6xwD31aDWodGoPT0MIwAmB9Q3cueITtLDPfJFR7LTzNp5EgBuc1DOpg7P9DSNHvBz5B0M0qX2HGangmXdhMBJLOtKrTZ41GGEG7LKW0kzqn5eQ-JdmTROghbGbqtFdx209jZ0NzF6vtx_jOdPtI-IVmA-_idaHxMNy_TBBN9QBRMyYiFyYaKI11RHVvCLICG_WCc3A6RpICVtQExxpHZty21Fp2uWE1i5xhq0l8I_m78ReJAPXYEaewG2uF0o0C4Qqhlf0mt8ddnFuWVWsA-0aDBro3adWLmMGogCesO_kdGbTPODlJA-pMejOTMYCSKyLcGsXZHA4aqQ9U2P03PjXCe4vhl1kEyVlRQBNfJmNMOuS1_oPyZyCFuuRfgqRtu7QTMo3wkEb15jUrOp2kOqC-LeDAzH4jPfpfORdaO56EXIwHYBwGoC0rnjQX_ilOjNjwilsJeVhvlhuH_Iu8MZtf1rxMUMDNm00]--></g></svg>