<?xml version="1.0" encoding="UTF-8" standalone="no"?>
<!DOCTYPE svg PUBLIC "-//W3C//DTD SVG 1.1//EN"
 "http://www.w3.org/Graphics/SVG/1.1/DTD/svg11.dtd">
<!-- Generated by graphviz version 13.0.1 (20250615.1724)
 -->
<!-- Title: G Pages: 1 -->
<svg width="336pt" height="229pt"
 viewBox="0.00 0.00 336.00 229.00" xmlns="http://www.w3.org/2000/svg" xmlns:xlink="http://www.w3.org/1999/xlink">
<g id="graph0" class="graph" transform="scale(1 1) rotate(0) translate(4 225)">
<title>G</title>
<polygon fill="white" stroke="none" points="-4,4 -4,-225 332,-225 332,4 -4,4"/>
<!-- matrix -->
<g id="node1" class="node">
<title>matrix</title>
<polygon fill="none" stroke="black" points="0,-0.5 0,-220.5 328,-220.5 328,-0.5 0,-0.5"/>
<polygon fill="#b2d3e4" stroke="none" points="10,-174.5 10,-214.5 70,-214.5 70,-174.5 10,-174.5"/>
<polygon fill="none" stroke="#8383cc" points="10,-174.5 10,-214.5 70,-214.5 70,-174.5 10,-174.5"/>
<text xml:space="preserve" text-anchor="start" x="36.62" y="-189.45" font-family="Times New Roman,serif" font-size="14.00">1</text>
<polygon fill="#b2d3e4" stroke="none" points="72,-174.5 72,-214.5 132,-214.5 132,-174.5 72,-174.5"/>
<polygon fill="none" stroke="#8383cc" points="72,-174.5 72,-214.5 132,-214.5 132,-174.5 72,-174.5"/>
<text xml:space="preserve" text-anchor="start" x="98.62" y="-189.45" font-family="Times New Roman,serif" font-size="14.00">3</text>
<polygon fill="#b2d3e4" stroke="none" points="134,-174.5 134,-214.5 194,-214.5 194,-174.5 134,-174.5"/>
<polygon fill="none" stroke="#8383cc" points="134,-174.5 134,-214.5 194,-214.5 194,-174.5 134,-174.5"/>
<text xml:space="preserve" text-anchor="start" x="160.62" y="-189.45" font-family="Times New Roman,serif" font-size="14.00">1</text>
<polygon fill="#b2d3e4" stroke="none" points="196,-174.5 196,-214.5 256,-214.5 256,-174.5 196,-174.5"/>
<polygon fill="none" stroke="#8383cc" points="196,-174.5 196,-214.5 256,-214.5 256,-174.5 196,-174.5"/>
<text xml:space="preserve" text-anchor="start" x="222.62" y="-189.45" font-family="Times New Roman,serif" font-size="14.00">2</text>
<polygon fill="#ff8c00" stroke="none" points="258,-174.5 258,-214.5 318,-214.5 318,-174.5 258,-174.5"/>
<polygon fill="none" stroke="#8383cc" points="258,-174.5 258,-214.5 318,-214.5 318,-174.5 258,-174.5"/>
<text xml:space="preserve" text-anchor="start" x="284.62" y="-193.2" font-family="Times New Roman,serif" font-size="14.00">4</text>
<text xml:space="preserve" text-anchor="start" x="286.12" y="-184.9" font-family="Times New Roman,serif" font-size="8.00" fill="red">1</text>
<polygon fill="#b2d3e4" stroke="none" points="10,-132.5 10,-172.5 70,-172.5 70,-132.5 10,-132.5"/>
<polygon fill="none" stroke="#8383cc" points="10,-132.5 10,-172.5 70,-172.5 70,-132.5 10,-132.5"/>
<text xml:space="preserve" text-anchor="start" x="36.62" y="-147.45" font-family="Times New Roman,serif" font-size="14.00">1</text>
<polygon fill="#b2d3e4" stroke="none" points="72,-132.5 72,-172.5 132,-172.5 132,-132.5 72,-132.5"/>
<polygon fill="none" stroke="#8383cc" points="72,-132.5 72,-172.5 132,-172.5 132,-132.5 72,-132.5"/>
<text xml:space="preserve" text-anchor="start" x="98.62" y="-147.45" font-family="Times New Roman,serif" font-size="14.00">2</text>
<polygon fill="#b2d3e4" stroke="none" points="134,-132.5 134,-172.5 194,-172.5 194,-132.5 134,-132.5"/>
<polygon fill="none" stroke="#8383cc" points="134,-132.5 134,-172.5 194,-172.5 194,-132.5 134,-132.5"/>
<text xml:space="preserve" text-anchor="start" x="160.62" y="-147.45" font-family="Times New Roman,serif" font-size="14.00">1</text>
<polygon fill="#ff8c00" stroke="none" points="196,-132.5 196,-172.5 256,-172.5 256,-132.5 196,-132.5"/>
<polygon fill="none" stroke="#8383cc" points="196,-132.5 196,-172.5 256,-172.5 256,-132.5 196,-132.5"/>
<text xml:space="preserve" text-anchor="start" x="222.62" y="-151.2" font-family="Times New Roman,serif" font-size="14.00">3</text>
<text xml:space="preserve" text-anchor="start" x="224.12" y="-142.9" font-family="Times New Roman,serif" font-size="8.00" fill="red">3</text>
<polygon fill="#ff8c00" stroke="none" points="258,-132.5 258,-172.5 318,-172.5 318,-132.5 258,-132.5"/>
<polygon fill="none" stroke="#8383cc" points="258,-132.5 258,-172.5 318,-172.5 318,-132.5 258,-132.5"/>
<text xml:space="preserve" text-anchor="start" x="284.62" y="-151.2" font-family="Times New Roman,serif" font-size="14.00">2</text>
<text xml:space="preserve" text-anchor="start" x="286.12" y="-142.9" font-family="Times New Roman,serif" font-size="8.00" fill="red">2</text>
<polygon fill="#b2d3e4" stroke="none" points="10,-90.5 10,-130.5 70,-130.5 70,-90.5 10,-90.5"/>
<polygon fill="none" stroke="#8383cc" points="10,-90.5 10,-130.5 70,-130.5 70,-90.5 10,-90.5"/>
<text xml:space="preserve" text-anchor="start" x="36.62" y="-105.45" font-family="Times New Roman,serif" font-size="14.00">2</text>
<polygon fill="#b2d3e4" stroke="none" points="72,-90.5 72,-130.5 132,-130.5 132,-90.5 72,-90.5"/>
<polygon fill="none" stroke="#8383cc" points="72,-90.5 72,-130.5 132,-130.5 132,-90.5 72,-90.5"/>
<text xml:space="preserve" text-anchor="start" x="98.62" y="-105.45" font-family="Times New Roman,serif" font-size="14.00">4</text>
<polygon fill="#ff8c00" stroke="none" points="134,-90.5 134,-130.5 194,-130.5 194,-90.5 134,-90.5"/>
<polygon fill="none" stroke="#8383cc" points="134,-90.5 134,-130.5 194,-130.5 194,-90.5 134,-90.5"/>
<text xml:space="preserve" text-anchor="start" x="160.62" y="-109.2" font-family="Times New Roman,serif" font-size="14.00">7</text>
<text xml:space="preserve" text-anchor="start" x="162.12" y="-100.9" font-family="Times New Roman,serif" font-size="8.00" fill="red">6</text>
<polygon fill="#ff8c00" stroke="none" points="196,-90.5 196,-130.5 256,-130.5 256,-90.5 196,-90.5"/>
<polygon fill="none" stroke="#8383cc" points="196,-90.5 196,-130.5 256,-130.5 256,-90.5 196,-90.5"/>
<text xml:space="preserve" text-anchor="start" x="222.62" y="-109.2" font-family="Times New Roman,serif" font-size="14.00">2</text>
<text xml:space="preserve" text-anchor="start" x="224.12" y="-100.9" font-family="Times New Roman,serif" font-size="8.00" fill="red">5</text>
<polygon fill="#ff8c00" stroke="none" points="258,-90.5 258,-130.5 318,-130.5 318,-90.5 258,-90.5"/>
<polygon fill="none" stroke="#8383cc" points="258,-90.5 258,-130.5 318,-130.5 318,-90.5 258,-90.5"/>
<text xml:space="preserve" text-anchor="start" x="284.62" y="-109.2" font-family="Times New Roman,serif" font-size="14.00">1</text>
<text xml:space="preserve" text-anchor="start" x="286.12" y="-100.9" font-family="Times New Roman,serif" font-size="8.00" fill="red">4</text>
<polygon fill="#ff8c00" stroke="none" points="10,-48.5 10,-88.5 70,-88.5 70,-48.5 10,-48.5"/>
<polygon fill="none" stroke="#8383cc" points="10,-48.5 10,-88.5 70,-88.5 70,-48.5 10,-48.5"/>
<text xml:space="preserve" text-anchor="start" x="36.62" y="-67.2" font-family="Times New Roman,serif" font-size="14.00">4</text>
<text xml:space="preserve" text-anchor="start" x="36.25" y="-58.9" font-family="Times New Roman,serif" font-size="8.00" fill="red">13</text>
<polygon fill="#ff8c00" stroke="none" points="72,-48.5 72,-88.5 132,-88.5 132,-48.5 72,-48.5"/>
<polygon fill="none" stroke="#8383cc" points="72,-48.5 72,-88.5 132,-88.5 132,-48.5 72,-48.5"/>
<text xml:space="preserve" text-anchor="start" x="98.62" y="-67.2" font-family="Times New Roman,serif" font-size="14.00">5</text>
<text xml:space="preserve" text-anchor="start" x="98.25" y="-58.9" font-family="Times New Roman,serif" font-size="8.00" fill="red">14</text>
<polygon fill="#ff8c00" stroke="none" points="134,-48.5 134,-88.5 194,-88.5 194,-48.5 134,-48.5"/>
<polygon fill="none" stroke="#8383cc" points="134,-48.5 134,-88.5 194,-88.5 194,-48.5 134,-48.5"/>
<text xml:space="preserve" text-anchor="start" x="160.62" y="-67.2" font-family="Times New Roman,serif" font-size="14.00">6</text>
<text xml:space="preserve" text-anchor="start" x="162.12" y="-58.9" font-family="Times New Roman,serif" font-size="8.00" fill="red">9</text>
<polygon fill="#ff8c00" stroke="none" points="196,-48.5 196,-88.5 256,-88.5 256,-48.5 196,-48.5"/>
<polygon fill="none" stroke="#8383cc" points="196,-48.5 196,-88.5 256,-88.5 256,-48.5 196,-48.5"/>
<text xml:space="preserve" text-anchor="start" x="222.62" y="-67.2" font-family="Times New Roman,serif" font-size="14.00">1</text>
<text xml:space="preserve" text-anchor="start" x="224.12" y="-58.9" font-family="Times New Roman,serif" font-size="8.00" fill="red">8</text>
<polygon fill="#ff8c00" stroke="none" points="258,-48.5 258,-88.5 318,-88.5 318,-48.5 258,-48.5"/>
<polygon fill="none" stroke="#8383cc" points="258,-48.5 258,-88.5 318,-88.5 318,-48.5 258,-48.5"/>
<text xml:space="preserve" text-anchor="start" x="284.62" y="-67.2" font-family="Times New Roman,serif" font-size="14.00">1</text>
<text xml:space="preserve" text-anchor="start" x="286.12" y="-58.9" font-family="Times New Roman,serif" font-size="8.00" fill="red">7</text>
<polygon fill="#ff8c00" stroke="none" points="10,-6.5 10,-46.5 70,-46.5 70,-6.5 10,-6.5"/>
<polygon fill="none" stroke="#8383cc" points="10,-6.5 10,-46.5 70,-46.5 70,-6.5 10,-6.5"/>
<text xml:space="preserve" text-anchor="start" x="36.62" y="-25.2" font-family="Times New Roman,serif" font-size="14.00">1</text>
<text xml:space="preserve" text-anchor="start" x="36.25" y="-16.9" font-family="Times New Roman,serif" font-size="8.00" fill="red">12</text>
<polygon fill="#ff8c00" stroke="none" points="72,-6.5 72,-46.5 132,-46.5 132,-6.5 72,-6.5"/>
<polygon fill="none" stroke="#8383cc" points="72,-6.5 72,-46.5 132,-46.5 132,-6.5 72,-6.5"/>
<text xml:space="preserve" text-anchor="start" x="98.62" y="-25.2" font-family="Times New Roman,serif" font-size="14.00">4</text>
<text xml:space="preserve" text-anchor="start" x="98.25" y="-16.9" font-family="Times New Roman,serif" font-size="8.00" fill="red">15</text>
<polygon fill="#ff8c00" stroke="none" points="134,-6.5 134,-46.5 194,-46.5 194,-6.5 134,-6.5"/>
<polygon fill="none" stroke="#8383cc" points="134,-6.5 134,-46.5 194,-46.5 194,-6.5 134,-6.5"/>
<text xml:space="preserve" text-anchor="start" x="160.62" y="-25.2" font-family="Times New Roman,serif" font-size="14.00">1</text>
<text xml:space="preserve" text-anchor="start" x="160.25" y="-16.9" font-family="Times New Roman,serif" font-size="8.00" fill="red">16</text>
<polygon fill="#ff8c00" stroke="none" points="196,-6.5 196,-46.5 256,-46.5 256,-6.5 196,-6.5"/>
<polygon fill="none" stroke="#8383cc" points="196,-6.5 196,-46.5 256,-46.5 256,-6.5 196,-6.5"/>
<text xml:space="preserve" text-anchor="start" x="222.62" y="-25.2" font-family="Times New Roman,serif" font-size="14.00">2</text>
<text xml:space="preserve" text-anchor="start" x="222.25" y="-16.9" font-family="Times New Roman,serif" font-size="8.00" fill="red">10</text>
<polygon fill="#ff8c00" stroke="none" points="258,-6.5 258,-46.5 318,-46.5 318,-6.5 258,-6.5"/>
<polygon fill="none" stroke="#8383cc" points="258,-6.5 258,-46.5 318,-46.5 318,-6.5 258,-6.5"/>
<text xml:space="preserve" text-anchor="start" x="284.62" y="-25.2" font-family="Times New Roman,serif" font-size="14.00">1</text>
<text xml:space="preserve" text-anchor="start" x="284.25" y="-16.9" font-family="Times New Roman,serif" font-size="8.00" fill="red">11</text>
</g>
</g>
</svg>
