<?xml version="1.0" encoding="UTF-8" standalone="no"?>
<!DOCTYPE svg PUBLIC "-//W3C//DTD SVG 1.1//EN"
 "http://www.w3.org/Graphics/SVG/1.1/DTD/svg11.dtd">
<!-- Generated by graphviz version 13.0.1 (20250615.1724)
 -->
<!-- Title: G Pages: 1 -->
<svg width="207pt" height="432pt"
 viewBox="0.00 0.00 207.00 432.00" xmlns="http://www.w3.org/2000/svg" xmlns:xlink="http://www.w3.org/1999/xlink">
<g id="graph0" class="graph" transform="scale(1 1) rotate(0) translate(4 428)">
<title>G</title>
<polygon fill="white" stroke="none" points="-4,4 -4,-428 203,-428 203,4 -4,4"/>
<!-- node1 -->
<g id="node1" class="node">
<title>node1</title>
<polygon fill="#6f9fc7" stroke="#1f4e79" stroke-width="2" points="71,-377.5 71,-423.5 141,-423.5 141,-377.5 71,-377.5"/>
<text xml:space="preserve" text-anchor="middle" x="106" y="-406.2" font-family="Consolas" font-size="14.00">step1</text>
<polyline fill="none" stroke="#1f4e79" stroke-width="2" points="71,-401.25 141,-401.25"/>
<text xml:space="preserve" text-anchor="middle" x="106" y="-383.95" font-family="Consolas" font-size="14.00">节点: 1</text>
</g>
<!-- node2 -->
<g id="node2" class="node">
<title>node2</title>
<polygon fill="#6f9fc7" stroke="#1f4e79" stroke-width="2" points="0,-283.25 0,-329.25 70,-329.25 70,-283.25 0,-283.25"/>
<text xml:space="preserve" text-anchor="middle" x="35" y="-311.95" font-family="Consolas" font-size="14.00">step2</text>
<polyline fill="none" stroke="#1f4e79" stroke-width="2" points="0,-307 70,-307"/>
<text xml:space="preserve" text-anchor="middle" x="35" y="-289.7" font-family="Consolas" font-size="14.00">节点: 2</text>
</g>
<!-- node1&#45;&#45;node2 -->
<g id="edge1" class="edge">
<title>node1&#45;&#45;node2</title>
<path fill="none" stroke="#8383cc" stroke-width="2" d="M88.45,-376.7C77.53,-362.5 63.53,-344.31 52.59,-330.11"/>
<text xml:space="preserve" text-anchor="middle" x="77.38" y="-349.5" font-family="Times New Roman,serif" font-size="10.00" fill="#9c4a4a">1</text>
</g>
<!-- node4 -->
<g id="node4" class="node">
<title>node4</title>
<polygon fill="#6f9fc7" stroke="#1f4e79" stroke-width="2" points="71,-189 71,-235 141,-235 141,-189 71,-189"/>
<text xml:space="preserve" text-anchor="middle" x="106" y="-217.7" font-family="Consolas" font-size="14.00">step4</text>
<polyline fill="none" stroke="#1f4e79" stroke-width="2" points="71,-212.75 141,-212.75"/>
<text xml:space="preserve" text-anchor="middle" x="106" y="-195.45" font-family="Consolas" font-size="14.00">节点: 4</text>
</g>
<!-- node1&#45;&#45;node4 -->
<g id="edge8" class="edge">
<title>node1&#45;&#45;node4</title>
<path fill="none" stroke="#8383cc" stroke-width="2" d="M106,-376.63C106,-340.74 106,-271.59 106,-235.76"/>
<text xml:space="preserve" text-anchor="middle" x="108.62" y="-302.38" font-family="Times New Roman,serif" font-size="10.00" fill="#9c4a4a">8</text>
</g>
<!-- node5 -->
<g id="node5" class="node">
<title>node5</title>
<polygon fill="#6f9fc7" stroke="#1f4e79" stroke-width="2" points="129,-283.25 129,-329.25 199,-329.25 199,-283.25 129,-283.25"/>
<text xml:space="preserve" text-anchor="middle" x="164" y="-311.95" font-family="Consolas" font-size="14.00">step5</text>
<polyline fill="none" stroke="#1f4e79" stroke-width="2" points="129,-307 199,-307"/>
<text xml:space="preserve" text-anchor="middle" x="164" y="-289.7" font-family="Consolas" font-size="14.00">节点: 5</text>
</g>
<!-- node1&#45;&#45;node5 -->
<g id="edge12" class="edge">
<title>node1&#45;&#45;node5</title>
<path fill="none" stroke="#8383cc" stroke-width="2" d="M120.34,-376.7C129.26,-362.5 140.7,-344.31 149.63,-330.11"/>
<text xml:space="preserve" text-anchor="middle" x="143.72" y="-349.5" font-family="Times New Roman,serif" font-size="10.00" fill="#9c4a4a">12</text>
</g>
<!-- node3 -->
<g id="node3" class="node">
<title>node3</title>
<polygon fill="#6f9fc7" stroke="#1f4e79" stroke-width="2" points="7,-94.75 7,-140.75 77,-140.75 77,-94.75 7,-94.75"/>
<text xml:space="preserve" text-anchor="middle" x="42" y="-123.45" font-family="Consolas" font-size="14.00">step3</text>
<polyline fill="none" stroke="#1f4e79" stroke-width="2" points="7,-118.5 77,-118.5"/>
<text xml:space="preserve" text-anchor="middle" x="42" y="-101.2" font-family="Consolas" font-size="14.00">节点: 3</text>
</g>
<!-- node2&#45;&#45;node3 -->
<g id="edge2" class="edge">
<title>node2&#45;&#45;node3</title>
<path fill="none" stroke="#8383cc" stroke-width="2" d="M33.38,-282.42C31.67,-253.63 29.76,-202.64 34,-159.25 34.57,-153.4 35.6,-147.14 36.73,-141.34"/>
<text xml:space="preserve" text-anchor="middle" x="34.59" y="-208.12" font-family="Times New Roman,serif" font-size="10.00" fill="#9c4a4a">2</text>
</g>
<!-- node2&#45;&#45;node4 -->
<g id="edge4" class="edge">
<title>node2&#45;&#45;node4</title>
<path fill="none" stroke="#8383cc" stroke-width="2" d="M52.55,-282.45C63.47,-268.25 77.47,-250.06 88.41,-235.86"/>
<text xml:space="preserve" text-anchor="middle" x="77.38" y="-255.25" font-family="Times New Roman,serif" font-size="10.00" fill="#9c4a4a">4</text>
</g>
<!-- node6 -->
<g id="node6" class="node">
<title>node6</title>
<polygon fill="#6f9fc7" stroke="#1f4e79" stroke-width="2" points="71,-0.5 71,-46.5 141,-46.5 141,-0.5 71,-0.5"/>
<text xml:space="preserve" text-anchor="middle" x="106" y="-29.2" font-family="Consolas" font-size="14.00">step6</text>
<polyline fill="none" stroke="#1f4e79" stroke-width="2" points="71,-24.25 141,-24.25"/>
<text xml:space="preserve" text-anchor="middle" x="106" y="-6.95" font-family="Consolas" font-size="14.00">节点: 6</text>
</g>
<!-- node3&#45;&#45;node6 -->
<g id="edge3" class="edge">
<title>node3&#45;&#45;node6</title>
<path fill="none" stroke="#8383cc" stroke-width="2" d="M13.74,-93.79C6.09,-84.8 1.46,-74.4 7.75,-65 21.61,-44.3 48.17,-34.17 70.19,-29.22"/>
<text xml:space="preserve" text-anchor="middle" x="10.38" y="-66.75" font-family="Times New Roman,serif" font-size="10.00" fill="#9c4a4a">3</text>
</g>
<!-- node3&#45;&#45;node6 -->
<g id="edge6" class="edge">
<title>node3&#45;&#45;node6</title>
<path fill="none" stroke="#8383cc" stroke-width="2" d="M33.36,-93.86C31.22,-84.39 30.77,-73.62 35.75,-65 43.36,-51.84 57.05,-42.57 70.34,-36.26"/>
<text xml:space="preserve" text-anchor="middle" x="38.38" y="-66.75" font-family="Times New Roman,serif" font-size="10.00" fill="#9c4a4a">6</text>
</g>
<!-- node3&#45;&#45;node6 -->
<g id="edge10" class="edge">
<title>node3&#45;&#45;node6</title>
<path fill="none" stroke="#8383cc" stroke-width="2" d="M47.46,-93.94C50.39,-84.48 54.63,-73.7 60.5,-65 64.76,-58.69 70.22,-52.72 75.87,-47.41"/>
<text xml:space="preserve" text-anchor="middle" x="65.75" y="-66.75" font-family="Times New Roman,serif" font-size="10.00" fill="#9c4a4a">10</text>
</g>
<!-- node3&#45;&#45;node6 -->
<g id="edge15" class="edge">
<title>node3&#45;&#45;node6</title>
<path fill="none" stroke="#8383cc" stroke-width="2" d="M58.37,-94.12C62.52,-88.32 66.95,-82.07 71,-76.25 77.57,-66.81 84.7,-56.32 90.8,-47.26"/>
<text xml:space="preserve" text-anchor="middle" x="83.04" y="-66.75" font-family="Times New Roman,serif" font-size="10.00" fill="#9c4a4a">15</text>
</g>
<!-- node4&#45;&#45;node3 -->
<g id="edge5" class="edge">
<title>node4&#45;&#45;node3</title>
<path fill="none" stroke="#8383cc" stroke-width="2" d="M70.26,-196.88C59.09,-190.58 48.06,-181.93 41.75,-170.5 36.98,-161.85 36.35,-151.08 37.19,-141.6"/>
<text xml:space="preserve" text-anchor="middle" x="44.38" y="-161" font-family="Times New Roman,serif" font-size="10.00" fill="#9c4a4a">5</text>
</g>
<!-- node4&#45;&#45;node3 -->
<g id="edge9" class="edge">
<title>node4&#45;&#45;node3</title>
<path fill="none" stroke="#8383cc" stroke-width="2" d="M83.92,-188.23C78.99,-182.64 73.97,-176.53 69.75,-170.5 63.43,-161.48 57.51,-150.86 52.77,-141.6"/>
<text xml:space="preserve" text-anchor="middle" x="72.38" y="-161" font-family="Times New Roman,serif" font-size="10.00" fill="#9c4a4a">9</text>
</g>
<!-- node4&#45;&#45;node3 -->
<g id="edge14" class="edge">
<title>node4&#45;&#45;node3</title>
<path fill="none" stroke="#8383cc" stroke-width="2" d="M90.8,-188.24C84.7,-179.18 77.57,-168.69 71,-159.25 66.95,-153.43 62.52,-147.18 58.37,-141.38"/>
<text xml:space="preserve" text-anchor="middle" x="83.04" y="-161" font-family="Times New Roman,serif" font-size="10.00" fill="#9c4a4a">14</text>
</g>
<!-- node4&#45;&#45;node6 -->
<g id="edge7" class="edge">
<title>node4&#45;&#45;node6</title>
<path fill="none" stroke="#8383cc" stroke-width="2" d="M106,-188.13C106,-152.24 106,-83.09 106,-47.26"/>
<text xml:space="preserve" text-anchor="middle" x="108.62" y="-113.88" font-family="Times New Roman,serif" font-size="10.00" fill="#9c4a4a">7</text>
</g>
<!-- node4&#45;&#45;node6 -->
<g id="edge11" class="edge">
<title>node4&#45;&#45;node6</title>
<path fill="none" stroke="#8383cc" stroke-width="2" d="M115.36,-188.22C117.28,-182.53 119.01,-176.37 120,-170.5 127.77,-124.26 127.77,-111.24 120,-65 119.01,-59.13 117.28,-52.97 115.36,-47.28"/>
<text xml:space="preserve" text-anchor="middle" x="130.7" y="-113.88" font-family="Times New Roman,serif" font-size="10.00" fill="#9c4a4a">11</text>
</g>
<!-- node4&#45;&#45;node6 -->
<g id="edge16" class="edge">
<title>node4&#45;&#45;node6</title>
<path fill="none" stroke="#8383cc" stroke-width="2" d="M125.1,-188.08C128.88,-182.6 132.47,-176.57 135,-170.5 140.08,-158.33 138.88,-154.39 140,-141.25 142.87,-107.41 148.08,-96.34 135,-65 132.47,-58.93 128.88,-52.9 125.1,-47.42"/>
<text xml:space="preserve" text-anchor="middle" x="148.73" y="-113.88" font-family="Times New Roman,serif" font-size="10.00" fill="#9c4a4a">16</text>
</g>
<!-- node5&#45;&#45;node4 -->
<g id="edge13" class="edge">
<title>node5&#45;&#45;node4</title>
<path fill="none" stroke="#8383cc" stroke-width="2" d="M149.66,-282.45C140.74,-268.25 129.3,-250.06 120.37,-235.86"/>
<text xml:space="preserve" text-anchor="middle" x="143.72" y="-255.25" font-family="Times New Roman,serif" font-size="10.00" fill="#9c4a4a">13</text>
</g>
<!-- node5&#45;&#45;node6 -->
<g id="edge17" class="edge">
<title>node5&#45;&#45;node6</title>
<path fill="none" stroke="#8383cc" stroke-width="2" d="M169.3,-282.41C178.45,-237.24 192.52,-134.83 151,-65 147.13,-58.5 141.88,-52.45 136.33,-47.11"/>
<text xml:space="preserve" text-anchor="middle" x="183.99" y="-161" font-family="Times New Roman,serif" font-size="10.00" fill="#9c4a4a">17</text>
</g>
</g>
</svg>
