<?xml version="1.0" encoding="UTF-8" standalone="no"?>
<!DOCTYPE svg PUBLIC "-//W3C//DTD SVG 1.1//EN"
 "http://www.w3.org/Graphics/SVG/1.1/DTD/svg11.dtd">
<!-- Generated by graphviz version 13.0.1 (20250615.1724)
 -->
<!-- Title: G Pages: 1 -->
<svg width="595pt" height="387pt"
 viewBox="0.00 0.00 595.00 387.00" xmlns="http://www.w3.org/2000/svg" xmlns:xlink="http://www.w3.org/1999/xlink">
<g id="graph0" class="graph" transform="scale(1 1) rotate(0) translate(4 383)">
<title>G</title>
<polygon fill="white" stroke="none" points="-4,4 -4,-383 591,-383 591,4 -4,4"/>
<!-- node1 -->
<g id="node1" class="node">
<title>node1</title>
<polygon fill="#abebc6" stroke="#27ae60" stroke-width="2" points="297,-332.5 297,-378.5 367,-378.5 367,-332.5 297,-332.5"/>
<text xml:space="preserve" text-anchor="middle" x="332" y="-361.2" font-family="Consolas" font-size="14.00">step1</text>
<polyline fill="none" stroke="#27ae60" stroke-width="2" points="297,-356.25 367,-356.25"/>
<text xml:space="preserve" text-anchor="middle" x="332" y="-338.95" font-family="Consolas" font-size="14.00">节点: 1</text>
</g>
<!-- node2 -->
<g id="node2" class="node">
<title>node2</title>
<polygon fill="#abebc6" stroke="#27ae60" stroke-width="2" points="121,-249.5 121,-295.5 191,-295.5 191,-249.5 121,-249.5"/>
<text xml:space="preserve" text-anchor="middle" x="156" y="-278.2" font-family="Consolas" font-size="14.00">step2</text>
<polyline fill="none" stroke="#27ae60" stroke-width="2" points="121,-273.25 191,-273.25"/>
<text xml:space="preserve" text-anchor="middle" x="156" y="-255.95" font-family="Consolas" font-size="14.00">节点: 2</text>
</g>
<!-- node1&#45;&#45;node2 -->
<g id="edge1" class="edge">
<title>node1&#45;&#45;node2</title>
<path fill="none" stroke="#8383cc" stroke-width="2" d="M296.38,-338.11C265.95,-324.1 222.37,-304.05 191.86,-290.01"/>
</g>
<!-- node9 -->
<g id="node9" class="node">
<title>node9</title>
<polygon fill="#abebc6" stroke="#27ae60" stroke-width="2" points="297,-249.5 297,-295.5 367,-295.5 367,-249.5 297,-249.5"/>
<text xml:space="preserve" text-anchor="middle" x="332" y="-278.2" font-family="Consolas" font-size="14.00">step9</text>
<polyline fill="none" stroke="#27ae60" stroke-width="2" points="297,-273.25 367,-273.25"/>
<text xml:space="preserve" text-anchor="middle" x="332" y="-255.95" font-family="Consolas" font-size="14.00">节点: 4</text>
</g>
<!-- node1&#45;&#45;node9 -->
<g id="edge8" class="edge">
<title>node1&#45;&#45;node9</title>
<path fill="none" stroke="#8383cc" stroke-width="2" d="M332,-331.51C332,-320.47 332,-307.28 332,-296.27"/>
</g>
<!-- node13 -->
<g id="node13" class="node">
<title>node13</title>
<polygon fill="#abebc6" stroke="#27ae60" stroke-width="2" points="429,-249.5 429,-295.5 499,-295.5 499,-249.5 429,-249.5"/>
<text xml:space="preserve" text-anchor="middle" x="464" y="-278.2" font-family="Consolas" font-size="14.00">step13</text>
<polyline fill="none" stroke="#27ae60" stroke-width="2" points="429,-273.25 499,-273.25"/>
<text xml:space="preserve" text-anchor="middle" x="464" y="-255.95" font-family="Consolas" font-size="14.00">节点: 5</text>
</g>
<!-- node1&#45;&#45;node13 -->
<g id="edge12" class="edge">
<title>node1&#45;&#45;node13</title>
<path fill="none" stroke="#8383cc" stroke-width="2" d="M367.72,-332.58C386.5,-321.05 409.46,-306.97 428.25,-295.44"/>
</g>
<!-- node3 -->
<g id="node3" class="node">
<title>node3</title>
<polygon fill="#abebc6" stroke="#27ae60" stroke-width="2" points="11,-166.5 11,-212.5 81,-212.5 81,-166.5 11,-166.5"/>
<text xml:space="preserve" text-anchor="middle" x="46" y="-195.2" font-family="Consolas" font-size="14.00">step3</text>
<polyline fill="none" stroke="#27ae60" stroke-width="2" points="11,-190.25 81,-190.25"/>
<text xml:space="preserve" text-anchor="middle" x="46" y="-172.95" font-family="Consolas" font-size="14.00">节点: 3</text>
</g>
<!-- node2&#45;&#45;node3 -->
<g id="edge2" class="edge">
<title>node2&#45;&#45;node3</title>
<path fill="none" stroke="#8383cc" stroke-width="2" d="M124.77,-248.51C109.78,-237.47 91.88,-224.28 76.92,-213.27"/>
</g>
<!-- node5 -->
<g id="node5" class="node">
<title>node5</title>
<polygon fill="#abebc6" stroke="#27ae60" stroke-width="2" points="121,-166.5 121,-212.5 191,-212.5 191,-166.5 121,-166.5"/>
<text xml:space="preserve" text-anchor="middle" x="156" y="-195.2" font-family="Consolas" font-size="14.00">step5</text>
<polyline fill="none" stroke="#27ae60" stroke-width="2" points="121,-190.25 191,-190.25"/>
<text xml:space="preserve" text-anchor="middle" x="156" y="-172.95" font-family="Consolas" font-size="14.00">节点: 4</text>
</g>
<!-- node2&#45;&#45;node5 -->
<g id="edge4" class="edge">
<title>node2&#45;&#45;node5</title>
<path fill="none" stroke="#8383cc" stroke-width="2" d="M156,-248.51C156,-237.47 156,-224.28 156,-213.27"/>
</g>
<!-- node4 -->
<g id="node4" class="node">
<title>node4</title>
<polygon fill="#abebc6" stroke="#27ae60" stroke-width="2" points="0,-83.5 0,-129.5 70,-129.5 70,-83.5 0,-83.5"/>
<text xml:space="preserve" text-anchor="middle" x="35" y="-112.2" font-family="Consolas" font-size="14.00">step4</text>
<polyline fill="none" stroke="#27ae60" stroke-width="2" points="0,-107.25 70,-107.25"/>
<text xml:space="preserve" text-anchor="middle" x="35" y="-89.95" font-family="Consolas" font-size="14.00">节点: 6</text>
</g>
<!-- node3&#45;&#45;node4 -->
<g id="edge3" class="edge">
<title>node3&#45;&#45;node4</title>
<path fill="none" stroke="#8383cc" stroke-width="2" d="M42.88,-165.51C41.38,-154.47 39.59,-141.28 38.09,-130.27"/>
</g>
<!-- node6 -->
<g id="node6" class="node">
<title>node6</title>
<polygon fill="#abebc6" stroke="#27ae60" stroke-width="2" points="88,-83.5 88,-129.5 158,-129.5 158,-83.5 88,-83.5"/>
<text xml:space="preserve" text-anchor="middle" x="123" y="-112.2" font-family="Consolas" font-size="14.00">step6</text>
<polyline fill="none" stroke="#27ae60" stroke-width="2" points="88,-107.25 158,-107.25"/>
<text xml:space="preserve" text-anchor="middle" x="123" y="-89.95" font-family="Consolas" font-size="14.00">节点: 3</text>
</g>
<!-- node5&#45;&#45;node6 -->
<g id="edge5" class="edge">
<title>node5&#45;&#45;node6</title>
<path fill="none" stroke="#8383cc" stroke-width="2" d="M146.63,-165.51C142.13,-154.47 136.76,-141.28 132.28,-130.27"/>
</g>
<!-- node8 -->
<g id="node8" class="node">
<title>node8</title>
<polygon fill="#abebc6" stroke="#27ae60" stroke-width="2" points="176,-83.5 176,-129.5 246,-129.5 246,-83.5 176,-83.5"/>
<text xml:space="preserve" text-anchor="middle" x="211" y="-112.2" font-family="Consolas" font-size="14.00">step8</text>
<polyline fill="none" stroke="#27ae60" stroke-width="2" points="176,-107.25 246,-107.25"/>
<text xml:space="preserve" text-anchor="middle" x="211" y="-89.95" font-family="Consolas" font-size="14.00">节点: 6</text>
</g>
<!-- node5&#45;&#45;node8 -->
<g id="edge7" class="edge">
<title>node5&#45;&#45;node8</title>
<path fill="none" stroke="#8383cc" stroke-width="2" d="M171.61,-165.51C179.11,-154.47 188.06,-141.28 195.54,-130.27"/>
</g>
<!-- node7 -->
<g id="node7" class="node">
<title>node7</title>
<polygon fill="#abebc6" stroke="#27ae60" stroke-width="2" points="88,-0.5 88,-46.5 158,-46.5 158,-0.5 88,-0.5"/>
<text xml:space="preserve" text-anchor="middle" x="123" y="-29.2" font-family="Consolas" font-size="14.00">step7</text>
<polyline fill="none" stroke="#27ae60" stroke-width="2" points="88,-24.25 158,-24.25"/>
<text xml:space="preserve" text-anchor="middle" x="123" y="-6.95" font-family="Consolas" font-size="14.00">节点: 6</text>
</g>
<!-- node6&#45;&#45;node7 -->
<g id="edge6" class="edge">
<title>node6&#45;&#45;node7</title>
<path fill="none" stroke="#8383cc" stroke-width="2" d="M123,-82.51C123,-71.47 123,-58.28 123,-47.27"/>
</g>
<!-- node10 -->
<g id="node10" class="node">
<title>node10</title>
<polygon fill="#abebc6" stroke="#27ae60" stroke-width="2" points="253,-166.5 253,-212.5 323,-212.5 323,-166.5 253,-166.5"/>
<text xml:space="preserve" text-anchor="middle" x="288" y="-195.2" font-family="Consolas" font-size="14.00">step10</text>
<polyline fill="none" stroke="#27ae60" stroke-width="2" points="253,-190.25 323,-190.25"/>
<text xml:space="preserve" text-anchor="middle" x="288" y="-172.95" font-family="Consolas" font-size="14.00">节点: 3</text>
</g>
<!-- node9&#45;&#45;node10 -->
<g id="edge9" class="edge">
<title>node9&#45;&#45;node10</title>
<path fill="none" stroke="#8383cc" stroke-width="2" d="M319.51,-248.51C313.51,-237.47 306.35,-224.28 300.37,-213.27"/>
</g>
<!-- node12 -->
<g id="node12" class="node">
<title>node12</title>
<polygon fill="#abebc6" stroke="#27ae60" stroke-width="2" points="341,-166.5 341,-212.5 411,-212.5 411,-166.5 341,-166.5"/>
<text xml:space="preserve" text-anchor="middle" x="376" y="-195.2" font-family="Consolas" font-size="14.00">step12</text>
<polyline fill="none" stroke="#27ae60" stroke-width="2" points="341,-190.25 411,-190.25"/>
<text xml:space="preserve" text-anchor="middle" x="376" y="-172.95" font-family="Consolas" font-size="14.00">节点: 6</text>
</g>
<!-- node9&#45;&#45;node12 -->
<g id="edge11" class="edge">
<title>node9&#45;&#45;node12</title>
<path fill="none" stroke="#8383cc" stroke-width="2" d="M344.49,-248.51C350.49,-237.47 357.65,-224.28 363.63,-213.27"/>
</g>
<!-- node11 -->
<g id="node11" class="node">
<title>node11</title>
<polygon fill="#abebc6" stroke="#27ae60" stroke-width="2" points="264,-83.5 264,-129.5 334,-129.5 334,-83.5 264,-83.5"/>
<text xml:space="preserve" text-anchor="middle" x="299" y="-112.2" font-family="Consolas" font-size="14.00">step11</text>
<polyline fill="none" stroke="#27ae60" stroke-width="2" points="264,-107.25 334,-107.25"/>
<text xml:space="preserve" text-anchor="middle" x="299" y="-89.95" font-family="Consolas" font-size="14.00">节点: 6</text>
</g>
<!-- node10&#45;&#45;node11 -->
<g id="edge10" class="edge">
<title>node10&#45;&#45;node11</title>
<path fill="none" stroke="#8383cc" stroke-width="2" d="M291.12,-165.51C292.62,-154.47 294.41,-141.28 295.91,-130.27"/>
</g>
<!-- node14 -->
<g id="node14" class="node">
<title>node14</title>
<polygon fill="#abebc6" stroke="#27ae60" stroke-width="2" points="429,-166.5 429,-212.5 499,-212.5 499,-166.5 429,-166.5"/>
<text xml:space="preserve" text-anchor="middle" x="464" y="-195.2" font-family="Consolas" font-size="14.00">step14</text>
<polyline fill="none" stroke="#27ae60" stroke-width="2" points="429,-190.25 499,-190.25"/>
<text xml:space="preserve" text-anchor="middle" x="464" y="-172.95" font-family="Consolas" font-size="14.00">节点: 4</text>
</g>
<!-- node13&#45;&#45;node14 -->
<g id="edge13" class="edge">
<title>node13&#45;&#45;node14</title>
<path fill="none" stroke="#8383cc" stroke-width="2" d="M464,-248.51C464,-237.47 464,-224.28 464,-213.27"/>
</g>
<!-- node18 -->
<g id="node18" class="node">
<title>node18</title>
<polygon fill="#abebc6" stroke="#27ae60" stroke-width="2" points="517,-166.5 517,-212.5 587,-212.5 587,-166.5 517,-166.5"/>
<text xml:space="preserve" text-anchor="middle" x="552" y="-195.2" font-family="Consolas" font-size="14.00">step18</text>
<polyline fill="none" stroke="#27ae60" stroke-width="2" points="517,-190.25 587,-190.25"/>
<text xml:space="preserve" text-anchor="middle" x="552" y="-172.95" font-family="Consolas" font-size="14.00">节点: 6</text>
</g>
<!-- node13&#45;&#45;node18 -->
<g id="edge17" class="edge">
<title>node13&#45;&#45;node18</title>
<path fill="none" stroke="#8383cc" stroke-width="2" d="M488.98,-248.51C500.97,-237.47 515.3,-224.28 527.26,-213.27"/>
</g>
<!-- node15 -->
<g id="node15" class="node">
<title>node15</title>
<polygon fill="#abebc6" stroke="#27ae60" stroke-width="2" points="390,-83.5 390,-129.5 460,-129.5 460,-83.5 390,-83.5"/>
<text xml:space="preserve" text-anchor="middle" x="425" y="-112.2" font-family="Consolas" font-size="14.00">step15</text>
<polyline fill="none" stroke="#27ae60" stroke-width="2" points="390,-107.25 460,-107.25"/>
<text xml:space="preserve" text-anchor="middle" x="425" y="-89.95" font-family="Consolas" font-size="14.00">节点: 3</text>
</g>
<!-- node14&#45;&#45;node15 -->
<g id="edge14" class="edge">
<title>node14&#45;&#45;node15</title>
<path fill="none" stroke="#8383cc" stroke-width="2" d="M452.93,-165.51C447.61,-154.47 441.26,-141.28 435.96,-130.27"/>
</g>
<!-- node17 -->
<g id="node17" class="node">
<title>node17</title>
<polygon fill="#abebc6" stroke="#27ae60" stroke-width="2" points="478,-83.5 478,-129.5 548,-129.5 548,-83.5 478,-83.5"/>
<text xml:space="preserve" text-anchor="middle" x="513" y="-112.2" font-family="Consolas" font-size="14.00">step17</text>
<polyline fill="none" stroke="#27ae60" stroke-width="2" points="478,-107.25 548,-107.25"/>
<text xml:space="preserve" text-anchor="middle" x="513" y="-89.95" font-family="Consolas" font-size="14.00">节点: 6</text>
</g>
<!-- node14&#45;&#45;node17 -->
<g id="edge16" class="edge">
<title>node14&#45;&#45;node17</title>
<path fill="none" stroke="#8383cc" stroke-width="2" d="M477.91,-165.51C484.59,-154.47 492.56,-141.28 499.22,-130.27"/>
</g>
<!-- node16 -->
<g id="node16" class="node">
<title>node16</title>
<polygon fill="#abebc6" stroke="#27ae60" stroke-width="2" points="390,-0.5 390,-46.5 460,-46.5 460,-0.5 390,-0.5"/>
<text xml:space="preserve" text-anchor="middle" x="425" y="-29.2" font-family="Consolas" font-size="14.00">step16</text>
<polyline fill="none" stroke="#27ae60" stroke-width="2" points="390,-24.25 460,-24.25"/>
<text xml:space="preserve" text-anchor="middle" x="425" y="-6.95" font-family="Consolas" font-size="14.00">节点: 6</text>
</g>
<!-- node15&#45;&#45;node16 -->
<g id="edge15" class="edge">
<title>node15&#45;&#45;node16</title>
<path fill="none" stroke="#8383cc" stroke-width="2" d="M425,-82.51C425,-71.47 425,-58.28 425,-47.27"/>
</g>
</g>
</svg>
