<?xml version="1.0" encoding="UTF-8" standalone="no"?>
<!DOCTYPE svg PUBLIC "-//W3C//DTD SVG 1.1//EN"
 "http://www.w3.org/Graphics/SVG/1.1/DTD/svg11.dtd">
<!-- Generated by graphviz version 13.0.1 (20250615.1724)
 -->
<!-- Title: G Pages: 1 -->
<svg width="606pt" height="387pt"
 viewBox="0.00 0.00 606.00 387.00" xmlns="http://www.w3.org/2000/svg" xmlns:xlink="http://www.w3.org/1999/xlink">
<g id="graph0" class="graph" transform="scale(1 1) rotate(0) translate(4 383)">
<title>G</title>
<polygon fill="white" stroke="none" points="-4,4 -4,-383 602,-383 602,4 -4,4"/>
<!-- node1 -->
<g id="node1" class="node">
<title>node1</title>
<polygon fill="#e8daef" stroke="#8e44ad" stroke-width="2" points="264,-332.5 264,-378.5 334,-378.5 334,-332.5 264,-332.5"/>
<text xml:space="preserve" text-anchor="middle" x="299" y="-361.2" font-family="Consolas" font-size="14.00">step1</text>
<polyline fill="none" stroke="#8e44ad" stroke-width="2" points="264,-356.25 334,-356.25"/>
<text xml:space="preserve" text-anchor="middle" x="299" y="-338.95" font-family="Consolas" font-size="14.00">节点: 1</text>
</g>
<!-- node2 -->
<g id="node2" class="node">
<title>node2</title>
<polygon fill="#e8daef" stroke="#8e44ad" stroke-width="2" points="132,-249.5 132,-295.5 202,-295.5 202,-249.5 132,-249.5"/>
<text xml:space="preserve" text-anchor="middle" x="167" y="-278.2" font-family="Consolas" font-size="14.00">step2</text>
<polyline fill="none" stroke="#8e44ad" stroke-width="2" points="132,-273.25 202,-273.25"/>
<text xml:space="preserve" text-anchor="middle" x="167" y="-255.95" font-family="Consolas" font-size="14.00">节点: 5</text>
</g>
<!-- node1&#45;&#45;node2 -->
<g id="edge1" class="edge">
<title>node1&#45;&#45;node2</title>
<path fill="none" stroke="#8383cc" stroke-width="2" d="M263.28,-332.58C244.5,-321.05 221.54,-306.97 202.75,-295.44"/>
</g>
<!-- node8 -->
<g id="node8" class="node">
<title>node8</title>
<polygon fill="#e8daef" stroke="#8e44ad" stroke-width="2" points="264,-249.5 264,-295.5 334,-295.5 334,-249.5 264,-249.5"/>
<text xml:space="preserve" text-anchor="middle" x="299" y="-278.2" font-family="Consolas" font-size="14.00">step8</text>
<polyline fill="none" stroke="#8e44ad" stroke-width="2" points="264,-273.25 334,-273.25"/>
<text xml:space="preserve" text-anchor="middle" x="299" y="-255.95" font-family="Consolas" font-size="14.00">节点: 4</text>
</g>
<!-- node1&#45;&#45;node8 -->
<g id="edge7" class="edge">
<title>node1&#45;&#45;node8</title>
<path fill="none" stroke="#8383cc" stroke-width="2" d="M299,-331.51C299,-320.47 299,-307.28 299,-296.27"/>
</g>
<!-- node12 -->
<g id="node12" class="node">
<title>node12</title>
<polygon fill="#e8daef" stroke="#8e44ad" stroke-width="2" points="396,-249.5 396,-295.5 466,-295.5 466,-249.5 396,-249.5"/>
<text xml:space="preserve" text-anchor="middle" x="431" y="-278.2" font-family="Consolas" font-size="14.00">step12</text>
<polyline fill="none" stroke="#8e44ad" stroke-width="2" points="396,-273.25 466,-273.25"/>
<text xml:space="preserve" text-anchor="middle" x="431" y="-255.95" font-family="Consolas" font-size="14.00">节点: 2</text>
</g>
<!-- node1&#45;&#45;node12 -->
<g id="edge11" class="edge">
<title>node1&#45;&#45;node12</title>
<path fill="none" stroke="#8383cc" stroke-width="2" d="M334.72,-332.58C353.5,-321.05 376.46,-306.97 395.25,-295.44"/>
</g>
<!-- node3 -->
<g id="node3" class="node">
<title>node3</title>
<polygon fill="#e8daef" stroke="#8e44ad" stroke-width="2" points="44,-166.5 44,-212.5 114,-212.5 114,-166.5 44,-166.5"/>
<text xml:space="preserve" text-anchor="middle" x="79" y="-195.2" font-family="Consolas" font-size="14.00">step3</text>
<polyline fill="none" stroke="#8e44ad" stroke-width="2" points="44,-190.25 114,-190.25"/>
<text xml:space="preserve" text-anchor="middle" x="79" y="-172.95" font-family="Consolas" font-size="14.00">节点: 4</text>
</g>
<!-- node2&#45;&#45;node3 -->
<g id="edge2" class="edge">
<title>node2&#45;&#45;node3</title>
<path fill="none" stroke="#8383cc" stroke-width="2" d="M142.02,-248.51C130.03,-237.47 115.7,-224.28 103.74,-213.27"/>
</g>
<!-- node7 -->
<g id="node7" class="node">
<title>node7</title>
<polygon fill="#e8daef" stroke="#8e44ad" stroke-width="2" points="132,-166.5 132,-212.5 202,-212.5 202,-166.5 132,-166.5"/>
<text xml:space="preserve" text-anchor="middle" x="167" y="-195.2" font-family="Consolas" font-size="14.00">step7</text>
<polyline fill="none" stroke="#8e44ad" stroke-width="2" points="132,-190.25 202,-190.25"/>
<text xml:space="preserve" text-anchor="middle" x="167" y="-172.95" font-family="Consolas" font-size="14.00">节点: 6</text>
</g>
<!-- node2&#45;&#45;node7 -->
<g id="edge6" class="edge">
<title>node2&#45;&#45;node7</title>
<path fill="none" stroke="#8383cc" stroke-width="2" d="M167,-248.51C167,-237.47 167,-224.28 167,-213.27"/>
</g>
<!-- node4 -->
<g id="node4" class="node">
<title>node4</title>
<polygon fill="#e8daef" stroke="#8e44ad" stroke-width="2" points="0,-83.5 0,-129.5 70,-129.5 70,-83.5 0,-83.5"/>
<text xml:space="preserve" text-anchor="middle" x="35" y="-112.2" font-family="Consolas" font-size="14.00">step4</text>
<polyline fill="none" stroke="#8e44ad" stroke-width="2" points="0,-107.25 70,-107.25"/>
<text xml:space="preserve" text-anchor="middle" x="35" y="-89.95" font-family="Consolas" font-size="14.00">节点: 6</text>
</g>
<!-- node3&#45;&#45;node4 -->
<g id="edge3" class="edge">
<title>node3&#45;&#45;node4</title>
<path fill="none" stroke="#8383cc" stroke-width="2" d="M66.51,-165.51C60.51,-154.47 53.35,-141.28 47.37,-130.27"/>
</g>
<!-- node5 -->
<g id="node5" class="node">
<title>node5</title>
<polygon fill="#e8daef" stroke="#8e44ad" stroke-width="2" points="88,-83.5 88,-129.5 158,-129.5 158,-83.5 88,-83.5"/>
<text xml:space="preserve" text-anchor="middle" x="123" y="-112.2" font-family="Consolas" font-size="14.00">step5</text>
<polyline fill="none" stroke="#8e44ad" stroke-width="2" points="88,-107.25 158,-107.25"/>
<text xml:space="preserve" text-anchor="middle" x="123" y="-89.95" font-family="Consolas" font-size="14.00">节点: 3</text>
</g>
<!-- node3&#45;&#45;node5 -->
<g id="edge4" class="edge">
<title>node3&#45;&#45;node5</title>
<path fill="none" stroke="#8383cc" stroke-width="2" d="M91.49,-165.51C97.49,-154.47 104.65,-141.28 110.63,-130.27"/>
</g>
<!-- node6 -->
<g id="node6" class="node">
<title>node6</title>
<polygon fill="#e8daef" stroke="#8e44ad" stroke-width="2" points="88,-0.5 88,-46.5 158,-46.5 158,-0.5 88,-0.5"/>
<text xml:space="preserve" text-anchor="middle" x="123" y="-29.2" font-family="Consolas" font-size="14.00">step6</text>
<polyline fill="none" stroke="#8e44ad" stroke-width="2" points="88,-24.25 158,-24.25"/>
<text xml:space="preserve" text-anchor="middle" x="123" y="-6.95" font-family="Consolas" font-size="14.00">节点: 6</text>
</g>
<!-- node5&#45;&#45;node6 -->
<g id="edge5" class="edge">
<title>node5&#45;&#45;node6</title>
<path fill="none" stroke="#8383cc" stroke-width="2" d="M123,-82.51C123,-71.47 123,-58.28 123,-47.27"/>
</g>
<!-- node9 -->
<g id="node9" class="node">
<title>node9</title>
<polygon fill="#e8daef" stroke="#8e44ad" stroke-width="2" points="220,-166.5 220,-212.5 290,-212.5 290,-166.5 220,-166.5"/>
<text xml:space="preserve" text-anchor="middle" x="255" y="-195.2" font-family="Consolas" font-size="14.00">step9</text>
<polyline fill="none" stroke="#8e44ad" stroke-width="2" points="220,-190.25 290,-190.25"/>
<text xml:space="preserve" text-anchor="middle" x="255" y="-172.95" font-family="Consolas" font-size="14.00">节点: 6</text>
</g>
<!-- node8&#45;&#45;node9 -->
<g id="edge8" class="edge">
<title>node8&#45;&#45;node9</title>
<path fill="none" stroke="#8383cc" stroke-width="2" d="M286.51,-248.51C280.51,-237.47 273.35,-224.28 267.37,-213.27"/>
</g>
<!-- node10 -->
<g id="node10" class="node">
<title>node10</title>
<polygon fill="#e8daef" stroke="#8e44ad" stroke-width="2" points="308,-166.5 308,-212.5 378,-212.5 378,-166.5 308,-166.5"/>
<text xml:space="preserve" text-anchor="middle" x="343" y="-195.2" font-family="Consolas" font-size="14.00">step10</text>
<polyline fill="none" stroke="#8e44ad" stroke-width="2" points="308,-190.25 378,-190.25"/>
<text xml:space="preserve" text-anchor="middle" x="343" y="-172.95" font-family="Consolas" font-size="14.00">节点: 3</text>
</g>
<!-- node8&#45;&#45;node10 -->
<g id="edge9" class="edge">
<title>node8&#45;&#45;node10</title>
<path fill="none" stroke="#8383cc" stroke-width="2" d="M311.49,-248.51C317.49,-237.47 324.65,-224.28 330.63,-213.27"/>
</g>
<!-- node11 -->
<g id="node11" class="node">
<title>node11</title>
<polygon fill="#e8daef" stroke="#8e44ad" stroke-width="2" points="264,-83.5 264,-129.5 334,-129.5 334,-83.5 264,-83.5"/>
<text xml:space="preserve" text-anchor="middle" x="299" y="-112.2" font-family="Consolas" font-size="14.00">step11</text>
<polyline fill="none" stroke="#8e44ad" stroke-width="2" points="264,-107.25 334,-107.25"/>
<text xml:space="preserve" text-anchor="middle" x="299" y="-89.95" font-family="Consolas" font-size="14.00">节点: 6</text>
</g>
<!-- node10&#45;&#45;node11 -->
<g id="edge10" class="edge">
<title>node10&#45;&#45;node11</title>
<path fill="none" stroke="#8383cc" stroke-width="2" d="M330.51,-165.51C324.51,-154.47 317.35,-141.28 311.37,-130.27"/>
</g>
<!-- node13 -->
<g id="node13" class="node">
<title>node13</title>
<polygon fill="#e8daef" stroke="#8e44ad" stroke-width="2" points="396,-166.5 396,-212.5 466,-212.5 466,-166.5 396,-166.5"/>
<text xml:space="preserve" text-anchor="middle" x="431" y="-195.2" font-family="Consolas" font-size="14.00">step13</text>
<polyline fill="none" stroke="#8e44ad" stroke-width="2" points="396,-190.25 466,-190.25"/>
<text xml:space="preserve" text-anchor="middle" x="431" y="-172.95" font-family="Consolas" font-size="14.00">节点: 4</text>
</g>
<!-- node12&#45;&#45;node13 -->
<g id="edge12" class="edge">
<title>node12&#45;&#45;node13</title>
<path fill="none" stroke="#8383cc" stroke-width="2" d="M431,-248.51C431,-237.47 431,-224.28 431,-213.27"/>
</g>
<!-- node17 -->
<g id="node17" class="node">
<title>node17</title>
<polygon fill="#e8daef" stroke="#8e44ad" stroke-width="2" points="484,-166.5 484,-212.5 554,-212.5 554,-166.5 484,-166.5"/>
<text xml:space="preserve" text-anchor="middle" x="519" y="-195.2" font-family="Consolas" font-size="14.00">step17</text>
<polyline fill="none" stroke="#8e44ad" stroke-width="2" points="484,-190.25 554,-190.25"/>
<text xml:space="preserve" text-anchor="middle" x="519" y="-172.95" font-family="Consolas" font-size="14.00">节点: 3</text>
</g>
<!-- node12&#45;&#45;node17 -->
<g id="edge16" class="edge">
<title>node12&#45;&#45;node17</title>
<path fill="none" stroke="#8383cc" stroke-width="2" d="M455.98,-248.51C467.97,-237.47 482.3,-224.28 494.26,-213.27"/>
</g>
<!-- node14 -->
<g id="node14" class="node">
<title>node14</title>
<polygon fill="#e8daef" stroke="#8e44ad" stroke-width="2" points="352,-83.5 352,-129.5 422,-129.5 422,-83.5 352,-83.5"/>
<text xml:space="preserve" text-anchor="middle" x="387" y="-112.2" font-family="Consolas" font-size="14.00">step14</text>
<polyline fill="none" stroke="#8e44ad" stroke-width="2" points="352,-107.25 422,-107.25"/>
<text xml:space="preserve" text-anchor="middle" x="387" y="-89.95" font-family="Consolas" font-size="14.00">节点: 6</text>
</g>
<!-- node13&#45;&#45;node14 -->
<g id="edge13" class="edge">
<title>node13&#45;&#45;node14</title>
<path fill="none" stroke="#8383cc" stroke-width="2" d="M418.51,-165.51C412.51,-154.47 405.35,-141.28 399.37,-130.27"/>
</g>
<!-- node15 -->
<g id="node15" class="node">
<title>node15</title>
<polygon fill="#e8daef" stroke="#8e44ad" stroke-width="2" points="440,-83.5 440,-129.5 510,-129.5 510,-83.5 440,-83.5"/>
<text xml:space="preserve" text-anchor="middle" x="475" y="-112.2" font-family="Consolas" font-size="14.00">step15</text>
<polyline fill="none" stroke="#8e44ad" stroke-width="2" points="440,-107.25 510,-107.25"/>
<text xml:space="preserve" text-anchor="middle" x="475" y="-89.95" font-family="Consolas" font-size="14.00">节点: 3</text>
</g>
<!-- node13&#45;&#45;node15 -->
<g id="edge14" class="edge">
<title>node13&#45;&#45;node15</title>
<path fill="none" stroke="#8383cc" stroke-width="2" d="M443.49,-165.51C449.49,-154.47 456.65,-141.28 462.63,-130.27"/>
</g>
<!-- node16 -->
<g id="node16" class="node">
<title>node16</title>
<polygon fill="#e8daef" stroke="#8e44ad" stroke-width="2" points="440,-0.5 440,-46.5 510,-46.5 510,-0.5 440,-0.5"/>
<text xml:space="preserve" text-anchor="middle" x="475" y="-29.2" font-family="Consolas" font-size="14.00">step16</text>
<polyline fill="none" stroke="#8e44ad" stroke-width="2" points="440,-24.25 510,-24.25"/>
<text xml:space="preserve" text-anchor="middle" x="475" y="-6.95" font-family="Consolas" font-size="14.00">节点: 6</text>
</g>
<!-- node15&#45;&#45;node16 -->
<g id="edge15" class="edge">
<title>node15&#45;&#45;node16</title>
<path fill="none" stroke="#8383cc" stroke-width="2" d="M475,-82.51C475,-71.47 475,-58.28 475,-47.27"/>
</g>
<!-- node18 -->
<g id="node18" class="node">
<title>node18</title>
<polygon fill="#e8daef" stroke="#8e44ad" stroke-width="2" points="528,-83.5 528,-129.5 598,-129.5 598,-83.5 528,-83.5"/>
<text xml:space="preserve" text-anchor="middle" x="563" y="-112.2" font-family="Consolas" font-size="14.00">step18</text>
<polyline fill="none" stroke="#8e44ad" stroke-width="2" points="528,-107.25 598,-107.25"/>
<text xml:space="preserve" text-anchor="middle" x="563" y="-89.95" font-family="Consolas" font-size="14.00">节点: 6</text>
</g>
<!-- node17&#45;&#45;node18 -->
<g id="edge17" class="edge">
<title>node17&#45;&#45;node18</title>
<path fill="none" stroke="#8383cc" stroke-width="2" d="M531.49,-165.51C537.49,-154.47 544.65,-141.28 550.63,-130.27"/>
</g>
</g>
</svg>
