<?xml version="1.0" encoding="UTF-8" standalone="no"?>
<!DOCTYPE svg PUBLIC "-//W3C//DTD SVG 1.1//EN"
 "http://www.w3.org/Graphics/SVG/1.1/DTD/svg11.dtd">
<!-- Generated by graphviz version 13.0.1 (20250615.1724)
 -->
<!-- Title: G Pages: 1 -->
<svg width="2124pt" height="387pt"
 viewBox="0.00 0.00 2124.00 387.00" xmlns="http://www.w3.org/2000/svg" xmlns:xlink="http://www.w3.org/1999/xlink">
<g id="graph0" class="graph" transform="scale(1 1) rotate(0) translate(4 383)">
<title>G</title>
<polygon fill="white" stroke="none" points="-4,4 -4,-383 2120,-383 2120,4 -4,4"/>
<!-- node1 -->
<g id="node1" class="node">
<title>node1</title>
<polygon fill="#b2d3e4" stroke="#8383cc" stroke-width="2" points="1188,-332.5 1188,-378.5 1258,-378.5 1258,-332.5 1188,-332.5"/>
<text xml:space="preserve" text-anchor="middle" x="1223" y="-361.2" font-family="Consolas" font-size="14.00">step1</text>
<polyline fill="none" stroke="#8383cc" stroke-width="2" points="1188,-356.25 1258,-356.25"/>
<text xml:space="preserve" text-anchor="middle" x="1223" y="-338.95" font-family="Consolas" font-size="14.00">节点: 1</text>
</g>
<!-- node2 -->
<g id="node2" class="node">
<title>node2</title>
<polygon fill="#b2d3e4" stroke="#8383cc" stroke-width="2" points="660,-249.5 660,-295.5 730,-295.5 730,-249.5 660,-249.5"/>
<text xml:space="preserve" text-anchor="middle" x="695" y="-278.2" font-family="Consolas" font-size="14.00">step2</text>
<polyline fill="none" stroke="#8383cc" stroke-width="2" points="660,-273.25 730,-273.25"/>
<text xml:space="preserve" text-anchor="middle" x="695" y="-255.95" font-family="Consolas" font-size="14.00">节点: 1</text>
</g>
<!-- node1&#45;&#45;node2 -->
<g id="edge1" class="edge">
<title>node1&#45;&#45;node2</title>
<path fill="none" stroke="#8383cc" stroke-width="2" d="M1187.2,-354.43C1105.75,-353.36 901.1,-345.52 739,-296 736.21,-295.15 733.39,-294.12 730.58,-292.99"/>
</g>
<!-- node3 -->
<g id="node3" class="node">
<title>node3</title>
<polygon fill="#f5b7b1" stroke="#c0392b" stroke-width="2" points="748,-249.5 748,-295.5 818,-295.5 818,-249.5 748,-249.5"/>
<text xml:space="preserve" text-anchor="middle" x="783" y="-278.2" font-family="Consolas" font-size="14.00">step3</text>
<polyline fill="none" stroke="#c0392b" stroke-width="2" points="748,-273.25 818,-273.25"/>
<text xml:space="preserve" text-anchor="middle" x="783" y="-255.95" font-family="Consolas" font-size="14.00">节点: 2</text>
</g>
<!-- node1&#45;&#45;node3 -->
<g id="edge2" class="edge">
<title>node1&#45;&#45;node3</title>
<path fill="none" stroke="#8383cc" stroke-width="2" d="M1187.37,-347.94C1104.92,-332.76 901.74,-295.36 818.97,-280.12"/>
</g>
<!-- node28 -->
<g id="node28" class="node">
<title>node28</title>
<polygon fill="#b2d3e4" stroke="#8383cc" stroke-width="2" points="1144,-249.5 1144,-295.5 1214,-295.5 1214,-249.5 1144,-249.5"/>
<text xml:space="preserve" text-anchor="middle" x="1179" y="-278.2" font-family="Consolas" font-size="14.00">step28</text>
<polyline fill="none" stroke="#8383cc" stroke-width="2" points="1144,-273.25 1214,-273.25"/>
<text xml:space="preserve" text-anchor="middle" x="1179" y="-255.95" font-family="Consolas" font-size="14.00">节点: 3</text>
</g>
<!-- node1&#45;&#45;node28 -->
<g id="edge27" class="edge">
<title>node1&#45;&#45;node28</title>
<path fill="none" stroke="#8383cc" stroke-width="2" d="M1210.51,-331.51C1204.51,-320.47 1197.35,-307.28 1191.37,-296.27"/>
</g>
<!-- node29 -->
<g id="node29" class="node">
<title>node29</title>
<polygon fill="#f5b7b1" stroke="#c0392b" stroke-width="2" points="1232,-249.5 1232,-295.5 1302,-295.5 1302,-249.5 1232,-249.5"/>
<text xml:space="preserve" text-anchor="middle" x="1267" y="-278.2" font-family="Consolas" font-size="14.00">step29</text>
<polyline fill="none" stroke="#c0392b" stroke-width="2" points="1232,-273.25 1302,-273.25"/>
<text xml:space="preserve" text-anchor="middle" x="1267" y="-255.95" font-family="Consolas" font-size="14.00">节点: 4</text>
</g>
<!-- node1&#45;&#45;node29 -->
<g id="edge28" class="edge">
<title>node1&#45;&#45;node29</title>
<path fill="none" stroke="#8383cc" stroke-width="2" d="M1235.49,-331.51C1241.49,-320.47 1248.65,-307.28 1254.63,-296.27"/>
</g>
<!-- node42 -->
<g id="node42" class="node">
<title>node42</title>
<polygon fill="#f5b7b1" stroke="#c0392b" stroke-width="2" points="1672,-249.5 1672,-295.5 1742,-295.5 1742,-249.5 1672,-249.5"/>
<text xml:space="preserve" text-anchor="middle" x="1707" y="-278.2" font-family="Consolas" font-size="14.00">step42</text>
<polyline fill="none" stroke="#c0392b" stroke-width="2" points="1672,-273.25 1742,-273.25"/>
<text xml:space="preserve" text-anchor="middle" x="1707" y="-255.95" font-family="Consolas" font-size="14.00">节点: 5</text>
</g>
<!-- node1&#45;&#45;node42 -->
<g id="edge41" class="edge">
<title>node1&#45;&#45;node42</title>
<path fill="none" stroke="#8383cc" stroke-width="2" d="M1258.98,-348.48C1348.7,-333.46 1581.49,-294.5 1671.11,-279.51"/>
</g>
<!-- node61 -->
<g id="node61" class="node">
<title>node61</title>
<polygon fill="#b2d3e4" stroke="#8383cc" stroke-width="2" points="1760,-249.5 1760,-295.5 1830,-295.5 1830,-249.5 1760,-249.5"/>
<text xml:space="preserve" text-anchor="middle" x="1795" y="-278.2" font-family="Consolas" font-size="14.00">step61</text>
<polyline fill="none" stroke="#8383cc" stroke-width="2" points="1760,-273.25 1830,-273.25"/>
<text xml:space="preserve" text-anchor="middle" x="1795" y="-255.95" font-family="Consolas" font-size="14.00">节点: 6</text>
</g>
<!-- node1&#45;&#45;node61 -->
<g id="edge60" class="edge">
<title>node1&#45;&#45;node61</title>
<path fill="none" stroke="#8383cc" stroke-width="2" d="M1258.78,-354.94C1345.3,-355.05 1571.9,-349.74 1751,-296 1753.79,-295.16 1756.62,-294.15 1759.43,-293.02"/>
</g>
<!-- node4 -->
<g id="node4" class="node">
<title>node4</title>
<polygon fill="#b2d3e4" stroke="#8383cc" stroke-width="2" points="176,-166.5 176,-212.5 246,-212.5 246,-166.5 176,-166.5"/>
<text xml:space="preserve" text-anchor="middle" x="211" y="-195.2" font-family="Consolas" font-size="14.00">step4</text>
<polyline fill="none" stroke="#8383cc" stroke-width="2" points="176,-190.25 246,-190.25"/>
<text xml:space="preserve" text-anchor="middle" x="211" y="-172.95" font-family="Consolas" font-size="14.00">节点: 1</text>
</g>
<!-- node3&#45;&#45;node4 -->
<g id="edge3" class="edge">
<title>node3&#45;&#45;node4</title>
<path fill="none" stroke="#8383cc" stroke-width="2" d="M747.46,-251.86C744.65,-250.76 741.81,-249.79 739,-249 531.31,-190.74 462.69,-271.26 255,-213 252.19,-212.21 249.35,-211.24 246.54,-210.14"/>
</g>
<!-- node5 -->
<g id="node5" class="node">
<title>node5</title>
<polygon fill="#b2d3e4" stroke="#8383cc" stroke-width="2" points="264,-166.5 264,-212.5 334,-212.5 334,-166.5 264,-166.5"/>
<text xml:space="preserve" text-anchor="middle" x="299" y="-195.2" font-family="Consolas" font-size="14.00">step5</text>
<polyline fill="none" stroke="#8383cc" stroke-width="2" points="264,-190.25 334,-190.25"/>
<text xml:space="preserve" text-anchor="middle" x="299" y="-172.95" font-family="Consolas" font-size="14.00">节点: 2</text>
</g>
<!-- node3&#45;&#45;node5 -->
<g id="edge4" class="edge">
<title>node3&#45;&#45;node5</title>
<path fill="none" stroke="#8383cc" stroke-width="2" d="M747.44,-251.91C744.64,-250.8 741.8,-249.81 739,-249 569.24,-199.88 512.76,-262.12 343,-213 340.2,-212.19 337.36,-211.2 334.56,-210.09"/>
</g>
<!-- node6 -->
<g id="node6" class="node">
<title>node6</title>
<polygon fill="#f5b7b1" stroke="#c0392b" stroke-width="2" points="352,-166.5 352,-212.5 422,-212.5 422,-166.5 352,-166.5"/>
<text xml:space="preserve" text-anchor="middle" x="387" y="-195.2" font-family="Consolas" font-size="14.00">step6</text>
<polyline fill="none" stroke="#c0392b" stroke-width="2" points="352,-190.25 422,-190.25"/>
<text xml:space="preserve" text-anchor="middle" x="387" y="-172.95" font-family="Consolas" font-size="14.00">节点: 3</text>
</g>
<!-- node3&#45;&#45;node6 -->
<g id="edge5" class="edge">
<title>node3&#45;&#45;node6</title>
<path fill="none" stroke="#8383cc" stroke-width="2" d="M747.37,-252.15C744.58,-250.98 741.77,-249.91 739,-249 627.22,-212.12 487.47,-197.76 422.84,-192.81"/>
</g>
<!-- node13 -->
<g id="node13" class="node">
<title>node13</title>
<polygon fill="#f5b7b1" stroke="#c0392b" stroke-width="2" points="704,-166.5 704,-212.5 774,-212.5 774,-166.5 704,-166.5"/>
<text xml:space="preserve" text-anchor="middle" x="739" y="-195.2" font-family="Consolas" font-size="14.00">step13</text>
<polyline fill="none" stroke="#c0392b" stroke-width="2" points="704,-190.25 774,-190.25"/>
<text xml:space="preserve" text-anchor="middle" x="739" y="-172.95" font-family="Consolas" font-size="14.00">节点: 4</text>
</g>
<!-- node3&#45;&#45;node13 -->
<g id="edge12" class="edge">
<title>node3&#45;&#45;node13</title>
<path fill="none" stroke="#8383cc" stroke-width="2" d="M770.51,-248.51C764.51,-237.47 757.35,-224.28 751.37,-213.27"/>
</g>
<!-- node26 -->
<g id="node26" class="node">
<title>node26</title>
<polygon fill="#b2d3e4" stroke="#8383cc" stroke-width="2" points="792,-166.5 792,-212.5 862,-212.5 862,-166.5 792,-166.5"/>
<text xml:space="preserve" text-anchor="middle" x="827" y="-195.2" font-family="Consolas" font-size="14.00">step26</text>
<polyline fill="none" stroke="#8383cc" stroke-width="2" points="792,-190.25 862,-190.25"/>
<text xml:space="preserve" text-anchor="middle" x="827" y="-172.95" font-family="Consolas" font-size="14.00">节点: 5</text>
</g>
<!-- node3&#45;&#45;node26 -->
<g id="edge25" class="edge">
<title>node3&#45;&#45;node26</title>
<path fill="none" stroke="#8383cc" stroke-width="2" d="M795.49,-248.51C801.49,-237.47 808.65,-224.28 814.63,-213.27"/>
</g>
<!-- node27 -->
<g id="node27" class="node">
<title>node27</title>
<polygon fill="#b2d3e4" stroke="#8383cc" stroke-width="2" points="880,-166.5 880,-212.5 950,-212.5 950,-166.5 880,-166.5"/>
<text xml:space="preserve" text-anchor="middle" x="915" y="-195.2" font-family="Consolas" font-size="14.00">step27</text>
<polyline fill="none" stroke="#8383cc" stroke-width="2" points="880,-190.25 950,-190.25"/>
<text xml:space="preserve" text-anchor="middle" x="915" y="-172.95" font-family="Consolas" font-size="14.00">节点: 6</text>
</g>
<!-- node3&#45;&#45;node27 -->
<g id="edge26" class="edge">
<title>node3&#45;&#45;node27</title>
<path fill="none" stroke="#8383cc" stroke-width="2" d="M818.72,-249.58C837.5,-238.05 860.46,-223.97 879.25,-212.44"/>
</g>
<!-- node7 -->
<g id="node7" class="node">
<title>node7</title>
<polygon fill="#b2d3e4" stroke="#8383cc" stroke-width="2" points="0,-83.5 0,-129.5 70,-129.5 70,-83.5 0,-83.5"/>
<text xml:space="preserve" text-anchor="middle" x="35" y="-112.2" font-family="Consolas" font-size="14.00">step7</text>
<polyline fill="none" stroke="#8383cc" stroke-width="2" points="0,-107.25 70,-107.25"/>
<text xml:space="preserve" text-anchor="middle" x="35" y="-89.95" font-family="Consolas" font-size="14.00">节点: 1</text>
</g>
<!-- node6&#45;&#45;node7 -->
<g id="edge6" class="edge">
<title>node6&#45;&#45;node7</title>
<path fill="none" stroke="#8383cc" stroke-width="2" d="M351.4,-169.06C348.6,-167.91 345.78,-166.87 343,-166 230.01,-130.54 191.99,-165.46 79,-130 76.22,-129.13 73.4,-128.09 70.6,-126.94"/>
</g>
<!-- node8 -->
<g id="node8" class="node">
<title>node8</title>
<polygon fill="#b2d3e4" stroke="#8383cc" stroke-width="2" points="88,-83.5 88,-129.5 158,-129.5 158,-83.5 88,-83.5"/>
<text xml:space="preserve" text-anchor="middle" x="123" y="-112.2" font-family="Consolas" font-size="14.00">step8</text>
<polyline fill="none" stroke="#8383cc" stroke-width="2" points="88,-107.25 158,-107.25"/>
<text xml:space="preserve" text-anchor="middle" x="123" y="-89.95" font-family="Consolas" font-size="14.00">节点: 2</text>
</g>
<!-- node6&#45;&#45;node8 -->
<g id="edge7" class="edge">
<title>node6&#45;&#45;node8</title>
<path fill="none" stroke="#8383cc" stroke-width="2" d="M351.33,-169.26C348.55,-168.07 345.75,-166.97 343,-166 267.66,-139.58 242.34,-156.42 167,-130 164.25,-129.03 161.45,-127.93 158.67,-126.74"/>
</g>
<!-- node9 -->
<g id="node9" class="node">
<title>node9</title>
<polygon fill="#b2d3e4" stroke="#8383cc" stroke-width="2" points="176,-83.5 176,-129.5 246,-129.5 246,-83.5 176,-83.5"/>
<text xml:space="preserve" text-anchor="middle" x="211" y="-112.2" font-family="Consolas" font-size="14.00">step9</text>
<polyline fill="none" stroke="#8383cc" stroke-width="2" points="176,-107.25 246,-107.25"/>
<text xml:space="preserve" text-anchor="middle" x="211" y="-89.95" font-family="Consolas" font-size="14.00">节点: 3</text>
</g>
<!-- node6&#45;&#45;node9 -->
<g id="edge8" class="edge">
<title>node6&#45;&#45;node9</title>
<path fill="none" stroke="#8383cc" stroke-width="2" d="M351.1,-169.83C348.37,-168.51 345.65,-167.22 343,-166 304.6,-148.36 293.4,-147.64 255,-130 252.35,-128.78 249.63,-127.49 246.9,-126.17"/>
</g>
<!-- node10 -->
<g id="node10" class="node">
<title>node10</title>
<polygon fill="#b2d3e4" stroke="#8383cc" stroke-width="2" points="264,-83.5 264,-129.5 334,-129.5 334,-83.5 264,-83.5"/>
<text xml:space="preserve" text-anchor="middle" x="299" y="-112.2" font-family="Consolas" font-size="14.00">step10</text>
<polyline fill="none" stroke="#8383cc" stroke-width="2" points="264,-107.25 334,-107.25"/>
<text xml:space="preserve" text-anchor="middle" x="299" y="-89.95" font-family="Consolas" font-size="14.00">节点: 4</text>
</g>
<!-- node6&#45;&#45;node10 -->
<g id="edge9" class="edge">
<title>node6&#45;&#45;node10</title>
<path fill="none" stroke="#8383cc" stroke-width="2" d="M362.02,-165.51C350.03,-154.47 335.7,-141.28 323.74,-130.27"/>
</g>
<!-- node11 -->
<g id="node11" class="node">
<title>node11</title>
<polygon fill="#b2d3e4" stroke="#8383cc" stroke-width="2" points="352,-83.5 352,-129.5 422,-129.5 422,-83.5 352,-83.5"/>
<text xml:space="preserve" text-anchor="middle" x="387" y="-112.2" font-family="Consolas" font-size="14.00">step11</text>
<polyline fill="none" stroke="#8383cc" stroke-width="2" points="352,-107.25 422,-107.25"/>
<text xml:space="preserve" text-anchor="middle" x="387" y="-89.95" font-family="Consolas" font-size="14.00">节点: 5</text>
</g>
<!-- node6&#45;&#45;node11 -->
<g id="edge10" class="edge">
<title>node6&#45;&#45;node11</title>
<path fill="none" stroke="#8383cc" stroke-width="2" d="M387,-165.51C387,-154.47 387,-141.28 387,-130.27"/>
</g>
<!-- node12 -->
<g id="node12" class="node">
<title>node12</title>
<polygon fill="#f5b7b1" stroke="#c0392b" stroke-width="2" points="440,-83.5 440,-129.5 510,-129.5 510,-83.5 440,-83.5"/>
<text xml:space="preserve" text-anchor="middle" x="475" y="-112.2" font-family="Consolas" font-size="14.00">step12</text>
<polyline fill="none" stroke="#c0392b" stroke-width="2" points="440,-107.25 510,-107.25"/>
<text xml:space="preserve" text-anchor="middle" x="475" y="-89.95" font-family="Consolas" font-size="14.00">节点: 6</text>
</g>
<!-- node6&#45;&#45;node12 -->
<g id="edge11" class="edge">
<title>node6&#45;&#45;node12</title>
<path fill="none" stroke="#8383cc" stroke-width="2" d="M411.98,-165.51C423.97,-154.47 438.3,-141.28 450.26,-130.27"/>
</g>
<!-- node14 -->
<g id="node14" class="node">
<title>node14</title>
<polygon fill="#b2d3e4" stroke="#8383cc" stroke-width="2" points="528,-83.5 528,-129.5 598,-129.5 598,-83.5 528,-83.5"/>
<text xml:space="preserve" text-anchor="middle" x="563" y="-112.2" font-family="Consolas" font-size="14.00">step14</text>
<polyline fill="none" stroke="#8383cc" stroke-width="2" points="528,-107.25 598,-107.25"/>
<text xml:space="preserve" text-anchor="middle" x="563" y="-89.95" font-family="Consolas" font-size="14.00">节点: 1</text>
</g>
<!-- node13&#45;&#45;node14 -->
<g id="edge13" class="edge">
<title>node13&#45;&#45;node14</title>
<path fill="none" stroke="#8383cc" stroke-width="2" d="M703.18,-173.26C676.49,-161.76 639.24,-145.37 607,-130 604.37,-128.74 601.66,-127.43 598.94,-126.08"/>
</g>
<!-- node15 -->
<g id="node15" class="node">
<title>node15</title>
<polygon fill="#b2d3e4" stroke="#8383cc" stroke-width="2" points="616,-83.5 616,-129.5 686,-129.5 686,-83.5 616,-83.5"/>
<text xml:space="preserve" text-anchor="middle" x="651" y="-112.2" font-family="Consolas" font-size="14.00">step15</text>
<polyline fill="none" stroke="#8383cc" stroke-width="2" points="616,-107.25 686,-107.25"/>
<text xml:space="preserve" text-anchor="middle" x="651" y="-89.95" font-family="Consolas" font-size="14.00">节点: 2</text>
</g>
<!-- node13&#45;&#45;node15 -->
<g id="edge14" class="edge">
<title>node13&#45;&#45;node15</title>
<path fill="none" stroke="#8383cc" stroke-width="2" d="M714.02,-165.51C702.03,-154.47 687.7,-141.28 675.74,-130.27"/>
</g>
<!-- node16 -->
<g id="node16" class="node">
<title>node16</title>
<polygon fill="#f5b7b1" stroke="#c0392b" stroke-width="2" points="704,-83.5 704,-129.5 774,-129.5 774,-83.5 704,-83.5"/>
<text xml:space="preserve" text-anchor="middle" x="739" y="-112.2" font-family="Consolas" font-size="14.00">step16</text>
<polyline fill="none" stroke="#c0392b" stroke-width="2" points="704,-107.25 774,-107.25"/>
<text xml:space="preserve" text-anchor="middle" x="739" y="-89.95" font-family="Consolas" font-size="14.00">节点: 3</text>
</g>
<!-- node13&#45;&#45;node16 -->
<g id="edge15" class="edge">
<title>node13&#45;&#45;node16</title>
<path fill="none" stroke="#8383cc" stroke-width="2" d="M739,-165.51C739,-154.47 739,-141.28 739,-130.27"/>
</g>
<!-- node23 -->
<g id="node23" class="node">
<title>node23</title>
<polygon fill="#b2d3e4" stroke="#8383cc" stroke-width="2" points="792,-83.5 792,-129.5 862,-129.5 862,-83.5 792,-83.5"/>
<text xml:space="preserve" text-anchor="middle" x="827" y="-112.2" font-family="Consolas" font-size="14.00">step23</text>
<polyline fill="none" stroke="#8383cc" stroke-width="2" points="792,-107.25 862,-107.25"/>
<text xml:space="preserve" text-anchor="middle" x="827" y="-89.95" font-family="Consolas" font-size="14.00">节点: 4</text>
</g>
<!-- node13&#45;&#45;node23 -->
<g id="edge22" class="edge">
<title>node13&#45;&#45;node23</title>
<path fill="none" stroke="#8383cc" stroke-width="2" d="M763.98,-165.51C775.97,-154.47 790.3,-141.28 802.26,-130.27"/>
</g>
<!-- node24 -->
<g id="node24" class="node">
<title>node24</title>
<polygon fill="#b2d3e4" stroke="#8383cc" stroke-width="2" points="880,-83.5 880,-129.5 950,-129.5 950,-83.5 880,-83.5"/>
<text xml:space="preserve" text-anchor="middle" x="915" y="-112.2" font-family="Consolas" font-size="14.00">step24</text>
<polyline fill="none" stroke="#8383cc" stroke-width="2" points="880,-107.25 950,-107.25"/>
<text xml:space="preserve" text-anchor="middle" x="915" y="-89.95" font-family="Consolas" font-size="14.00">节点: 5</text>
</g>
<!-- node13&#45;&#45;node24 -->
<g id="edge23" class="edge">
<title>node13&#45;&#45;node24</title>
<path fill="none" stroke="#8383cc" stroke-width="2" d="M774.9,-169.83C777.63,-168.51 780.35,-167.22 783,-166 821.4,-148.36 832.6,-147.64 871,-130 873.65,-128.78 876.37,-127.49 879.1,-126.17"/>
</g>
<!-- node25 -->
<g id="node25" class="node">
<title>node25</title>
<polygon fill="#f5b7b1" stroke="#c0392b" stroke-width="2" points="968,-83.5 968,-129.5 1038,-129.5 1038,-83.5 968,-83.5"/>
<text xml:space="preserve" text-anchor="middle" x="1003" y="-112.2" font-family="Consolas" font-size="14.00">step25</text>
<polyline fill="none" stroke="#c0392b" stroke-width="2" points="968,-107.25 1038,-107.25"/>
<text xml:space="preserve" text-anchor="middle" x="1003" y="-89.95" font-family="Consolas" font-size="14.00">节点: 6</text>
</g>
<!-- node13&#45;&#45;node25 -->
<g id="edge24" class="edge">
<title>node13&#45;&#45;node25</title>
<path fill="none" stroke="#8383cc" stroke-width="2" d="M774.67,-169.26C777.45,-168.07 780.25,-166.97 783,-166 858.34,-139.58 883.66,-156.42 959,-130 961.75,-129.03 964.55,-127.93 967.33,-126.74"/>
</g>
<!-- node17 -->
<g id="node17" class="node">
<title>node17</title>
<polygon fill="#b2d3e4" stroke="#8383cc" stroke-width="2" points="484,-0.5 484,-46.5 554,-46.5 554,-0.5 484,-0.5"/>
<text xml:space="preserve" text-anchor="middle" x="519" y="-29.2" font-family="Consolas" font-size="14.00">step17</text>
<polyline fill="none" stroke="#8383cc" stroke-width="2" points="484,-24.25 554,-24.25"/>
<text xml:space="preserve" text-anchor="middle" x="519" y="-6.95" font-family="Consolas" font-size="14.00">节点: 1</text>
</g>
<!-- node16&#45;&#45;node17 -->
<g id="edge16" class="edge">
<title>node16&#45;&#45;node17</title>
<path fill="none" stroke="#8383cc" stroke-width="2" d="M703.26,-86.46C700.49,-85.22 697.72,-84.05 695,-83 638.29,-61.04 619.71,-68.96 563,-47 560.28,-45.95 557.51,-44.78 554.74,-43.54"/>
</g>
<!-- node18 -->
<g id="node18" class="node">
<title>node18</title>
<polygon fill="#b2d3e4" stroke="#8383cc" stroke-width="2" points="572,-0.5 572,-46.5 642,-46.5 642,-0.5 572,-0.5"/>
<text xml:space="preserve" text-anchor="middle" x="607" y="-29.2" font-family="Consolas" font-size="14.00">step18</text>
<polyline fill="none" stroke="#8383cc" stroke-width="2" points="572,-24.25 642,-24.25"/>
<text xml:space="preserve" text-anchor="middle" x="607" y="-6.95" font-family="Consolas" font-size="14.00">节点: 2</text>
</g>
<!-- node16&#45;&#45;node18 -->
<g id="edge17" class="edge">
<title>node16&#45;&#45;node18</title>
<path fill="none" stroke="#8383cc" stroke-width="2" d="M703.28,-83.58C684.5,-72.05 661.54,-57.97 642.75,-46.44"/>
</g>
<!-- node19 -->
<g id="node19" class="node">
<title>node19</title>
<polygon fill="#b2d3e4" stroke="#8383cc" stroke-width="2" points="660,-0.5 660,-46.5 730,-46.5 730,-0.5 660,-0.5"/>
<text xml:space="preserve" text-anchor="middle" x="695" y="-29.2" font-family="Consolas" font-size="14.00">step19</text>
<polyline fill="none" stroke="#8383cc" stroke-width="2" points="660,-24.25 730,-24.25"/>
<text xml:space="preserve" text-anchor="middle" x="695" y="-6.95" font-family="Consolas" font-size="14.00">节点: 3</text>
</g>
<!-- node16&#45;&#45;node19 -->
<g id="edge18" class="edge">
<title>node16&#45;&#45;node19</title>
<path fill="none" stroke="#8383cc" stroke-width="2" d="M726.51,-82.51C720.51,-71.47 713.35,-58.28 707.37,-47.27"/>
</g>
<!-- node20 -->
<g id="node20" class="node">
<title>node20</title>
<polygon fill="#b2d3e4" stroke="#8383cc" stroke-width="2" points="748,-0.5 748,-46.5 818,-46.5 818,-0.5 748,-0.5"/>
<text xml:space="preserve" text-anchor="middle" x="783" y="-29.2" font-family="Consolas" font-size="14.00">step20</text>
<polyline fill="none" stroke="#8383cc" stroke-width="2" points="748,-24.25 818,-24.25"/>
<text xml:space="preserve" text-anchor="middle" x="783" y="-6.95" font-family="Consolas" font-size="14.00">节点: 4</text>
</g>
<!-- node16&#45;&#45;node20 -->
<g id="edge19" class="edge">
<title>node16&#45;&#45;node20</title>
<path fill="none" stroke="#8383cc" stroke-width="2" d="M751.49,-82.51C757.49,-71.47 764.65,-58.28 770.63,-47.27"/>
</g>
<!-- node21 -->
<g id="node21" class="node">
<title>node21</title>
<polygon fill="#b2d3e4" stroke="#8383cc" stroke-width="2" points="836,-0.5 836,-46.5 906,-46.5 906,-0.5 836,-0.5"/>
<text xml:space="preserve" text-anchor="middle" x="871" y="-29.2" font-family="Consolas" font-size="14.00">step21</text>
<polyline fill="none" stroke="#8383cc" stroke-width="2" points="836,-24.25 906,-24.25"/>
<text xml:space="preserve" text-anchor="middle" x="871" y="-6.95" font-family="Consolas" font-size="14.00">节点: 5</text>
</g>
<!-- node16&#45;&#45;node21 -->
<g id="edge20" class="edge">
<title>node16&#45;&#45;node21</title>
<path fill="none" stroke="#8383cc" stroke-width="2" d="M774.72,-83.58C793.5,-72.05 816.46,-57.97 835.25,-46.44"/>
</g>
<!-- node22 -->
<g id="node22" class="node">
<title>node22</title>
<polygon fill="#f5b7b1" stroke="#c0392b" stroke-width="2" points="924,-0.5 924,-46.5 994,-46.5 994,-0.5 924,-0.5"/>
<text xml:space="preserve" text-anchor="middle" x="959" y="-29.2" font-family="Consolas" font-size="14.00">step22</text>
<polyline fill="none" stroke="#c0392b" stroke-width="2" points="924,-24.25 994,-24.25"/>
<text xml:space="preserve" text-anchor="middle" x="959" y="-6.95" font-family="Consolas" font-size="14.00">节点: 6</text>
</g>
<!-- node16&#45;&#45;node22 -->
<g id="edge21" class="edge">
<title>node16&#45;&#45;node22</title>
<path fill="none" stroke="#8383cc" stroke-width="2" d="M774.74,-86.46C777.51,-85.22 780.28,-84.05 783,-83 839.71,-61.04 858.29,-68.96 915,-47 917.72,-45.95 920.49,-44.78 923.26,-43.54"/>
</g>
<!-- node30 -->
<g id="node30" class="node">
<title>node30</title>
<polygon fill="#b2d3e4" stroke="#8383cc" stroke-width="2" points="1012,-166.5 1012,-212.5 1082,-212.5 1082,-166.5 1012,-166.5"/>
<text xml:space="preserve" text-anchor="middle" x="1047" y="-195.2" font-family="Consolas" font-size="14.00">step30</text>
<polyline fill="none" stroke="#8383cc" stroke-width="2" points="1012,-190.25 1082,-190.25"/>
<text xml:space="preserve" text-anchor="middle" x="1047" y="-172.95" font-family="Consolas" font-size="14.00">节点: 1</text>
</g>
<!-- node29&#45;&#45;node30 -->
<g id="edge29" class="edge">
<title>node29&#45;&#45;node30</title>
<path fill="none" stroke="#8383cc" stroke-width="2" d="M1231.26,-252.46C1228.49,-251.22 1225.72,-250.05 1223,-249 1166.29,-227.04 1147.71,-234.96 1091,-213 1088.28,-211.95 1085.51,-210.78 1082.74,-209.54"/>
</g>
<!-- node31 -->
<g id="node31" class="node">
<title>node31</title>
<polygon fill="#b2d3e4" stroke="#8383cc" stroke-width="2" points="1100,-166.5 1100,-212.5 1170,-212.5 1170,-166.5 1100,-166.5"/>
<text xml:space="preserve" text-anchor="middle" x="1135" y="-195.2" font-family="Consolas" font-size="14.00">step31</text>
<polyline fill="none" stroke="#8383cc" stroke-width="2" points="1100,-190.25 1170,-190.25"/>
<text xml:space="preserve" text-anchor="middle" x="1135" y="-172.95" font-family="Consolas" font-size="14.00">节点: 2</text>
</g>
<!-- node29&#45;&#45;node31 -->
<g id="edge30" class="edge">
<title>node29&#45;&#45;node31</title>
<path fill="none" stroke="#8383cc" stroke-width="2" d="M1231.28,-249.58C1212.5,-238.05 1189.54,-223.97 1170.75,-212.44"/>
</g>
<!-- node32 -->
<g id="node32" class="node">
<title>node32</title>
<polygon fill="#f5b7b1" stroke="#c0392b" stroke-width="2" points="1188,-166.5 1188,-212.5 1258,-212.5 1258,-166.5 1188,-166.5"/>
<text xml:space="preserve" text-anchor="middle" x="1223" y="-195.2" font-family="Consolas" font-size="14.00">step32</text>
<polyline fill="none" stroke="#c0392b" stroke-width="2" points="1188,-190.25 1258,-190.25"/>
<text xml:space="preserve" text-anchor="middle" x="1223" y="-172.95" font-family="Consolas" font-size="14.00">节点: 3</text>
</g>
<!-- node29&#45;&#45;node32 -->
<g id="edge31" class="edge">
<title>node29&#45;&#45;node32</title>
<path fill="none" stroke="#8383cc" stroke-width="2" d="M1254.51,-248.51C1248.51,-237.47 1241.35,-224.28 1235.37,-213.27"/>
</g>
<!-- node39 -->
<g id="node39" class="node">
<title>node39</title>
<polygon fill="#b2d3e4" stroke="#8383cc" stroke-width="2" points="1276,-166.5 1276,-212.5 1346,-212.5 1346,-166.5 1276,-166.5"/>
<text xml:space="preserve" text-anchor="middle" x="1311" y="-195.2" font-family="Consolas" font-size="14.00">step39</text>
<polyline fill="none" stroke="#8383cc" stroke-width="2" points="1276,-190.25 1346,-190.25"/>
<text xml:space="preserve" text-anchor="middle" x="1311" y="-172.95" font-family="Consolas" font-size="14.00">节点: 4</text>
</g>
<!-- node29&#45;&#45;node39 -->
<g id="edge38" class="edge">
<title>node29&#45;&#45;node39</title>
<path fill="none" stroke="#8383cc" stroke-width="2" d="M1279.49,-248.51C1285.49,-237.47 1292.65,-224.28 1298.63,-213.27"/>
</g>
<!-- node40 -->
<g id="node40" class="node">
<title>node40</title>
<polygon fill="#b2d3e4" stroke="#8383cc" stroke-width="2" points="1364,-166.5 1364,-212.5 1434,-212.5 1434,-166.5 1364,-166.5"/>
<text xml:space="preserve" text-anchor="middle" x="1399" y="-195.2" font-family="Consolas" font-size="14.00">step40</text>
<polyline fill="none" stroke="#8383cc" stroke-width="2" points="1364,-190.25 1434,-190.25"/>
<text xml:space="preserve" text-anchor="middle" x="1399" y="-172.95" font-family="Consolas" font-size="14.00">节点: 5</text>
</g>
<!-- node29&#45;&#45;node40 -->
<g id="edge39" class="edge">
<title>node29&#45;&#45;node40</title>
<path fill="none" stroke="#8383cc" stroke-width="2" d="M1302.72,-249.58C1321.5,-238.05 1344.46,-223.97 1363.25,-212.44"/>
</g>
<!-- node41 -->
<g id="node41" class="node">
<title>node41</title>
<polygon fill="#f5b7b1" stroke="#c0392b" stroke-width="2" points="1452,-166.5 1452,-212.5 1522,-212.5 1522,-166.5 1452,-166.5"/>
<text xml:space="preserve" text-anchor="middle" x="1487" y="-195.2" font-family="Consolas" font-size="14.00">step41</text>
<polyline fill="none" stroke="#c0392b" stroke-width="2" points="1452,-190.25 1522,-190.25"/>
<text xml:space="preserve" text-anchor="middle" x="1487" y="-172.95" font-family="Consolas" font-size="14.00">节点: 6</text>
</g>
<!-- node29&#45;&#45;node41 -->
<g id="edge40" class="edge">
<title>node29&#45;&#45;node41</title>
<path fill="none" stroke="#8383cc" stroke-width="2" d="M1302.98,-261.29C1338.97,-250.67 1395.63,-232.85 1443,-213 1445.69,-211.87 1448.44,-210.65 1451.19,-209.37"/>
</g>
<!-- node33 -->
<g id="node33" class="node">
<title>node33</title>
<polygon fill="#b2d3e4" stroke="#8383cc" stroke-width="2" points="1056,-83.5 1056,-129.5 1126,-129.5 1126,-83.5 1056,-83.5"/>
<text xml:space="preserve" text-anchor="middle" x="1091" y="-112.2" font-family="Consolas" font-size="14.00">step33</text>
<polyline fill="none" stroke="#8383cc" stroke-width="2" points="1056,-107.25 1126,-107.25"/>
<text xml:space="preserve" text-anchor="middle" x="1091" y="-89.95" font-family="Consolas" font-size="14.00">节点: 1</text>
</g>
<!-- node32&#45;&#45;node33 -->
<g id="edge32" class="edge">
<title>node32&#45;&#45;node33</title>
<path fill="none" stroke="#8383cc" stroke-width="2" d="M1187.28,-166.58C1168.5,-155.05 1145.54,-140.97 1126.75,-129.44"/>
</g>
<!-- node34 -->
<g id="node34" class="node">
<title>node34</title>
<polygon fill="#b2d3e4" stroke="#8383cc" stroke-width="2" points="1144,-83.5 1144,-129.5 1214,-129.5 1214,-83.5 1144,-83.5"/>
<text xml:space="preserve" text-anchor="middle" x="1179" y="-112.2" font-family="Consolas" font-size="14.00">step34</text>
<polyline fill="none" stroke="#8383cc" stroke-width="2" points="1144,-107.25 1214,-107.25"/>
<text xml:space="preserve" text-anchor="middle" x="1179" y="-89.95" font-family="Consolas" font-size="14.00">节点: 2</text>
</g>
<!-- node32&#45;&#45;node34 -->
<g id="edge33" class="edge">
<title>node32&#45;&#45;node34</title>
<path fill="none" stroke="#8383cc" stroke-width="2" d="M1210.51,-165.51C1204.51,-154.47 1197.35,-141.28 1191.37,-130.27"/>
</g>
<!-- node35 -->
<g id="node35" class="node">
<title>node35</title>
<polygon fill="#b2d3e4" stroke="#8383cc" stroke-width="2" points="1232,-83.5 1232,-129.5 1302,-129.5 1302,-83.5 1232,-83.5"/>
<text xml:space="preserve" text-anchor="middle" x="1267" y="-112.2" font-family="Consolas" font-size="14.00">step35</text>
<polyline fill="none" stroke="#8383cc" stroke-width="2" points="1232,-107.25 1302,-107.25"/>
<text xml:space="preserve" text-anchor="middle" x="1267" y="-89.95" font-family="Consolas" font-size="14.00">节点: 3</text>
</g>
<!-- node32&#45;&#45;node35 -->
<g id="edge34" class="edge">
<title>node32&#45;&#45;node35</title>
<path fill="none" stroke="#8383cc" stroke-width="2" d="M1235.49,-165.51C1241.49,-154.47 1248.65,-141.28 1254.63,-130.27"/>
</g>
<!-- node36 -->
<g id="node36" class="node">
<title>node36</title>
<polygon fill="#b2d3e4" stroke="#8383cc" stroke-width="2" points="1320,-83.5 1320,-129.5 1390,-129.5 1390,-83.5 1320,-83.5"/>
<text xml:space="preserve" text-anchor="middle" x="1355" y="-112.2" font-family="Consolas" font-size="14.00">step36</text>
<polyline fill="none" stroke="#8383cc" stroke-width="2" points="1320,-107.25 1390,-107.25"/>
<text xml:space="preserve" text-anchor="middle" x="1355" y="-89.95" font-family="Consolas" font-size="14.00">节点: 4</text>
</g>
<!-- node32&#45;&#45;node36 -->
<g id="edge35" class="edge">
<title>node32&#45;&#45;node36</title>
<path fill="none" stroke="#8383cc" stroke-width="2" d="M1258.72,-166.58C1277.5,-155.05 1300.46,-140.97 1319.25,-129.44"/>
</g>
<!-- node37 -->
<g id="node37" class="node">
<title>node37</title>
<polygon fill="#b2d3e4" stroke="#8383cc" stroke-width="2" points="1408,-83.5 1408,-129.5 1478,-129.5 1478,-83.5 1408,-83.5"/>
<text xml:space="preserve" text-anchor="middle" x="1443" y="-112.2" font-family="Consolas" font-size="14.00">step37</text>
<polyline fill="none" stroke="#8383cc" stroke-width="2" points="1408,-107.25 1478,-107.25"/>
<text xml:space="preserve" text-anchor="middle" x="1443" y="-89.95" font-family="Consolas" font-size="14.00">节点: 5</text>
</g>
<!-- node32&#45;&#45;node37 -->
<g id="edge36" class="edge">
<title>node32&#45;&#45;node37</title>
<path fill="none" stroke="#8383cc" stroke-width="2" d="M1258.74,-169.46C1261.51,-168.22 1264.28,-167.05 1267,-166 1323.71,-144.04 1342.29,-151.96 1399,-130 1401.72,-128.95 1404.49,-127.78 1407.26,-126.54"/>
</g>
<!-- node38 -->
<g id="node38" class="node">
<title>node38</title>
<polygon fill="#f5b7b1" stroke="#c0392b" stroke-width="2" points="1496,-83.5 1496,-129.5 1566,-129.5 1566,-83.5 1496,-83.5"/>
<text xml:space="preserve" text-anchor="middle" x="1531" y="-112.2" font-family="Consolas" font-size="14.00">step38</text>
<polyline fill="none" stroke="#c0392b" stroke-width="2" points="1496,-107.25 1566,-107.25"/>
<text xml:space="preserve" text-anchor="middle" x="1531" y="-89.95" font-family="Consolas" font-size="14.00">节点: 6</text>
</g>
<!-- node32&#45;&#45;node38 -->
<g id="edge37" class="edge">
<title>node32&#45;&#45;node38</title>
<path fill="none" stroke="#8383cc" stroke-width="2" d="M1258.63,-169.14C1261.42,-167.98 1264.23,-166.91 1267,-166 1361.13,-135.07 1392.87,-160.93 1487,-130 1489.77,-129.09 1492.58,-128.02 1495.37,-126.86"/>
</g>
<!-- node43 -->
<g id="node43" class="node">
<title>node43</title>
<polygon fill="#b2d3e4" stroke="#8383cc" stroke-width="2" points="1540,-166.5 1540,-212.5 1610,-212.5 1610,-166.5 1540,-166.5"/>
<text xml:space="preserve" text-anchor="middle" x="1575" y="-195.2" font-family="Consolas" font-size="14.00">step43</text>
<polyline fill="none" stroke="#8383cc" stroke-width="2" points="1540,-190.25 1610,-190.25"/>
<text xml:space="preserve" text-anchor="middle" x="1575" y="-172.95" font-family="Consolas" font-size="14.00">节点: 1</text>
</g>
<!-- node42&#45;&#45;node43 -->
<g id="edge42" class="edge">
<title>node42&#45;&#45;node43</title>
<path fill="none" stroke="#8383cc" stroke-width="2" d="M1671.28,-249.58C1652.5,-238.05 1629.54,-223.97 1610.75,-212.44"/>
</g>
<!-- node44 -->
<g id="node44" class="node">
<title>node44</title>
<polygon fill="#b2d3e4" stroke="#8383cc" stroke-width="2" points="1628,-166.5 1628,-212.5 1698,-212.5 1698,-166.5 1628,-166.5"/>
<text xml:space="preserve" text-anchor="middle" x="1663" y="-195.2" font-family="Consolas" font-size="14.00">step44</text>
<polyline fill="none" stroke="#8383cc" stroke-width="2" points="1628,-190.25 1698,-190.25"/>
<text xml:space="preserve" text-anchor="middle" x="1663" y="-172.95" font-family="Consolas" font-size="14.00">节点: 2</text>
</g>
<!-- node42&#45;&#45;node44 -->
<g id="edge43" class="edge">
<title>node42&#45;&#45;node44</title>
<path fill="none" stroke="#8383cc" stroke-width="2" d="M1694.51,-248.51C1688.51,-237.47 1681.35,-224.28 1675.37,-213.27"/>
</g>
<!-- node45 -->
<g id="node45" class="node">
<title>node45</title>
<polygon fill="#b2d3e4" stroke="#8383cc" stroke-width="2" points="1716,-166.5 1716,-212.5 1786,-212.5 1786,-166.5 1716,-166.5"/>
<text xml:space="preserve" text-anchor="middle" x="1751" y="-195.2" font-family="Consolas" font-size="14.00">step45</text>
<polyline fill="none" stroke="#8383cc" stroke-width="2" points="1716,-190.25 1786,-190.25"/>
<text xml:space="preserve" text-anchor="middle" x="1751" y="-172.95" font-family="Consolas" font-size="14.00">节点: 3</text>
</g>
<!-- node42&#45;&#45;node45 -->
<g id="edge44" class="edge">
<title>node42&#45;&#45;node45</title>
<path fill="none" stroke="#8383cc" stroke-width="2" d="M1719.49,-248.51C1725.49,-237.47 1732.65,-224.28 1738.63,-213.27"/>
</g>
<!-- node46 -->
<g id="node46" class="node">
<title>node46</title>
<polygon fill="#f5b7b1" stroke="#c0392b" stroke-width="2" points="1804,-166.5 1804,-212.5 1874,-212.5 1874,-166.5 1804,-166.5"/>
<text xml:space="preserve" text-anchor="middle" x="1839" y="-195.2" font-family="Consolas" font-size="14.00">step46</text>
<polyline fill="none" stroke="#c0392b" stroke-width="2" points="1804,-190.25 1874,-190.25"/>
<text xml:space="preserve" text-anchor="middle" x="1839" y="-172.95" font-family="Consolas" font-size="14.00">节点: 4</text>
</g>
<!-- node42&#45;&#45;node46 -->
<g id="edge45" class="edge">
<title>node42&#45;&#45;node46</title>
<path fill="none" stroke="#8383cc" stroke-width="2" d="M1742.72,-249.58C1761.5,-238.05 1784.46,-223.97 1803.25,-212.44"/>
</g>
<!-- node59 -->
<g id="node59" class="node">
<title>node59</title>
<polygon fill="#b2d3e4" stroke="#8383cc" stroke-width="2" points="1892,-166.5 1892,-212.5 1962,-212.5 1962,-166.5 1892,-166.5"/>
<text xml:space="preserve" text-anchor="middle" x="1927" y="-195.2" font-family="Consolas" font-size="14.00">step59</text>
<polyline fill="none" stroke="#8383cc" stroke-width="2" points="1892,-190.25 1962,-190.25"/>
<text xml:space="preserve" text-anchor="middle" x="1927" y="-172.95" font-family="Consolas" font-size="14.00">节点: 5</text>
</g>
<!-- node42&#45;&#45;node59 -->
<g id="edge58" class="edge">
<title>node42&#45;&#45;node59</title>
<path fill="none" stroke="#8383cc" stroke-width="2" d="M1742.74,-252.46C1745.51,-251.22 1748.28,-250.05 1751,-249 1807.71,-227.04 1826.29,-234.96 1883,-213 1885.72,-211.95 1888.49,-210.78 1891.26,-209.54"/>
</g>
<!-- node60 -->
<g id="node60" class="node">
<title>node60</title>
<polygon fill="#f5b7b1" stroke="#c0392b" stroke-width="2" points="1980,-166.5 1980,-212.5 2050,-212.5 2050,-166.5 1980,-166.5"/>
<text xml:space="preserve" text-anchor="middle" x="2015" y="-195.2" font-family="Consolas" font-size="14.00">step60</text>
<polyline fill="none" stroke="#c0392b" stroke-width="2" points="1980,-190.25 2050,-190.25"/>
<text xml:space="preserve" text-anchor="middle" x="2015" y="-172.95" font-family="Consolas" font-size="14.00">节点: 6</text>
</g>
<!-- node42&#45;&#45;node60 -->
<g id="edge59" class="edge">
<title>node42&#45;&#45;node60</title>
<path fill="none" stroke="#8383cc" stroke-width="2" d="M1742.63,-252.14C1745.42,-250.98 1748.23,-249.91 1751,-249 1845.13,-218.07 1876.87,-243.93 1971,-213 1973.77,-212.09 1976.58,-211.02 1979.37,-209.86"/>
</g>
<!-- node47 -->
<g id="node47" class="node">
<title>node47</title>
<polygon fill="#b2d3e4" stroke="#8383cc" stroke-width="2" points="1606,-83.5 1606,-129.5 1676,-129.5 1676,-83.5 1606,-83.5"/>
<text xml:space="preserve" text-anchor="middle" x="1641" y="-112.2" font-family="Consolas" font-size="14.00">step47</text>
<polyline fill="none" stroke="#8383cc" stroke-width="2" points="1606,-107.25 1676,-107.25"/>
<text xml:space="preserve" text-anchor="middle" x="1641" y="-89.95" font-family="Consolas" font-size="14.00">节点: 1</text>
</g>
<!-- node46&#45;&#45;node47 -->
<g id="edge46" class="edge">
<title>node46&#45;&#45;node47</title>
<path fill="none" stroke="#8383cc" stroke-width="2" d="M1803.2,-169.61C1800.45,-168.34 1797.69,-167.12 1795,-166 1747.51,-146.23 1732.49,-149.77 1685,-130 1682.31,-128.88 1679.55,-127.66 1676.8,-126.39"/>
</g>
<!-- node48 -->
<g id="node48" class="node">
<title>node48</title>
<polygon fill="#b2d3e4" stroke="#8383cc" stroke-width="2" points="1694,-83.5 1694,-129.5 1764,-129.5 1764,-83.5 1694,-83.5"/>
<text xml:space="preserve" text-anchor="middle" x="1729" y="-112.2" font-family="Consolas" font-size="14.00">step48</text>
<polyline fill="none" stroke="#8383cc" stroke-width="2" points="1694,-107.25 1764,-107.25"/>
<text xml:space="preserve" text-anchor="middle" x="1729" y="-89.95" font-family="Consolas" font-size="14.00">节点: 2</text>
</g>
<!-- node46&#45;&#45;node48 -->
<g id="edge47" class="edge">
<title>node46&#45;&#45;node48</title>
<path fill="none" stroke="#8383cc" stroke-width="2" d="M1807.77,-165.51C1792.78,-154.47 1774.88,-141.28 1759.92,-130.27"/>
</g>
<!-- node49 -->
<g id="node49" class="node">
<title>node49</title>
<polygon fill="#f5b7b1" stroke="#c0392b" stroke-width="2" points="1782,-83.5 1782,-129.5 1852,-129.5 1852,-83.5 1782,-83.5"/>
<text xml:space="preserve" text-anchor="middle" x="1817" y="-112.2" font-family="Consolas" font-size="14.00">step49</text>
<polyline fill="none" stroke="#c0392b" stroke-width="2" points="1782,-107.25 1852,-107.25"/>
<text xml:space="preserve" text-anchor="middle" x="1817" y="-89.95" font-family="Consolas" font-size="14.00">节点: 3</text>
</g>
<!-- node46&#45;&#45;node49 -->
<g id="edge48" class="edge">
<title>node46&#45;&#45;node49</title>
<path fill="none" stroke="#8383cc" stroke-width="2" d="M1832.75,-165.51C1829.76,-154.47 1826.18,-141.28 1823.18,-130.27"/>
</g>
<!-- node56 -->
<g id="node56" class="node">
<title>node56</title>
<polygon fill="#b2d3e4" stroke="#8383cc" stroke-width="2" points="1870,-83.5 1870,-129.5 1940,-129.5 1940,-83.5 1870,-83.5"/>
<text xml:space="preserve" text-anchor="middle" x="1905" y="-112.2" font-family="Consolas" font-size="14.00">step56</text>
<polyline fill="none" stroke="#8383cc" stroke-width="2" points="1870,-107.25 1940,-107.25"/>
<text xml:space="preserve" text-anchor="middle" x="1905" y="-89.95" font-family="Consolas" font-size="14.00">节点: 4</text>
</g>
<!-- node46&#45;&#45;node56 -->
<g id="edge55" class="edge">
<title>node46&#45;&#45;node56</title>
<path fill="none" stroke="#8383cc" stroke-width="2" d="M1857.74,-165.51C1866.73,-154.47 1877.47,-141.28 1886.45,-130.27"/>
</g>
<!-- node57 -->
<g id="node57" class="node">
<title>node57</title>
<polygon fill="#b2d3e4" stroke="#8383cc" stroke-width="2" points="1958,-83.5 1958,-129.5 2028,-129.5 2028,-83.5 1958,-83.5"/>
<text xml:space="preserve" text-anchor="middle" x="1993" y="-112.2" font-family="Consolas" font-size="14.00">step57</text>
<polyline fill="none" stroke="#8383cc" stroke-width="2" points="1958,-107.25 2028,-107.25"/>
<text xml:space="preserve" text-anchor="middle" x="1993" y="-89.95" font-family="Consolas" font-size="14.00">节点: 5</text>
</g>
<!-- node46&#45;&#45;node57 -->
<g id="edge56" class="edge">
<title>node46&#45;&#45;node57</title>
<path fill="none" stroke="#8383cc" stroke-width="2" d="M1874.72,-169.71C1899.51,-156.67 1932.4,-139.37 1957.21,-126.32"/>
</g>
<!-- node58 -->
<g id="node58" class="node">
<title>node58</title>
<polygon fill="#f5b7b1" stroke="#c0392b" stroke-width="2" points="2046,-83.5 2046,-129.5 2116,-129.5 2116,-83.5 2046,-83.5"/>
<text xml:space="preserve" text-anchor="middle" x="2081" y="-112.2" font-family="Consolas" font-size="14.00">step58</text>
<polyline fill="none" stroke="#c0392b" stroke-width="2" points="2046,-107.25 2116,-107.25"/>
<text xml:space="preserve" text-anchor="middle" x="2081" y="-89.95" font-family="Consolas" font-size="14.00">节点: 6</text>
</g>
<!-- node46&#45;&#45;node58 -->
<g id="edge57" class="edge">
<title>node46&#45;&#45;node58</title>
<path fill="none" stroke="#8383cc" stroke-width="2" d="M1874.7,-169.35C1877.47,-168.14 1880.26,-167 1883,-166 1949,-141.82 1971,-154.18 2037,-130 2039.74,-129 2042.53,-127.86 2045.3,-126.65"/>
</g>
<!-- node50 -->
<g id="node50" class="node">
<title>node50</title>
<polygon fill="#b2d3e4" stroke="#8383cc" stroke-width="2" points="1562,-0.5 1562,-46.5 1632,-46.5 1632,-0.5 1562,-0.5"/>
<text xml:space="preserve" text-anchor="middle" x="1597" y="-29.2" font-family="Consolas" font-size="14.00">step50</text>
<polyline fill="none" stroke="#8383cc" stroke-width="2" points="1562,-24.25 1632,-24.25"/>
<text xml:space="preserve" text-anchor="middle" x="1597" y="-6.95" font-family="Consolas" font-size="14.00">节点: 1</text>
</g>
<!-- node49&#45;&#45;node50 -->
<g id="edge49" class="edge">
<title>node49&#45;&#45;node50</title>
<path fill="none" stroke="#8383cc" stroke-width="2" d="M1781.26,-86.46C1778.49,-85.22 1775.72,-84.05 1773,-83 1716.29,-61.04 1697.71,-68.96 1641,-47 1638.28,-45.95 1635.51,-44.78 1632.74,-43.54"/>
</g>
<!-- node51 -->
<g id="node51" class="node">
<title>node51</title>
<polygon fill="#b2d3e4" stroke="#8383cc" stroke-width="2" points="1650,-0.5 1650,-46.5 1720,-46.5 1720,-0.5 1650,-0.5"/>
<text xml:space="preserve" text-anchor="middle" x="1685" y="-29.2" font-family="Consolas" font-size="14.00">step51</text>
<polyline fill="none" stroke="#8383cc" stroke-width="2" points="1650,-24.25 1720,-24.25"/>
<text xml:space="preserve" text-anchor="middle" x="1685" y="-6.95" font-family="Consolas" font-size="14.00">节点: 2</text>
</g>
<!-- node49&#45;&#45;node51 -->
<g id="edge50" class="edge">
<title>node49&#45;&#45;node51</title>
<path fill="none" stroke="#8383cc" stroke-width="2" d="M1781.28,-83.58C1762.5,-72.05 1739.54,-57.97 1720.75,-46.44"/>
</g>
<!-- node52 -->
<g id="node52" class="node">
<title>node52</title>
<polygon fill="#b2d3e4" stroke="#8383cc" stroke-width="2" points="1738,-0.5 1738,-46.5 1808,-46.5 1808,-0.5 1738,-0.5"/>
<text xml:space="preserve" text-anchor="middle" x="1773" y="-29.2" font-family="Consolas" font-size="14.00">step52</text>
<polyline fill="none" stroke="#8383cc" stroke-width="2" points="1738,-24.25 1808,-24.25"/>
<text xml:space="preserve" text-anchor="middle" x="1773" y="-6.95" font-family="Consolas" font-size="14.00">节点: 3</text>
</g>
<!-- node49&#45;&#45;node52 -->
<g id="edge51" class="edge">
<title>node49&#45;&#45;node52</title>
<path fill="none" stroke="#8383cc" stroke-width="2" d="M1804.51,-82.51C1798.51,-71.47 1791.35,-58.28 1785.37,-47.27"/>
</g>
<!-- node53 -->
<g id="node53" class="node">
<title>node53</title>
<polygon fill="#b2d3e4" stroke="#8383cc" stroke-width="2" points="1826,-0.5 1826,-46.5 1896,-46.5 1896,-0.5 1826,-0.5"/>
<text xml:space="preserve" text-anchor="middle" x="1861" y="-29.2" font-family="Consolas" font-size="14.00">step53</text>
<polyline fill="none" stroke="#8383cc" stroke-width="2" points="1826,-24.25 1896,-24.25"/>
<text xml:space="preserve" text-anchor="middle" x="1861" y="-6.95" font-family="Consolas" font-size="14.00">节点: 4</text>
</g>
<!-- node49&#45;&#45;node53 -->
<g id="edge52" class="edge">
<title>node49&#45;&#45;node53</title>
<path fill="none" stroke="#8383cc" stroke-width="2" d="M1829.49,-82.51C1835.49,-71.47 1842.65,-58.28 1848.63,-47.27"/>
</g>
<!-- node54 -->
<g id="node54" class="node">
<title>node54</title>
<polygon fill="#b2d3e4" stroke="#8383cc" stroke-width="2" points="1914,-0.5 1914,-46.5 1984,-46.5 1984,-0.5 1914,-0.5"/>
<text xml:space="preserve" text-anchor="middle" x="1949" y="-29.2" font-family="Consolas" font-size="14.00">step54</text>
<polyline fill="none" stroke="#8383cc" stroke-width="2" points="1914,-24.25 1984,-24.25"/>
<text xml:space="preserve" text-anchor="middle" x="1949" y="-6.95" font-family="Consolas" font-size="14.00">节点: 5</text>
</g>
<!-- node49&#45;&#45;node54 -->
<g id="edge53" class="edge">
<title>node49&#45;&#45;node54</title>
<path fill="none" stroke="#8383cc" stroke-width="2" d="M1852.72,-83.58C1871.5,-72.05 1894.46,-57.97 1913.25,-46.44"/>
</g>
<!-- node55 -->
<g id="node55" class="node">
<title>node55</title>
<polygon fill="#f5b7b1" stroke="#c0392b" stroke-width="2" points="2002,-0.5 2002,-46.5 2072,-46.5 2072,-0.5 2002,-0.5"/>
<text xml:space="preserve" text-anchor="middle" x="2037" y="-29.2" font-family="Consolas" font-size="14.00">step55</text>
<polyline fill="none" stroke="#c0392b" stroke-width="2" points="2002,-24.25 2072,-24.25"/>
<text xml:space="preserve" text-anchor="middle" x="2037" y="-6.95" font-family="Consolas" font-size="14.00">节点: 6</text>
</g>
<!-- node49&#45;&#45;node55 -->
<g id="edge54" class="edge">
<title>node49&#45;&#45;node55</title>
<path fill="none" stroke="#8383cc" stroke-width="2" d="M1852.74,-86.46C1855.51,-85.22 1858.28,-84.05 1861,-83 1917.71,-61.04 1936.29,-68.96 1993,-47 1995.72,-45.95 1998.49,-44.78 2001.26,-43.54"/>
</g>
</g>
</svg>
