<?xml version="1.0" encoding="UTF-8" standalone="no"?>
<!DOCTYPE svg PUBLIC "-//W3C//DTD SVG 1.1//EN"
 "http://www.w3.org/Graphics/SVG/1.1/DTD/svg11.dtd">
<!-- Generated by graphviz version 13.0.1 (20250615.1724)
 -->
<!-- Title: G Pages: 1 -->
<svg width="1638pt" height="617pt"
 viewBox="0.00 0.00 1638.00 617.00" xmlns="http://www.w3.org/2000/svg" xmlns:xlink="http://www.w3.org/1999/xlink">
<g id="graph0" class="graph" transform="scale(1 1) rotate(0) translate(4 613)">
<title>G</title>
<polygon fill="white" stroke="none" points="-4,4 -4,-613 1634,-613 1634,4 -4,4"/>
<!-- node1 -->
<g id="node1" class="node">
<title>node1</title>
<polygon fill="#ecf0f1" stroke="#7f8c8d" stroke-width="2" points="868.25,-516.5 868.25,-608.5 996.75,-608.5 996.75,-516.5 868.25,-516.5"/>
<text xml:space="preserve" text-anchor="middle" x="932.5" y="-591.2" font-family="Consolas" font-size="14.00">step1</text>
<polyline fill="none" stroke="#7f8c8d" stroke-width="2" points="868.25,-586.25 996.75,-586.25"/>
<text xml:space="preserve" text-anchor="middle" x="932.25" y="-568.95" font-family="Consolas" font-size="14.00">当前节点: NULL</text>
<polyline fill="none" stroke="#7f8c8d" stroke-width="2" points="868.25,-562.5 996.75,-562.5"/>
<text xml:space="preserve" text-anchor="middle" x="932.25" y="-545.2" font-family="Consolas" font-size="14.00">下一节点: NULL</text>
<polyline fill="none" stroke="#7f8c8d" stroke-width="2" points="868.25,-538.75 996.75,-538.75"/>
<text xml:space="preserve" text-anchor="middle" x="932.5" y="-521.45" font-family="Consolas" font-size="14.00">isvisited: NULL</text>
</g>
<!-- node2 -->
<g id="node2" class="node">
<title>node2</title>
<polygon fill="#e8daef" stroke="#8e44ad" stroke-width="2" points="235,-387.5 235,-479.5 374,-479.5 374,-387.5 235,-387.5"/>
<text xml:space="preserve" text-anchor="middle" x="304.5" y="-462.2" font-family="Consolas" font-size="14.00">step2</text>
<polyline fill="none" stroke="#8e44ad" stroke-width="2" points="235,-457.25 374,-457.25"/>
<text xml:space="preserve" text-anchor="middle" x="304.5" y="-439.95" font-family="Consolas" font-size="14.00">当前节点: (0, 0)</text>
<polyline fill="none" stroke="#8e44ad" stroke-width="2" points="235,-433.5 374,-433.5"/>
<text xml:space="preserve" text-anchor="middle" x="304.5" y="-416.2" font-family="Consolas" font-size="14.00">下一节点: (0, 1)</text>
<polyline fill="none" stroke="#8e44ad" stroke-width="2" points="235,-409.75 374,-409.75"/>
<text xml:space="preserve" text-anchor="middle" x="304.5" y="-392.45" font-family="Consolas" font-size="14.00">isvisited: 0</text>
</g>
<!-- node1&#45;&#45;node2 -->
<g id="edge1" class="edge">
<title>node1&#45;&#45;node2</title>
<path fill="none" stroke="#8383cc" stroke-width="2" d="M867.51,-559.8C762.62,-555.33 550.77,-539.07 382.5,-480 379.99,-479.12 377.46,-478.15 374.94,-477.12"/>
</g>
<!-- node13 -->
<g id="node13" class="node">
<title>node13</title>
<polygon fill="#b2d3e4" stroke="#8383cc" stroke-width="2" points="392,-387.5 392,-479.5 531,-479.5 531,-387.5 392,-387.5"/>
<text xml:space="preserve" text-anchor="middle" x="461.5" y="-462.2" font-family="Consolas" font-size="14.00">step13</text>
<polyline fill="none" stroke="#8383cc" stroke-width="2" points="392,-457.25 531,-457.25"/>
<text xml:space="preserve" text-anchor="middle" x="461.5" y="-439.95" font-family="Consolas" font-size="14.00">当前节点: (0, 0)</text>
<polyline fill="none" stroke="#8383cc" stroke-width="2" points="392,-433.5 531,-433.5"/>
<text xml:space="preserve" text-anchor="middle" x="461.5" y="-416.2" font-family="Consolas" font-size="14.00">下一节点: (1, 0)</text>
<polyline fill="none" stroke="#8383cc" stroke-width="2" points="392,-409.75 531,-409.75"/>
<text xml:space="preserve" text-anchor="middle" x="461.5" y="-392.45" font-family="Consolas" font-size="14.00">isvisited: 1</text>
</g>
<!-- node1&#45;&#45;node13 -->
<g id="edge12" class="edge">
<title>node1&#45;&#45;node13</title>
<path fill="none" stroke="#8383cc" stroke-width="2" d="M867.39,-554.54C787.92,-544.57 650.43,-522.55 539.5,-480 536.87,-478.99 534.22,-477.9 531.57,-476.74"/>
</g>
<!-- node14 -->
<g id="node14" class="node">
<title>node14</title>
<polygon fill="#b2d3e4" stroke="#8383cc" stroke-width="2" points="549,-387.5 549,-479.5 688,-479.5 688,-387.5 549,-387.5"/>
<text xml:space="preserve" text-anchor="middle" x="618.5" y="-462.2" font-family="Consolas" font-size="14.00">step14</text>
<polyline fill="none" stroke="#8383cc" stroke-width="2" points="549,-457.25 688,-457.25"/>
<text xml:space="preserve" text-anchor="middle" x="618.5" y="-439.95" font-family="Consolas" font-size="14.00">当前节点: (2, 2)</text>
<polyline fill="none" stroke="#8383cc" stroke-width="2" points="549,-433.5 688,-433.5"/>
<text xml:space="preserve" text-anchor="middle" x="618.5" y="-416.2" font-family="Consolas" font-size="14.00">下一节点: (2, 3)</text>
<polyline fill="none" stroke="#8383cc" stroke-width="2" points="549,-409.75 688,-409.75"/>
<text xml:space="preserve" text-anchor="middle" x="618.5" y="-392.45" font-family="Consolas" font-size="14.00">isvisited: 0</text>
</g>
<!-- node1&#45;&#45;node14 -->
<g id="edge13" class="edge">
<title>node1&#45;&#45;node14</title>
<path fill="none" stroke="#8383cc" stroke-width="2" d="M867.39,-542.56C819.49,-527.75 753.28,-505.46 697.5,-480 694.62,-478.69 691.71,-477.3 688.79,-475.86"/>
</g>
<!-- node15 -->
<g id="node15" class="node">
<title>node15</title>
<polygon fill="#b2d3e4" stroke="#8383cc" stroke-width="2" points="706,-387.5 706,-479.5 845,-479.5 845,-387.5 706,-387.5"/>
<text xml:space="preserve" text-anchor="middle" x="775.5" y="-462.2" font-family="Consolas" font-size="14.00">step15</text>
<polyline fill="none" stroke="#8383cc" stroke-width="2" points="706,-457.25 845,-457.25"/>
<text xml:space="preserve" text-anchor="middle" x="775.5" y="-439.95" font-family="Consolas" font-size="14.00">当前节点: (2, 2)</text>
<polyline fill="none" stroke="#8383cc" stroke-width="2" points="706,-433.5 845,-433.5"/>
<text xml:space="preserve" text-anchor="middle" x="775.5" y="-416.2" font-family="Consolas" font-size="14.00">下一节点: (3, 2)</text>
<polyline fill="none" stroke="#8383cc" stroke-width="2" points="706,-409.75 845,-409.75"/>
<text xml:space="preserve" text-anchor="middle" x="775.5" y="-392.45" font-family="Consolas" font-size="14.00">isvisited: 0</text>
</g>
<!-- node1&#45;&#45;node15 -->
<g id="edge14" class="edge">
<title>node1&#45;&#45;node15</title>
<path fill="none" stroke="#8383cc" stroke-width="2" d="M875.82,-515.65C861.68,-504.21 846.51,-491.94 832.36,-480.5"/>
</g>
<!-- node16 -->
<g id="node16" class="node">
<title>node16</title>
<polygon fill="#b2d3e4" stroke="#8383cc" stroke-width="2" points="863,-387.5 863,-479.5 1002,-479.5 1002,-387.5 863,-387.5"/>
<text xml:space="preserve" text-anchor="middle" x="932.5" y="-462.2" font-family="Consolas" font-size="14.00">step16</text>
<polyline fill="none" stroke="#8383cc" stroke-width="2" points="863,-457.25 1002,-457.25"/>
<text xml:space="preserve" text-anchor="middle" x="932.5" y="-439.95" font-family="Consolas" font-size="14.00">当前节点: (2, 2)</text>
<polyline fill="none" stroke="#8383cc" stroke-width="2" points="863,-433.5 1002,-433.5"/>
<text xml:space="preserve" text-anchor="middle" x="932.5" y="-416.2" font-family="Consolas" font-size="14.00">下一节点: (1, 2)</text>
<polyline fill="none" stroke="#8383cc" stroke-width="2" points="863,-409.75 1002,-409.75"/>
<text xml:space="preserve" text-anchor="middle" x="932.5" y="-392.45" font-family="Consolas" font-size="14.00">isvisited: 0</text>
</g>
<!-- node1&#45;&#45;node16 -->
<g id="edge15" class="edge">
<title>node1&#45;&#45;node16</title>
<path fill="none" stroke="#8383cc" stroke-width="2" d="M932.5,-515.65C932.5,-504.14 932.5,-491.79 932.5,-480.28"/>
</g>
<!-- node17 -->
<g id="node17" class="node">
<title>node17</title>
<polygon fill="#b2d3e4" stroke="#8383cc" stroke-width="2" points="1020,-387.5 1020,-479.5 1159,-479.5 1159,-387.5 1020,-387.5"/>
<text xml:space="preserve" text-anchor="middle" x="1089.5" y="-462.2" font-family="Consolas" font-size="14.00">step17</text>
<polyline fill="none" stroke="#8383cc" stroke-width="2" points="1020,-457.25 1159,-457.25"/>
<text xml:space="preserve" text-anchor="middle" x="1089.5" y="-439.95" font-family="Consolas" font-size="14.00">当前节点: (2, 2)</text>
<polyline fill="none" stroke="#8383cc" stroke-width="2" points="1020,-433.5 1159,-433.5"/>
<text xml:space="preserve" text-anchor="middle" x="1089.5" y="-416.2" font-family="Consolas" font-size="14.00">下一节点: (2, 1)</text>
<polyline fill="none" stroke="#8383cc" stroke-width="2" points="1020,-409.75 1159,-409.75"/>
<text xml:space="preserve" text-anchor="middle" x="1089.5" y="-392.45" font-family="Consolas" font-size="14.00">isvisited: 0</text>
</g>
<!-- node1&#45;&#45;node17 -->
<g id="edge16" class="edge">
<title>node1&#45;&#45;node17</title>
<path fill="none" stroke="#8383cc" stroke-width="2" d="M989.18,-515.65C1003.32,-504.21 1018.49,-491.94 1032.64,-480.5"/>
</g>
<!-- node18 -->
<g id="node18" class="node">
<title>node18</title>
<polygon fill="#e8daef" stroke="#8e44ad" stroke-width="2" points="1177,-387.5 1177,-479.5 1316,-479.5 1316,-387.5 1177,-387.5"/>
<text xml:space="preserve" text-anchor="middle" x="1246.5" y="-462.2" font-family="Consolas" font-size="14.00">step18</text>
<polyline fill="none" stroke="#8e44ad" stroke-width="2" points="1177,-457.25 1316,-457.25"/>
<text xml:space="preserve" text-anchor="middle" x="1246.5" y="-439.95" font-family="Consolas" font-size="14.00">当前节点: (3, 3)</text>
<polyline fill="none" stroke="#8e44ad" stroke-width="2" points="1177,-433.5 1316,-433.5"/>
<text xml:space="preserve" text-anchor="middle" x="1246.5" y="-416.2" font-family="Consolas" font-size="14.00">下一节点: (3, 4)</text>
<polyline fill="none" stroke="#8e44ad" stroke-width="2" points="1177,-409.75 1316,-409.75"/>
<text xml:space="preserve" text-anchor="middle" x="1246.5" y="-392.45" font-family="Consolas" font-size="14.00">isvisited: 0</text>
</g>
<!-- node1&#45;&#45;node18 -->
<g id="edge17" class="edge">
<title>node1&#45;&#45;node18</title>
<path fill="none" stroke="#8383cc" stroke-width="2" d="M997.68,-542.76C1045.83,-528.02 1112.46,-505.72 1168.5,-480 1171.06,-478.82 1173.65,-477.59 1176.25,-476.3"/>
</g>
<!-- node21 -->
<g id="node21" class="node">
<title>node21</title>
<polygon fill="#b2d3e4" stroke="#8383cc" stroke-width="2" points="1334,-387.5 1334,-479.5 1473,-479.5 1473,-387.5 1334,-387.5"/>
<text xml:space="preserve" text-anchor="middle" x="1403.5" y="-462.2" font-family="Consolas" font-size="14.00">step21</text>
<polyline fill="none" stroke="#8383cc" stroke-width="2" points="1334,-457.25 1473,-457.25"/>
<text xml:space="preserve" text-anchor="middle" x="1403.5" y="-439.95" font-family="Consolas" font-size="14.00">当前节点: (3, 3)</text>
<polyline fill="none" stroke="#8383cc" stroke-width="2" points="1334,-433.5 1473,-433.5"/>
<text xml:space="preserve" text-anchor="middle" x="1403.5" y="-416.2" font-family="Consolas" font-size="14.00">下一节点: (2, 3)</text>
<polyline fill="none" stroke="#8383cc" stroke-width="2" points="1334,-409.75 1473,-409.75"/>
<text xml:space="preserve" text-anchor="middle" x="1403.5" y="-392.45" font-family="Consolas" font-size="14.00">isvisited: 0</text>
</g>
<!-- node1&#45;&#45;node21 -->
<g id="edge20" class="edge">
<title>node1&#45;&#45;node21</title>
<path fill="none" stroke="#8383cc" stroke-width="2" d="M997.61,-554.54C1077.08,-544.57 1214.57,-522.55 1325.5,-480 1328.13,-478.99 1330.78,-477.9 1333.43,-476.74"/>
</g>
<!-- node22 -->
<g id="node22" class="node">
<title>node22</title>
<polygon fill="#b2d3e4" stroke="#8383cc" stroke-width="2" points="1491,-387.5 1491,-479.5 1630,-479.5 1630,-387.5 1491,-387.5"/>
<text xml:space="preserve" text-anchor="middle" x="1560.5" y="-462.2" font-family="Consolas" font-size="14.00">step22</text>
<polyline fill="none" stroke="#8383cc" stroke-width="2" points="1491,-457.25 1630,-457.25"/>
<text xml:space="preserve" text-anchor="middle" x="1560.5" y="-439.95" font-family="Consolas" font-size="14.00">当前节点: (3, 3)</text>
<polyline fill="none" stroke="#8383cc" stroke-width="2" points="1491,-433.5 1630,-433.5"/>
<text xml:space="preserve" text-anchor="middle" x="1560.5" y="-416.2" font-family="Consolas" font-size="14.00">下一节点: (3, 2)</text>
<polyline fill="none" stroke="#8383cc" stroke-width="2" points="1491,-409.75 1630,-409.75"/>
<text xml:space="preserve" text-anchor="middle" x="1560.5" y="-392.45" font-family="Consolas" font-size="14.00">isvisited: 0</text>
</g>
<!-- node1&#45;&#45;node22 -->
<g id="edge21" class="edge">
<title>node1&#45;&#45;node22</title>
<path fill="none" stroke="#8383cc" stroke-width="2" d="M997.49,-559.8C1102.38,-555.33 1314.23,-539.07 1482.5,-480 1485.01,-479.12 1487.54,-478.15 1490.06,-477.12"/>
</g>
<!-- node3 -->
<g id="node3" class="node">
<title>node3</title>
<polygon fill="#b2d3e4" stroke="#8383cc" stroke-width="2" points="78,-258.5 78,-350.5 217,-350.5 217,-258.5 78,-258.5"/>
<text xml:space="preserve" text-anchor="middle" x="147.5" y="-333.2" font-family="Consolas" font-size="14.00">step3</text>
<polyline fill="none" stroke="#8383cc" stroke-width="2" points="78,-328.25 217,-328.25"/>
<text xml:space="preserve" text-anchor="middle" x="147.5" y="-310.95" font-family="Consolas" font-size="14.00">当前节点: (0, 1)</text>
<polyline fill="none" stroke="#8383cc" stroke-width="2" points="78,-304.5 217,-304.5"/>
<text xml:space="preserve" text-anchor="middle" x="147.5" y="-287.2" font-family="Consolas" font-size="14.00">下一节点: (0, 2)</text>
<polyline fill="none" stroke="#8383cc" stroke-width="2" points="78,-280.75 217,-280.75"/>
<text xml:space="preserve" text-anchor="middle" x="147.5" y="-263.45" font-family="Consolas" font-size="14.00">isvisited: 0</text>
</g>
<!-- node2&#45;&#45;node3 -->
<g id="edge2" class="edge">
<title>node2&#45;&#45;node3</title>
<path fill="none" stroke="#8383cc" stroke-width="2" d="M247.82,-386.65C233.68,-375.21 218.51,-362.94 204.36,-351.5"/>
</g>
<!-- node4 -->
<g id="node4" class="node">
<title>node4</title>
<polygon fill="#e8daef" stroke="#8e44ad" stroke-width="2" points="235,-258.5 235,-350.5 374,-350.5 374,-258.5 235,-258.5"/>
<text xml:space="preserve" text-anchor="middle" x="304.5" y="-333.2" font-family="Consolas" font-size="14.00">step4</text>
<polyline fill="none" stroke="#8e44ad" stroke-width="2" points="235,-328.25 374,-328.25"/>
<text xml:space="preserve" text-anchor="middle" x="304.5" y="-310.95" font-family="Consolas" font-size="14.00">当前节点: (0, 1)</text>
<polyline fill="none" stroke="#8e44ad" stroke-width="2" points="235,-304.5 374,-304.5"/>
<text xml:space="preserve" text-anchor="middle" x="304.5" y="-287.2" font-family="Consolas" font-size="14.00">下一节点: (1, 1)</text>
<polyline fill="none" stroke="#8e44ad" stroke-width="2" points="235,-280.75 374,-280.75"/>
<text xml:space="preserve" text-anchor="middle" x="304.5" y="-263.45" font-family="Consolas" font-size="14.00">isvisited: 0</text>
</g>
<!-- node2&#45;&#45;node4 -->
<g id="edge3" class="edge">
<title>node2&#45;&#45;node4</title>
<path fill="none" stroke="#8383cc" stroke-width="2" d="M304.5,-386.65C304.5,-375.14 304.5,-362.79 304.5,-351.28"/>
</g>
<!-- node12 -->
<g id="node12" class="node">
<title>node12</title>
<polygon fill="#b2d3e4" stroke="#8383cc" stroke-width="2" points="392,-258.5 392,-350.5 531,-350.5 531,-258.5 392,-258.5"/>
<text xml:space="preserve" text-anchor="middle" x="461.5" y="-333.2" font-family="Consolas" font-size="14.00">step12</text>
<polyline fill="none" stroke="#8383cc" stroke-width="2" points="392,-328.25 531,-328.25"/>
<text xml:space="preserve" text-anchor="middle" x="461.5" y="-310.95" font-family="Consolas" font-size="14.00">当前节点: (0, 1)</text>
<polyline fill="none" stroke="#8383cc" stroke-width="2" points="392,-304.5 531,-304.5"/>
<text xml:space="preserve" text-anchor="middle" x="461.5" y="-287.2" font-family="Consolas" font-size="14.00">下一节点: (0, 0)</text>
<polyline fill="none" stroke="#8383cc" stroke-width="2" points="392,-280.75 531,-280.75"/>
<text xml:space="preserve" text-anchor="middle" x="461.5" y="-263.45" font-family="Consolas" font-size="14.00">isvisited: 1</text>
</g>
<!-- node2&#45;&#45;node12 -->
<g id="edge11" class="edge">
<title>node2&#45;&#45;node12</title>
<path fill="none" stroke="#8383cc" stroke-width="2" d="M361.18,-386.65C375.32,-375.21 390.49,-362.94 404.64,-351.5"/>
</g>
<!-- node5 -->
<g id="node5" class="node">
<title>node5</title>
<polygon fill="#b2d3e4" stroke="#8383cc" stroke-width="2" points="0,-129.5 0,-221.5 139,-221.5 139,-129.5 0,-129.5"/>
<text xml:space="preserve" text-anchor="middle" x="69.5" y="-204.2" font-family="Consolas" font-size="14.00">step5</text>
<polyline fill="none" stroke="#8383cc" stroke-width="2" points="0,-199.25 139,-199.25"/>
<text xml:space="preserve" text-anchor="middle" x="69.5" y="-181.95" font-family="Consolas" font-size="14.00">当前节点: (1, 1)</text>
<polyline fill="none" stroke="#8383cc" stroke-width="2" points="0,-175.5 139,-175.5"/>
<text xml:space="preserve" text-anchor="middle" x="69.5" y="-158.2" font-family="Consolas" font-size="14.00">下一节点: (1, 2)</text>
<polyline fill="none" stroke="#8383cc" stroke-width="2" points="0,-151.75 139,-151.75"/>
<text xml:space="preserve" text-anchor="middle" x="69.5" y="-134.45" font-family="Consolas" font-size="14.00">isvisited: 0</text>
</g>
<!-- node4&#45;&#45;node5 -->
<g id="edge4" class="edge">
<title>node4&#45;&#45;node5</title>
<path fill="none" stroke="#8383cc" stroke-width="2" d="M234.04,-262.5C231.17,-260.96 228.31,-259.45 225.5,-258 191.59,-240.45 181.36,-239.64 147.5,-222 145,-220.7 142.46,-219.35 139.91,-217.98"/>
</g>
<!-- node6 -->
<g id="node6" class="node">
<title>node6</title>
<polygon fill="#b2d3e4" stroke="#8383cc" stroke-width="2" points="157,-129.5 157,-221.5 296,-221.5 296,-129.5 157,-129.5"/>
<text xml:space="preserve" text-anchor="middle" x="226.5" y="-204.2" font-family="Consolas" font-size="14.00">step6</text>
<polyline fill="none" stroke="#8383cc" stroke-width="2" points="157,-199.25 296,-199.25"/>
<text xml:space="preserve" text-anchor="middle" x="226.5" y="-181.95" font-family="Consolas" font-size="14.00">当前节点: (1, 1)</text>
<polyline fill="none" stroke="#8383cc" stroke-width="2" points="157,-175.5 296,-175.5"/>
<text xml:space="preserve" text-anchor="middle" x="226.5" y="-158.2" font-family="Consolas" font-size="14.00">下一节点: (2, 1)</text>
<polyline fill="none" stroke="#8383cc" stroke-width="2" points="157,-151.75 296,-151.75"/>
<text xml:space="preserve" text-anchor="middle" x="226.5" y="-134.45" font-family="Consolas" font-size="14.00">isvisited: 0</text>
</g>
<!-- node4&#45;&#45;node6 -->
<g id="edge5" class="edge">
<title>node4&#45;&#45;node6</title>
<path fill="none" stroke="#8383cc" stroke-width="2" d="M276.34,-257.65C269.27,-246.14 261.69,-233.79 254.62,-222.28"/>
</g>
<!-- node7 -->
<g id="node7" class="node">
<title>node7</title>
<polygon fill="#b2d3e4" stroke="#8383cc" stroke-width="2" points="314,-129.5 314,-221.5 453,-221.5 453,-129.5 314,-129.5"/>
<text xml:space="preserve" text-anchor="middle" x="383.5" y="-204.2" font-family="Consolas" font-size="14.00">step7</text>
<polyline fill="none" stroke="#8383cc" stroke-width="2" points="314,-199.25 453,-199.25"/>
<text xml:space="preserve" text-anchor="middle" x="383.5" y="-181.95" font-family="Consolas" font-size="14.00">当前节点: (1, 1)</text>
<polyline fill="none" stroke="#8383cc" stroke-width="2" points="314,-175.5 453,-175.5"/>
<text xml:space="preserve" text-anchor="middle" x="383.5" y="-158.2" font-family="Consolas" font-size="14.00">下一节点: (0, 1)</text>
<polyline fill="none" stroke="#8383cc" stroke-width="2" points="314,-151.75 453,-151.75"/>
<text xml:space="preserve" text-anchor="middle" x="383.5" y="-134.45" font-family="Consolas" font-size="14.00">isvisited: 1</text>
</g>
<!-- node4&#45;&#45;node7 -->
<g id="edge6" class="edge">
<title>node4&#45;&#45;node7</title>
<path fill="none" stroke="#8383cc" stroke-width="2" d="M333.02,-257.65C340.18,-246.14 347.86,-233.79 355.02,-222.28"/>
</g>
<!-- node8 -->
<g id="node8" class="node">
<title>node8</title>
<polygon fill="#e8daef" stroke="#8e44ad" stroke-width="2" points="471,-129.5 471,-221.5 610,-221.5 610,-129.5 471,-129.5"/>
<text xml:space="preserve" text-anchor="middle" x="540.5" y="-204.2" font-family="Consolas" font-size="14.00">step8</text>
<polyline fill="none" stroke="#8e44ad" stroke-width="2" points="471,-199.25 610,-199.25"/>
<text xml:space="preserve" text-anchor="middle" x="540.5" y="-181.95" font-family="Consolas" font-size="14.00">当前节点: (1, 1)</text>
<polyline fill="none" stroke="#8e44ad" stroke-width="2" points="471,-175.5 610,-175.5"/>
<text xml:space="preserve" text-anchor="middle" x="540.5" y="-158.2" font-family="Consolas" font-size="14.00">下一节点: (1, 0)</text>
<polyline fill="none" stroke="#8e44ad" stroke-width="2" points="471,-151.75 610,-151.75"/>
<text xml:space="preserve" text-anchor="middle" x="540.5" y="-134.45" font-family="Consolas" font-size="14.00">isvisited: 0</text>
</g>
<!-- node4&#45;&#45;node8 -->
<g id="edge7" class="edge">
<title>node4&#45;&#45;node8</title>
<path fill="none" stroke="#8383cc" stroke-width="2" d="M374.9,-262.01C377.46,-260.64 379.99,-259.3 382.5,-258 416.76,-240.26 427.19,-239.65 461.5,-222 464.31,-220.55 467.17,-219.05 470.05,-217.52"/>
</g>
<!-- node9 -->
<g id="node9" class="node">
<title>node9</title>
<polygon fill="#b2d3e4" stroke="#8383cc" stroke-width="2" points="314,-0.5 314,-92.5 453,-92.5 453,-0.5 314,-0.5"/>
<text xml:space="preserve" text-anchor="middle" x="383.5" y="-75.2" font-family="Consolas" font-size="14.00">step9</text>
<polyline fill="none" stroke="#8383cc" stroke-width="2" points="314,-70.25 453,-70.25"/>
<text xml:space="preserve" text-anchor="middle" x="383.5" y="-52.95" font-family="Consolas" font-size="14.00">当前节点: (1, 0)</text>
<polyline fill="none" stroke="#8383cc" stroke-width="2" points="314,-46.5 453,-46.5"/>
<text xml:space="preserve" text-anchor="middle" x="383.5" y="-29.2" font-family="Consolas" font-size="14.00">下一节点: (1, 1)</text>
<polyline fill="none" stroke="#8383cc" stroke-width="2" points="314,-22.75 453,-22.75"/>
<text xml:space="preserve" text-anchor="middle" x="383.5" y="-5.45" font-family="Consolas" font-size="14.00">isvisited: 1</text>
</g>
<!-- node8&#45;&#45;node9 -->
<g id="edge8" class="edge">
<title>node8&#45;&#45;node9</title>
<path fill="none" stroke="#8383cc" stroke-width="2" d="M483.82,-128.65C469.68,-117.21 454.51,-104.94 440.36,-93.5"/>
</g>
<!-- node10 -->
<g id="node10" class="node">
<title>node10</title>
<polygon fill="#b2d3e4" stroke="#8383cc" stroke-width="2" points="471,-0.5 471,-92.5 610,-92.5 610,-0.5 471,-0.5"/>
<text xml:space="preserve" text-anchor="middle" x="540.5" y="-75.2" font-family="Consolas" font-size="14.00">step10</text>
<polyline fill="none" stroke="#8383cc" stroke-width="2" points="471,-70.25 610,-70.25"/>
<text xml:space="preserve" text-anchor="middle" x="540.5" y="-52.95" font-family="Consolas" font-size="14.00">当前节点: (1, 0)</text>
<polyline fill="none" stroke="#8383cc" stroke-width="2" points="471,-46.5 610,-46.5"/>
<text xml:space="preserve" text-anchor="middle" x="540.5" y="-29.2" font-family="Consolas" font-size="14.00">下一节点: (2, 0)</text>
<polyline fill="none" stroke="#8383cc" stroke-width="2" points="471,-22.75 610,-22.75"/>
<text xml:space="preserve" text-anchor="middle" x="540.5" y="-5.45" font-family="Consolas" font-size="14.00">isvisited: 0</text>
</g>
<!-- node8&#45;&#45;node10 -->
<g id="edge9" class="edge">
<title>node8&#45;&#45;node10</title>
<path fill="none" stroke="#8383cc" stroke-width="2" d="M540.5,-128.65C540.5,-117.14 540.5,-104.79 540.5,-93.28"/>
</g>
<!-- node11 -->
<g id="node11" class="node">
<title>node11</title>
<polygon fill="#b2d3e4" stroke="#8383cc" stroke-width="2" points="628,-0.5 628,-92.5 767,-92.5 767,-0.5 628,-0.5"/>
<text xml:space="preserve" text-anchor="middle" x="697.5" y="-75.2" font-family="Consolas" font-size="14.00">step11</text>
<polyline fill="none" stroke="#8383cc" stroke-width="2" points="628,-70.25 767,-70.25"/>
<text xml:space="preserve" text-anchor="middle" x="697.5" y="-52.95" font-family="Consolas" font-size="14.00">当前节点: (1, 0)</text>
<polyline fill="none" stroke="#8383cc" stroke-width="2" points="628,-46.5 767,-46.5"/>
<text xml:space="preserve" text-anchor="middle" x="697.5" y="-29.2" font-family="Consolas" font-size="14.00">下一节点: (0, 0)</text>
<polyline fill="none" stroke="#8383cc" stroke-width="2" points="628,-22.75 767,-22.75"/>
<text xml:space="preserve" text-anchor="middle" x="697.5" y="-5.45" font-family="Consolas" font-size="14.00">isvisited: 1</text>
</g>
<!-- node8&#45;&#45;node11 -->
<g id="edge10" class="edge">
<title>node8&#45;&#45;node11</title>
<path fill="none" stroke="#8383cc" stroke-width="2" d="M597.18,-128.65C611.32,-117.21 626.49,-104.94 640.64,-93.5"/>
</g>
<!-- node19 -->
<g id="node19" class="node">
<title>node19</title>
<polygon fill="#b2d3e4" stroke="#8383cc" stroke-width="2" points="1098,-258.5 1098,-350.5 1237,-350.5 1237,-258.5 1098,-258.5"/>
<text xml:space="preserve" text-anchor="middle" x="1167.5" y="-333.2" font-family="Consolas" font-size="14.00">step19</text>
<polyline fill="none" stroke="#8383cc" stroke-width="2" points="1098,-328.25 1237,-328.25"/>
<text xml:space="preserve" text-anchor="middle" x="1167.5" y="-310.95" font-family="Consolas" font-size="14.00">当前节点: (3, 4)</text>
<polyline fill="none" stroke="#8383cc" stroke-width="2" points="1098,-304.5 1237,-304.5"/>
<text xml:space="preserve" text-anchor="middle" x="1167.5" y="-287.2" font-family="Consolas" font-size="14.00">下一节点: (2, 4)</text>
<polyline fill="none" stroke="#8383cc" stroke-width="2" points="1098,-280.75 1237,-280.75"/>
<text xml:space="preserve" text-anchor="middle" x="1167.5" y="-263.45" font-family="Consolas" font-size="14.00">isvisited: 0</text>
</g>
<!-- node18&#45;&#45;node19 -->
<g id="edge18" class="edge">
<title>node18&#45;&#45;node19</title>
<path fill="none" stroke="#8383cc" stroke-width="2" d="M1217.98,-386.65C1210.82,-375.14 1203.14,-362.79 1195.98,-351.28"/>
</g>
<!-- node20 -->
<g id="node20" class="node">
<title>node20</title>
<polygon fill="#b2d3e4" stroke="#8383cc" stroke-width="2" points="1255,-258.5 1255,-350.5 1394,-350.5 1394,-258.5 1255,-258.5"/>
<text xml:space="preserve" text-anchor="middle" x="1324.5" y="-333.2" font-family="Consolas" font-size="14.00">step20</text>
<polyline fill="none" stroke="#8383cc" stroke-width="2" points="1255,-328.25 1394,-328.25"/>
<text xml:space="preserve" text-anchor="middle" x="1324.5" y="-310.95" font-family="Consolas" font-size="14.00">当前节点: (3, 4)</text>
<polyline fill="none" stroke="#8383cc" stroke-width="2" points="1255,-304.5 1394,-304.5"/>
<text xml:space="preserve" text-anchor="middle" x="1324.5" y="-287.2" font-family="Consolas" font-size="14.00">下一节点: (3, 3)</text>
<polyline fill="none" stroke="#8383cc" stroke-width="2" points="1255,-280.75 1394,-280.75"/>
<text xml:space="preserve" text-anchor="middle" x="1324.5" y="-263.45" font-family="Consolas" font-size="14.00">isvisited: 1</text>
</g>
<!-- node18&#45;&#45;node20 -->
<g id="edge19" class="edge">
<title>node18&#45;&#45;node20</title>
<path fill="none" stroke="#8383cc" stroke-width="2" d="M1274.66,-386.65C1281.73,-375.14 1289.31,-362.79 1296.38,-351.28"/>
</g>
</g>
</svg>
